<svg width="440" height="956" viewBox="0 0 440 956" fill="none" xmlns="http://www.w3.org/2000/svg">
<rect width="440" height="956" fill="#DAD5FF" style="fill:#DAD5FF;fill:color(display-p3 0.8549 0.8353 1.0000);fill-opacity:1;"/>
<rect x="13.3477" y="64" width="413.305" height="877" rx="40.7" fill="white" style="fill:white;fill-opacity:1;"/>
<path d="M127.664 832.234C127.664 820.219 137.404 810.479 149.419 810.479H290.585C302.6 810.479 312.34 820.219 312.34 832.234C312.34 844.249 302.6 853.989 290.585 853.989H149.419C137.404 853.989 127.664 844.249 127.664 832.234Z" fill="#08C4A9" style="fill:#08C4A9;fill:color(display-p3 0.0314 0.7686 0.6627);fill-opacity:1;"/>
<path d="M146.711 837.53L160.201 827.536L160.074 827.306C158.219 824.05 154.989 820.882 150.185 820.804C144.102 820.706 138.612 825.225 138.501 832.065C138.403 838.158 143.308 843.592 150.15 843.702C156.776 843.809 160.201 837.719 160.201 837.719L156.173 834.572C156.173 834.572 152.403 840.84 146.711 837.53ZM146.035 827.528C148.522 825.344 151.992 825.82 153.014 827.069L144.027 833.727C143.454 831.265 144.457 828.913 146.035 827.528Z" fill="white" style="fill:white;fill-opacity:1;"/>
<path d="M276.824 843.154L266.905 832.235L276.155 821.317H269.635L261.874 831.132V821.317H256.457V843.154H261.874V833.26L270.304 843.154H276.824Z" fill="white" style="fill:white;fill-opacity:1;"/>
<path d="M188.876 821.317V843.154H194.293V826.543H202.724V843.154H208.141V821.317H188.876Z" fill="white" style="fill:white;fill-opacity:1;"/>
<path d="M230.152 821.317H210.886V826.543H217.81V843.154H223.228V826.543H230.152V821.317Z" fill="white" style="fill:white;fill-opacity:1;"/>
<path d="M179.374 821.317V823.668C177.922 822.001 175.75 820.792 172.557 820.792C167.052 820.792 161.778 825.29 161.778 832.24C161.778 839.006 166.535 843.687 172.557 843.687C175.753 843.687 177.923 842.306 179.374 840.493V843.154H184.792V821.317H179.374ZM173.469 838.384C169.561 838.384 167.195 835.812 167.195 832.24C167.195 828.62 169.609 826.124 173.469 826.124C176.722 826.124 179.374 828.799 179.374 832.235C179.374 836.28 176.402 838.384 173.469 838.384Z" fill="white" style="fill:white;fill-opacity:1;"/>
<path d="M293.379 821.317V823.668C291.926 822.001 289.754 820.792 286.561 820.792C281.056 820.792 275.783 825.29 275.783 832.24C275.783 839.006 280.539 843.687 286.561 843.687C289.757 843.687 291.928 842.306 293.379 840.493V843.154H298.796V821.317H293.379ZM287.473 838.384C283.565 838.384 281.2 835.812 281.2 832.24C281.2 828.62 283.613 826.124 287.473 826.124C290.726 826.124 293.379 828.799 293.379 832.235C293.379 836.28 290.406 838.384 287.473 838.384Z" fill="white" style="fill:white;fill-opacity:1;"/>
<path d="M252.882 827.561C251.242 823.633 248.048 820.792 242.432 820.792C236.612 820.792 231.304 825.445 231.304 832.24C231.304 839.33 236.224 843.687 243.451 843.687C248.169 843.687 251.052 840.841 252.397 839.518L249.117 835.925C248.254 836.71 246.451 838.275 243.456 838.275C240.186 838.275 237.947 836.772 237.099 834.461H253.686C253.686 834.461 253.733 833.807 253.733 833.408L253.732 833.402C253.785 831.498 253.614 829.314 252.882 827.561ZM242.757 825.978C246.01 825.978 247.681 827.753 248.071 829.764H237.13C237.932 827.513 239.888 825.978 242.757 825.978Z" fill="white" style="fill:white;fill-opacity:1;"/>
<circle cx="219.999" cy="786.995" r="23.4838" fill="#7D6AFF" style="fill:#7D6AFF;fill:color(display-p3 0.4902 0.4157 1.0000);fill-opacity:1;"/>
<rect x="25" y="427.75" width="22.8541" height="42.6611" rx="11.4271" fill="#425E5F" style="fill:#425E5F;fill:color(display-p3 0.2604 0.3668 0.3724);fill-opacity:1;"/>
<rect x="47.8555" y="427.75" width="22.8541" height="42.6611" rx="11.4271" fill="#425E5F" style="fill:#425E5F;fill:color(display-p3 0.2604 0.3668 0.3724);fill-opacity:1;"/>
<rect x="70.707" y="427.75" width="22.8541" height="42.6611" rx="11.4271" fill="#425E5F" style="fill:#425E5F;fill:color(display-p3 0.2604 0.3668 0.3724);fill-opacity:1;"/>
<rect x="93.5625" y="427.75" width="22.8541" height="42.6611" rx="11.4271" fill="#425E5F" style="fill:#425E5F;fill:color(display-p3 0.2604 0.3668 0.3724);fill-opacity:1;"/>
<path d="M88.3958 457.471C94.4168 453.722 96.2592 445.803 92.511 439.782L70.707 453.355C74.4552 459.376 82.3748 461.219 88.3958 457.471Z" fill="#9EB06F" style="fill:#9EB06F;fill:color(display-p3 0.6187 0.6884 0.4358);fill-opacity:1;"/>
<ellipse cx="84.0556" cy="453.271" rx="3.41112" ry="6.04002" fill="black" style="fill:black;fill-opacity:1;"/>
<path d="M53.0183 457.471C46.9973 453.722 45.1549 445.803 48.9031 439.782L70.707 453.355C66.9588 459.376 59.0393 461.219 53.0183 457.471Z" fill="#9EB06F" style="fill:#9EB06F;fill:color(display-p3 0.6187 0.6884 0.4358);fill-opacity:1;"/>
<ellipse cx="3.41112" cy="6.04002" rx="3.41112" ry="6.04002" transform="matrix(-1 0 0 1 63.2344 447.231)" fill="black" style="fill:black;fill-opacity:1;"/>
<rect x="25" y="380.301" width="91.4165" height="42.6611" rx="21.3305" fill="#843B7A" style="fill:#843B7A;fill:color(display-p3 0.5184 0.2295 0.4799);fill-opacity:1;"/>
<path d="M99.8254 416.175C105.846 412.427 107.689 404.508 103.941 398.487L82.1367 412.06C85.8849 418.081 93.8044 419.924 99.8254 416.175Z" fill="#D671C8" style="fill:#D671C8;fill:color(display-p3 0.8380 0.4414 0.7837);fill-opacity:1;"/>
<ellipse cx="95.4853" cy="411.976" rx="3.41112" ry="6.04002" fill="black" style="fill:black;fill-opacity:1;"/>
<path d="M42.1355 416.175C36.1145 412.427 34.272 404.508 38.0203 398.487L59.8242 412.06C56.076 418.081 48.1565 419.924 42.1355 416.175Z" fill="#D671C8" style="fill:#D671C8;fill:color(display-p3 0.8380 0.4414 0.7837);fill-opacity:1;"/>
<ellipse cx="3.41112" cy="6.04002" rx="3.41112" ry="6.04002" transform="matrix(-1 0 0 1 49.8867 405.936)" fill="black" style="fill:black;fill-opacity:1;"/>
<rect x="322.895" y="380.301" width="22.8541" height="42.6611" rx="11.4271" fill="#42465F" style="fill:#42465F;fill:color(display-p3 0.2604 0.2734 0.3724);fill-opacity:1;"/>
<rect x="345.746" y="380.301" width="22.8541" height="42.6611" rx="11.4271" fill="#42465F" style="fill:#42465F;fill:color(display-p3 0.2604 0.2734 0.3724);fill-opacity:1;"/>
<rect x="368.602" y="380.301" width="22.8541" height="42.6611" rx="11.4271" fill="#42465F" style="fill:#42465F;fill:color(display-p3 0.2604 0.2734 0.3724);fill-opacity:1;"/>
<rect x="391.453" y="380.301" width="22.8541" height="42.6611" rx="11.4271" fill="#42465F" style="fill:#42465F;fill:color(display-p3 0.2604 0.2734 0.3724);fill-opacity:1;"/>
<path d="M395.685 410.021C401.706 406.273 403.548 398.354 399.8 392.333L377.996 405.906C381.744 411.927 389.664 413.77 395.685 410.021Z" fill="#FFD782" style="fill:#FFD782;fill:color(display-p3 1.0000 0.8448 0.5098);fill-opacity:1;"/>
<ellipse cx="391.345" cy="405.822" rx="3.41112" ry="6.04002" fill="black" style="fill:black;fill-opacity:1;"/>
<path d="M338.885 410.021C332.864 406.273 331.022 398.354 334.77 392.333L356.574 405.906C352.826 411.927 344.906 413.77 338.885 410.021Z" fill="#FFD782" style="fill:#FFD782;fill:color(display-p3 1.0000 0.8448 0.5098);fill-opacity:1;"/>
<ellipse cx="3.41112" cy="6.04002" rx="3.41112" ry="6.04002" transform="matrix(-1 0 0 1 349.102 399.782)" fill="black" style="fill:black;fill-opacity:1;"/>
<rect x="221.539" y="380.301" width="91.4165" height="42.6611" rx="21.3305" fill="#701AB7" style="fill:#701AB7;fill:color(display-p3 0.4398 0.1027 0.7157);fill-opacity:1;"/>
<path d="M284.935 416.175C290.956 412.427 292.798 404.508 289.05 398.487L267.246 412.06C270.994 418.081 278.914 419.924 284.935 416.175Z" fill="#7C71D6" style="fill:#7C71D6;fill:color(display-p3 0.4877 0.4414 0.8380);fill-opacity:1;"/>
<ellipse cx="280.595" cy="411.976" rx="3.41112" ry="6.04002" fill="black" style="fill:black;fill-opacity:1;"/>
<path d="M249.557 416.175C243.536 412.427 241.694 404.508 245.442 398.487L267.246 412.06C263.498 418.081 255.578 419.924 249.557 416.175Z" fill="#7C71D6" style="fill:#7C71D6;fill:color(display-p3 0.4877 0.4414 0.8380);fill-opacity:1;"/>
<ellipse cx="3.41112" cy="6.04002" rx="3.41112" ry="6.04002" transform="matrix(-1 0 0 1 257.309 405.936)" fill="black" style="fill:black;fill-opacity:1;"/>
<rect x="221.539" y="427.75" width="22.8541" height="42.6611" rx="11.4271" fill="#A7595A" style="fill:#A7595A;fill:color(display-p3 0.6537 0.3473 0.3524);fill-opacity:1;"/>
<rect x="244.395" y="427.75" width="22.8541" height="42.6611" rx="11.4271" fill="#A7595A" style="fill:#A7595A;fill:color(display-p3 0.6537 0.3473 0.3524);fill-opacity:1;"/>
<rect x="267.246" y="427.75" width="22.8541" height="42.6611" rx="11.4271" fill="#A7595A" style="fill:#A7595A;fill:color(display-p3 0.6537 0.3473 0.3524);fill-opacity:1;"/>
<rect x="290.102" y="427.75" width="22.8541" height="42.6611" rx="11.4271" fill="#A7595A" style="fill:#A7595A;fill:color(display-p3 0.6537 0.3473 0.3524);fill-opacity:1;"/>
<path d="M284.935 457.471C290.956 453.722 292.798 445.803 289.05 439.782L267.246 453.355C270.994 459.376 278.914 461.219 284.935 457.471Z" fill="#FFD782" style="fill:#FFD782;fill:color(display-p3 1.0000 0.8448 0.5098);fill-opacity:1;"/>
<ellipse cx="280.595" cy="453.271" rx="3.41112" ry="6.04002" fill="black" style="fill:black;fill-opacity:1;"/>
<path d="M249.557 457.471C243.536 453.722 241.694 445.803 245.442 439.782L267.246 453.355C263.498 459.376 255.578 461.219 249.557 457.471Z" fill="#FFD782" style="fill:#FFD782;fill:color(display-p3 1.0000 0.8448 0.5098);fill-opacity:1;"/>
<ellipse cx="3.41112" cy="6.04002" rx="3.41112" ry="6.04002" transform="matrix(-1 0 0 1 259.777 447.231)" fill="black" style="fill:black;fill-opacity:1;"/>
<path d="M190.296 427.75C202.066 427.75 211.608 437.311 211.608 449.082C211.608 460.852 202.066 470.412 190.296 470.412C183.369 470.412 177.215 467.099 173.322 461.975C171.959 462.435 170.5 462.685 168.982 462.685C167.465 462.685 166.006 462.436 164.644 461.976C160.751 467.1 154.598 470.411 147.672 470.412C135.902 470.412 126.36 460.852 126.359 449.082C126.359 437.311 135.902 427.75 147.672 427.75C154.598 427.751 160.751 431.062 164.644 436.185C166.006 435.726 167.465 435.477 168.982 435.477C170.5 435.477 171.96 435.726 173.322 436.186C177.215 431.062 183.369 427.751 190.296 427.75Z" fill="#0063A0" style="fill:#0063A0;fill:color(display-p3 0.0000 0.3864 0.6266);fill-opacity:1;"/>
<path d="M178.536 442.738C180.355 445.89 186.355 445.833 191.936 442.611C197.517 439.388 200.566 434.221 198.746 431.069L178.536 442.738Z" fill="#FF6E6E" style="fill:#FF6E6E;fill:color(display-p3 1.0000 0.4328 0.4328);fill-opacity:1;"/>
<path d="M159.273 442.738C157.453 445.89 151.454 445.833 145.873 442.611C140.292 439.388 137.243 434.221 139.062 431.069L159.273 442.738Z" fill="#FF6E6E" style="fill:#FF6E6E;fill:color(display-p3 1.0000 0.4328 0.4328);fill-opacity:1;"/>
<ellipse cx="189.265" cy="437.767" rx="1.90935" ry="5.67527" fill="black" style="fill:black;fill-opacity:1;"/>
<ellipse cx="1.90935" cy="5.67527" rx="1.90935" ry="5.67527" transform="matrix(-1 0 0 1 150.453 432.092)" fill="black" style="fill:black;fill-opacity:1;"/>
<path d="M190.296 380.301C202.066 380.301 211.608 389.862 211.608 401.632C211.608 413.402 202.066 422.962 190.296 422.962L190.294 422.961V422.962L147.67 422.961C135.901 422.961 126.36 413.402 126.359 401.632C126.359 389.862 135.902 380.301 147.672 380.301C159.442 380.301 168.983 389.862 168.983 401.632C168.983 401.634 168.983 401.636 168.983 401.637H168.984C168.984 401.636 168.984 401.634 168.984 401.632C168.984 389.862 178.526 380.301 190.296 380.301Z" fill="#78663C" style="fill:#78663C;fill:color(display-p3 0.4718 0.4010 0.2357);fill-opacity:1;"/>
<path d="M160.361 401.632C160.361 394.539 154.612 388.79 147.52 388.79L147.52 414.474C154.612 414.474 160.361 408.724 160.361 401.632Z" fill="#C9C3F8" style="fill:#C9C3F8;fill:color(display-p3 0.7882 0.7647 0.9725);fill-opacity:1;"/>
<ellipse cx="157.349" cy="401.631" rx="3.41112" ry="6.04002" fill="black" style="fill:black;fill-opacity:1;"/>
<path d="M203.131 401.632C203.131 394.539 197.381 388.79 190.289 388.79L190.289 414.474C197.381 414.474 203.131 408.724 203.131 401.632Z" fill="#C9C3F8" style="fill:#C9C3F8;fill:color(display-p3 0.7882 0.7647 0.9725);fill-opacity:1;"/>
<ellipse cx="200.118" cy="401.631" rx="3.41112" ry="6.04002" fill="black" style="fill:black;fill-opacity:1;"/>
<path d="M347.282 469.775C335.512 469.775 325.971 460.215 325.971 448.445C325.971 436.675 335.512 427.114 347.282 427.114C347.308 427.114 347.334 427.115 347.36 427.115L389.828 427.115C389.854 427.115 389.881 427.114 389.907 427.114C401.677 427.115 411.219 436.675 411.219 448.445C411.219 460.215 401.677 469.775 389.907 469.775C378.137 469.775 368.595 460.215 368.595 448.445C368.595 448.443 368.595 448.441 368.595 448.439L368.594 448.439C368.594 448.441 368.594 448.443 368.594 448.445C368.594 460.215 359.052 469.775 347.282 469.775Z" fill="#83B15B" style="fill:#83B15B;fill:color(display-p3 0.5146 0.6942 0.3574);fill-opacity:1;"/>
<path d="M337.734 459.025C342.749 464.04 350.88 464.04 355.895 459.025L337.734 440.864C332.719 445.879 332.719 454.01 337.734 459.025Z" fill="#141414" style="fill:#141414;fill:color(display-p3 0.0784 0.0784 0.0784);fill-opacity:1;"/>
<path d="M398.188 459.025C393.172 464.04 385.041 464.04 380.026 459.025L398.188 440.864C403.203 445.879 403.203 454.01 398.188 459.025Z" fill="#141414" style="fill:#141414;fill:color(display-p3 0.0784 0.0784 0.0784);fill-opacity:1;"/>
<ellipse cx="345.69" cy="449.482" rx="3.41112" ry="6.04002" transform="rotate(-180 345.69 449.482)" fill="#F5D0D0" style="fill:#F5D0D0;fill:color(display-p3 0.9601 0.8153 0.8153);fill-opacity:1;"/>
<ellipse cx="3.41112" cy="6.04002" rx="3.41112" ry="6.04002" transform="matrix(1 -8.74228e-08 -8.74228e-08 -1 386.828 455.522)" fill="#F5D0D0" style="fill:#F5D0D0;fill:color(display-p3 0.9601 0.8153 0.8153);fill-opacity:1;"/>
<rect width="22.8541" height="42.6611" rx="11.4271" transform="matrix(-1 0 0 1 414.309 332.852)" fill="#575F42" style="fill:#575F42;fill:color(display-p3 0.3425 0.3724 0.2604);fill-opacity:1;"/>
<rect width="22.8541" height="42.6611" rx="11.4271" transform="matrix(-1 0 0 1 391.453 332.852)" fill="#575F42" style="fill:#575F42;fill:color(display-p3 0.3425 0.3724 0.2604);fill-opacity:1;"/>
<rect width="22.8541" height="42.6611" rx="11.4271" transform="matrix(-1 0 0 1 368.602 332.852)" fill="#575F42" style="fill:#575F42;fill:color(display-p3 0.3425 0.3724 0.2604);fill-opacity:1;"/>
<rect width="22.8541" height="42.6611" rx="11.4271" transform="matrix(-1 0 0 1 345.746 332.852)" fill="#575F42" style="fill:#575F42;fill:color(display-p3 0.3425 0.3724 0.2604);fill-opacity:1;"/>
<path d="M350.913 362.572C344.892 358.824 343.049 350.905 346.798 344.884L368.602 358.457C364.853 364.478 356.934 366.32 350.913 362.572Z" fill="#8D4142" style="fill:#8D4142;fill:color(display-p3 0.5533 0.2532 0.2582);fill-opacity:1;"/>
<ellipse cx="3.41112" cy="6.04002" rx="3.41112" ry="6.04002" transform="matrix(-1 0 0 1 358.664 352.333)" fill="#480001" style="fill:#480001;fill:color(display-p3 0.2812 0.0000 0.0047);fill-opacity:1;"/>
<path d="M386.29 362.572C392.311 358.824 394.154 350.905 390.406 344.884L368.602 358.457C372.35 364.478 380.269 366.32 386.29 362.572Z" fill="#8D4142" style="fill:#8D4142;fill:color(display-p3 0.5533 0.2532 0.2582);fill-opacity:1;"/>
<ellipse cx="379.485" cy="358.373" rx="3.41112" ry="6.04002" fill="#480001" style="fill:#480001;fill:color(display-p3 0.2812 0.0000 0.0047);fill-opacity:1;"/>
<rect width="91.4165" height="42.6611" rx="21.3305" transform="matrix(-1 0 0 1 414.309 285.403)" fill="#5F4243" style="fill:#5F4243;fill:color(display-p3 0.3725 0.2588 0.2627);fill-opacity:1;"/>
<path d="M339.483 321.277C333.462 317.529 331.62 309.609 335.368 303.588L357.172 317.162C353.424 323.183 345.504 325.025 339.483 321.277Z" fill="#FFD782" style="fill:#FFD782;fill:color(display-p3 1.0000 0.8448 0.5098);fill-opacity:1;"/>
<ellipse cx="3.41112" cy="6.04002" rx="3.41112" ry="6.04002" transform="matrix(-1 0 0 1 347.234 311.037)" fill="black" style="fill:black;fill-opacity:1;"/>
<path d="M397.173 321.277C403.194 317.529 405.037 309.609 401.288 303.588L379.484 317.162C383.233 323.183 391.152 325.025 397.173 321.277Z" fill="#FFD782" style="fill:#FFD782;fill:color(display-p3 1.0000 0.8448 0.5098);fill-opacity:1;"/>
<ellipse cx="392.833" cy="317.077" rx="3.41112" ry="6.04002" fill="black" style="fill:black;fill-opacity:1;"/>
<rect width="22.8541" height="42.6611" rx="11.4271" transform="matrix(-1 0 0 1 116.414 285.403)" fill="#83B15B" style="fill:#83B15B;fill:color(display-p3 0.5146 0.6942 0.3574);fill-opacity:1;"/>
<rect width="22.8541" height="42.6611" rx="11.4271" transform="matrix(-1 0 0 1 93.5625 285.403)" fill="#83B15B" style="fill:#83B15B;fill:color(display-p3 0.5146 0.6942 0.3574);fill-opacity:1;"/>
<rect width="22.8541" height="42.6611" rx="11.4271" transform="matrix(-1 0 0 1 70.707 285.403)" fill="#83B15B" style="fill:#83B15B;fill:color(display-p3 0.5146 0.6942 0.3574);fill-opacity:1;"/>
<rect width="22.8541" height="42.6611" rx="11.4271" transform="matrix(-1 0 0 1 47.8555 285.403)" fill="#83B15B" style="fill:#83B15B;fill:color(display-p3 0.5146 0.6942 0.3574);fill-opacity:1;"/>
<path d="M43.6238 315.123C37.6028 311.375 35.7603 303.455 39.5085 297.434L61.3125 311.008C57.5643 317.029 49.6448 318.871 43.6238 315.123Z" fill="#C1CD42" style="fill:#C1CD42;fill:color(display-p3 0.7588 0.8040 0.2606);fill-opacity:1;"/>
<ellipse cx="3.41112" cy="6.04002" rx="3.41112" ry="6.04002" transform="matrix(-1 0 0 1 51.375 304.884)" fill="black" style="fill:black;fill-opacity:1;"/>
<path d="M100.423 315.123C106.444 311.375 108.287 303.455 104.538 297.434L82.7344 311.008C86.4826 317.029 94.4021 318.871 100.423 315.123Z" fill="#C1CD42" style="fill:#C1CD42;fill:color(display-p3 0.7588 0.8040 0.2606);fill-opacity:1;"/>
<ellipse cx="93.6181" cy="310.924" rx="3.41112" ry="6.04002" fill="black" style="fill:black;fill-opacity:1;"/>
<rect width="91.4165" height="42.6611" rx="21.3305" transform="matrix(-1 0 0 1 217.77 285.403)" fill="#7E5F98" style="fill:#7E5F98;fill:color(display-p3 0.4958 0.3712 0.5978);fill-opacity:1;"/>
<path d="M154.374 321.277C148.353 317.529 146.51 309.609 150.259 303.588L172.062 317.162C168.314 323.183 160.395 325.025 154.374 321.277Z" fill="#C9C3F8" style="fill:#C9C3F8;fill:color(display-p3 0.7891 0.7651 0.9709);fill-opacity:1;"/>
<ellipse cx="3.41112" cy="6.04002" rx="3.41112" ry="6.04002" transform="matrix(-1 0 0 1 162.125 311.037)" fill="black" style="fill:black;fill-opacity:1;"/>
<path d="M189.751 321.277C195.772 317.529 197.615 309.609 193.866 303.588L172.062 317.162C175.811 323.183 183.73 325.025 189.751 321.277Z" fill="#C9C3F8" style="fill:#C9C3F8;fill:color(display-p3 0.7891 0.7651 0.9709);fill-opacity:1;"/>
<ellipse cx="185.411" cy="317.077" rx="3.41112" ry="6.04002" fill="black" style="fill:black;fill-opacity:1;"/>
<rect width="22.8541" height="42.6611" rx="11.4271" transform="matrix(-1 0 0 1 217.77 332.852)" fill="#843B7A" style="fill:#843B7A;fill:color(display-p3 0.5176 0.2314 0.4784);fill-opacity:1;"/>
<rect width="22.8541" height="42.6611" rx="11.4271" transform="matrix(-1 0 0 1 194.914 332.852)" fill="#843B7A" style="fill:#843B7A;fill:color(display-p3 0.5176 0.2314 0.4784);fill-opacity:1;"/>
<rect width="22.8541" height="42.6611" rx="11.4271" transform="matrix(-1 0 0 1 172.062 332.852)" fill="#843B7A" style="fill:#843B7A;fill:color(display-p3 0.5176 0.2314 0.4784);fill-opacity:1;"/>
<rect width="22.8541" height="42.6611" rx="11.4271" transform="matrix(-1 0 0 1 149.207 332.852)" fill="#843B7A" style="fill:#843B7A;fill:color(display-p3 0.5176 0.2314 0.4784);fill-opacity:1;"/>
<path d="M154.374 362.572C148.353 358.824 146.51 350.905 150.259 344.884L172.062 358.457C168.314 364.478 160.395 366.32 154.374 362.572Z" fill="#FFD782" style="fill:#FFD782;fill:color(display-p3 1.0000 0.8448 0.5098);fill-opacity:1;"/>
<ellipse cx="3.41112" cy="6.04002" rx="3.41112" ry="6.04002" transform="matrix(-1 0 0 1 162.125 352.333)" fill="black" style="fill:black;fill-opacity:1;"/>
<path d="M189.751 362.572C195.772 358.824 197.615 350.905 193.866 344.884L172.062 358.457C175.811 364.478 183.73 366.32 189.751 362.572Z" fill="#FFD782" style="fill:#FFD782;fill:color(display-p3 1.0000 0.8448 0.5098);fill-opacity:1;"/>
<ellipse cx="182.942" cy="358.373" rx="3.41112" ry="6.04002" fill="black" style="fill:black;fill-opacity:1;"/>
<path d="M249.013 332.852C237.242 332.852 227.7 342.413 227.7 354.183C227.7 365.953 237.243 375.513 249.013 375.513C255.94 375.513 262.094 372.201 265.986 367.077C267.349 367.536 268.809 367.787 270.326 367.787C271.843 367.787 273.302 367.537 274.665 367.078C278.558 372.201 284.71 375.513 291.637 375.513C303.407 375.513 312.949 365.953 312.949 354.183C312.949 342.413 303.407 332.852 291.637 332.852C284.711 332.852 278.558 336.164 274.665 341.287C273.303 340.827 271.843 340.579 270.326 340.579C268.809 340.579 267.349 340.828 265.986 341.288C262.094 336.164 255.939 332.852 249.013 332.852Z" fill="#0063A0" style="fill:#0063A0;fill:color(display-p3 0.0000 0.3864 0.6266);fill-opacity:1;"/>
<path d="M260.773 347.839C258.953 350.991 252.954 350.934 247.373 347.712C241.792 344.49 238.743 339.323 240.562 336.171L260.773 347.839Z" fill="#6EFFCC" style="fill:#6EFFCC;fill:color(display-p3 0.4328 1.0000 0.8015);fill-opacity:1;"/>
<path d="M280.036 347.839C281.855 350.991 287.855 350.934 293.436 347.712C299.017 344.49 302.066 339.323 300.246 336.171L280.036 347.839Z" fill="#6EFFCC" style="fill:#6EFFCC;fill:color(display-p3 0.4328 1.0000 0.8015);fill-opacity:1;"/>
<ellipse cx="1.90935" cy="5.67527" rx="1.90935" ry="5.67527" transform="matrix(-1 0 0 1 251.953 337.193)" fill="black" style="fill:black;fill-opacity:1;"/>
<ellipse cx="290.765" cy="342.869" rx="1.90935" ry="5.67527" fill="black" style="fill:black;fill-opacity:1;"/>
<path d="M249.013 285.403C237.242 285.403 227.7 294.964 227.7 306.734C227.7 318.504 237.243 328.064 249.013 328.064L249.015 328.063V328.064L291.639 328.063C303.408 328.062 312.949 318.503 312.949 306.734C312.949 294.964 303.407 285.403 291.637 285.403C279.867 285.403 270.325 294.964 270.325 306.734C270.325 306.736 270.325 306.737 270.325 306.739H270.324C270.324 306.737 270.324 306.736 270.324 306.734C270.324 294.964 260.783 285.403 249.013 285.403Z" fill="#50452C" style="fill:#50452C;fill:color(display-p3 0.3123 0.2706 0.1732);fill-opacity:1;"/>
<path d="M278.947 306.733C278.947 299.641 284.697 293.891 291.789 293.891L291.789 319.575C284.697 319.575 278.947 313.826 278.947 306.733Z" fill="#B73E3E" style="fill:#B73E3E;fill:color(display-p3 0.7159 0.2450 0.2450);fill-opacity:1;"/>
<ellipse cx="3.41112" cy="6.04002" rx="3.41112" ry="6.04002" transform="matrix(-1 0 0 1 285.371 300.693)" fill="#F5D0D0" style="fill:#F5D0D0;fill:color(display-p3 0.9601 0.8153 0.8153);fill-opacity:1;"/>
<path d="M236.178 306.733C236.178 299.641 241.927 293.891 249.02 293.891L249.02 319.575C241.927 319.575 236.178 313.826 236.178 306.733Z" fill="#B73E3E" style="fill:#B73E3E;fill:color(display-p3 0.7159 0.2450 0.2450);fill-opacity:1;"/>
<ellipse cx="3.41112" cy="6.04002" rx="3.41112" ry="6.04002" transform="matrix(-1 0 0 1 242.602 300.693)" fill="#F5D0D0" style="fill:#F5D0D0;fill:color(display-p3 0.9601 0.8153 0.8153);fill-opacity:1;"/>
<rect x="25" y="238.59" width="22.8541" height="42.6611" rx="11.4271" fill="#8D9281" style="fill:#8D9281;fill:color(display-p3 0.5536 0.5714 0.5048);fill-opacity:1;"/>
<rect x="47.8555" y="238.59" width="22.8541" height="42.6611" rx="11.4271" fill="#8D9281" style="fill:#8D9281;fill:color(display-p3 0.5536 0.5714 0.5048);fill-opacity:1;"/>
<rect x="70.707" y="238.59" width="22.8541" height="42.6611" rx="11.4271" fill="#8D9281" style="fill:#8D9281;fill:color(display-p3 0.5536 0.5714 0.5048);fill-opacity:1;"/>
<rect x="93.5625" y="238.59" width="22.8541" height="42.6611" rx="11.4271" fill="#8D9281" style="fill:#8D9281;fill:color(display-p3 0.5536 0.5714 0.5048);fill-opacity:1;"/>
<path d="M88.3958 268.31C94.4168 264.562 96.2592 256.642 92.511 250.621L70.707 264.195C74.4552 270.216 82.3748 272.058 88.3958 268.31Z" fill="#D6DFBE" style="fill:#D6DFBE;fill:color(display-p3 0.8394 0.8759 0.7437);fill-opacity:1;"/>
<ellipse cx="84.0556" cy="264.111" rx="3.41112" ry="6.04002" fill="black" style="fill:black;fill-opacity:1;"/>
<path d="M53.0183 268.31C46.9973 264.562 45.1549 256.642 48.9031 250.621L70.707 264.195C66.9588 270.216 59.0393 272.058 53.0183 268.31Z" fill="#D6DFBE" style="fill:#D6DFBE;fill:color(display-p3 0.8394 0.8759 0.7437);fill-opacity:1;"/>
<ellipse cx="3.41112" cy="6.04002" rx="3.41112" ry="6.04002" transform="matrix(-1 0 0 1 63.2344 258.071)" fill="black" style="fill:black;fill-opacity:1;"/>
<rect x="25" y="191.141" width="91.4165" height="42.6611" rx="21.3305" fill="#843B7A" style="fill:#843B7A;fill:color(display-p3 0.5184 0.2295 0.4799);fill-opacity:1;"/>
<path d="M99.8254 227.015C105.846 223.266 107.689 215.347 103.941 209.326L82.1367 222.899C85.8849 228.92 93.8044 230.763 99.8254 227.015Z" fill="#D671C8" style="fill:#D671C8;fill:color(display-p3 0.8380 0.4414 0.7837);fill-opacity:1;"/>
<ellipse cx="95.4853" cy="222.815" rx="3.41112" ry="6.04002" fill="black" style="fill:black;fill-opacity:1;"/>
<path d="M42.1355 227.015C36.1145 223.266 34.272 215.347 38.0203 209.326L59.8242 222.899C56.076 228.92 48.1565 230.763 42.1355 227.015Z" fill="#D671C8" style="fill:#D671C8;fill:color(display-p3 0.8380 0.4414 0.7837);fill-opacity:1;"/>
<ellipse cx="3.41112" cy="6.04002" rx="3.41112" ry="6.04002" transform="matrix(-1 0 0 1 49.8867 216.775)" fill="black" style="fill:black;fill-opacity:1;"/>
<rect x="322.895" y="191.141" width="22.8541" height="42.6611" rx="11.4271" fill="#666D9E" style="fill:#666D9E;fill:color(display-p3 0.4011 0.4264 0.6181);fill-opacity:1;"/>
<rect x="345.746" y="191.141" width="22.8541" height="42.6611" rx="11.4271" fill="#666D9E" style="fill:#666D9E;fill:color(display-p3 0.4011 0.4264 0.6181);fill-opacity:1;"/>
<rect x="368.602" y="191.141" width="22.8541" height="42.6611" rx="11.4271" fill="#666D9E" style="fill:#666D9E;fill:color(display-p3 0.4011 0.4264 0.6181);fill-opacity:1;"/>
<rect x="391.453" y="191.141" width="22.8541" height="42.6611" rx="11.4271" fill="#666D9E" style="fill:#666D9E;fill:color(display-p3 0.4011 0.4264 0.6181);fill-opacity:1;"/>
<path d="M395.685 220.861C401.706 217.113 403.548 209.193 399.8 203.172L377.996 216.746C381.744 222.767 389.664 224.609 395.685 220.861Z" fill="#A0E2E8" style="fill:#A0E2E8;fill:color(display-p3 0.6276 0.8851 0.9085);fill-opacity:1;"/>
<ellipse cx="391.345" cy="216.662" rx="3.41112" ry="6.04002" fill="black" style="fill:black;fill-opacity:1;"/>
<path d="M338.885 220.861C332.864 217.113 331.022 209.193 334.77 203.172L356.574 216.746C352.826 222.767 344.906 224.609 338.885 220.861Z" fill="#A0E2E8" style="fill:#A0E2E8;fill:color(display-p3 0.6276 0.8851 0.9085);fill-opacity:1;"/>
<ellipse cx="3.41112" cy="6.04002" rx="3.41112" ry="6.04002" transform="matrix(-1 0 0 1 349.102 210.622)" fill="black" style="fill:black;fill-opacity:1;"/>
<rect x="221.539" y="191.141" width="91.4165" height="42.6611" rx="21.3305" fill="#7A5896" style="fill:#7A5896;fill:color(display-p3 0.4781 0.3452 0.5867);fill-opacity:1;"/>
<path d="M284.935 227.015C290.956 223.266 292.798 215.347 289.05 209.326L267.246 222.899C270.994 228.92 278.914 230.763 284.935 227.015Z" fill="#BCB5EF" style="fill:#BCB5EF;fill:color(display-p3 0.7378 0.7114 0.9377);fill-opacity:1;"/>
<ellipse cx="280.595" cy="222.815" rx="3.41112" ry="6.04002" fill="black" style="fill:black;fill-opacity:1;"/>
<path d="M249.557 227.015C243.536 223.266 241.694 215.347 245.442 209.326L267.246 222.899C263.498 228.92 255.578 230.763 249.557 227.015Z" fill="#BCB5EF" style="fill:#BCB5EF;fill:color(display-p3 0.7378 0.7114 0.9377);fill-opacity:1;"/>
<ellipse cx="3.41112" cy="6.04002" rx="3.41112" ry="6.04002" transform="matrix(-1 0 0 1 257.309 216.775)" fill="black" style="fill:black;fill-opacity:1;"/>
<rect x="221.539" y="238.59" width="22.8541" height="42.6611" rx="11.4271" fill="#8D4142" style="fill:#8D4142;fill:color(display-p3 0.5533 0.2532 0.2582);fill-opacity:1;"/>
<rect x="244.395" y="238.59" width="22.8541" height="42.6611" rx="11.4271" fill="#8D4142" style="fill:#8D4142;fill:color(display-p3 0.5533 0.2532 0.2582);fill-opacity:1;"/>
<rect x="267.246" y="238.59" width="22.8541" height="42.6611" rx="11.4271" fill="#8D4142" style="fill:#8D4142;fill:color(display-p3 0.5533 0.2532 0.2582);fill-opacity:1;"/>
<rect x="290.102" y="238.59" width="22.8541" height="42.6611" rx="11.4271" fill="#8D4142" style="fill:#8D4142;fill:color(display-p3 0.5533 0.2532 0.2582);fill-opacity:1;"/>
<path d="M284.935 268.31C290.956 264.562 292.798 256.642 289.05 250.621L267.246 264.195C270.994 270.216 278.914 272.058 284.935 268.31Z" fill="#FFD782" style="fill:#FFD782;fill:color(display-p3 1.0000 0.8448 0.5098);fill-opacity:1;"/>
<ellipse cx="280.595" cy="264.111" rx="3.41112" ry="6.04002" fill="black" style="fill:black;fill-opacity:1;"/>
<path d="M249.557 268.31C243.536 264.562 241.694 256.642 245.442 250.621L267.246 264.195C263.498 270.216 255.578 272.058 249.557 268.31Z" fill="#FFD782" style="fill:#FFD782;fill:color(display-p3 1.0000 0.8448 0.5098);fill-opacity:1;"/>
<ellipse cx="3.41112" cy="6.04002" rx="3.41112" ry="6.04002" transform="matrix(-1 0 0 1 259.777 258.071)" fill="black" style="fill:black;fill-opacity:1;"/>
<path d="M190.296 238.59C202.066 238.59 211.608 248.151 211.608 259.921C211.608 271.691 202.066 281.251 190.296 281.251C183.369 281.251 177.215 277.939 173.322 272.814C171.959 273.274 170.5 273.524 168.982 273.524C167.465 273.524 166.006 273.275 164.644 272.815C160.751 277.939 154.598 281.251 147.672 281.251C135.902 281.251 126.36 271.691 126.359 259.921C126.359 248.151 135.902 238.59 147.672 238.59C154.598 238.59 160.751 241.901 164.644 247.024C166.006 246.565 167.465 246.316 168.982 246.316C170.5 246.316 171.96 246.566 173.322 247.025C177.215 241.901 183.369 238.59 190.296 238.59Z" fill="#0063A0" style="fill:#0063A0;fill:color(display-p3 0.0000 0.3864 0.6266);fill-opacity:1;"/>
<path d="M178.536 253.577C180.355 256.729 186.355 256.672 191.936 253.45C197.517 250.228 200.566 245.061 198.746 241.909L178.536 253.577Z" fill="#FFD782" style="fill:#FFD782;fill:color(display-p3 1.0000 0.8448 0.5098);fill-opacity:1;"/>
<path d="M159.273 253.577C157.453 256.729 151.454 256.672 145.873 253.45C140.292 250.228 137.243 245.061 139.062 241.909L159.273 253.577Z" fill="#FFD782" style="fill:#FFD782;fill:color(display-p3 1.0000 0.8448 0.5098);fill-opacity:1;"/>
<ellipse cx="189.265" cy="248.606" rx="1.90935" ry="5.67527" fill="black" style="fill:black;fill-opacity:1;"/>
<ellipse cx="1.90935" cy="5.67527" rx="1.90935" ry="5.67527" transform="matrix(-1 0 0 1 150.453 242.931)" fill="black" style="fill:black;fill-opacity:1;"/>
<path d="M190.296 191.141C202.066 191.141 211.608 200.701 211.608 212.472C211.608 224.242 202.066 233.802 190.296 233.802L190.294 233.801V233.802L147.67 233.801C135.901 233.8 126.36 224.241 126.359 212.472C126.359 200.701 135.902 191.141 147.672 191.141C159.442 191.141 168.983 200.702 168.983 212.472C168.983 212.473 168.983 212.475 168.983 212.477H168.984C168.984 212.475 168.984 212.473 168.984 212.472C168.984 200.702 178.526 191.141 190.296 191.141Z" fill="#AD9A6F" style="fill:#AD9A6F;fill:color(display-p3 0.6786 0.6052 0.4340);fill-opacity:1;"/>
<path d="M160.361 212.471C160.361 205.379 154.612 199.629 147.52 199.629L147.52 225.313C154.612 225.313 160.361 219.563 160.361 212.471Z" fill="#141414" style="fill:#141414;fill:color(display-p3 0.0784 0.0784 0.0784);fill-opacity:1;"/>
<ellipse cx="157.349" cy="212.471" rx="3.41112" ry="6.04002" fill="#F5D0D0" style="fill:#F5D0D0;fill:color(display-p3 0.9601 0.8153 0.8153);fill-opacity:1;"/>
<path d="M203.131 212.471C203.131 205.379 197.381 199.629 190.289 199.629L190.289 225.313C197.381 225.313 203.131 219.563 203.131 212.471Z" fill="#141414" style="fill:#141414;fill:color(display-p3 0.0784 0.0784 0.0784);fill-opacity:1;"/>
<ellipse cx="200.118" cy="212.471" rx="3.41112" ry="6.04002" fill="#F5D0D0" style="fill:#F5D0D0;fill:color(display-p3 0.9601 0.8153 0.8153);fill-opacity:1;"/>
<path d="M347.282 280.615C335.512 280.615 325.971 271.055 325.971 259.285C325.971 247.514 335.512 237.954 347.282 237.954C347.308 237.954 347.334 237.954 347.36 237.955L389.828 237.955C389.854 237.954 389.881 237.954 389.907 237.954C401.677 237.954 411.219 247.515 411.219 259.285C411.219 271.055 401.677 280.614 389.907 280.615C378.137 280.615 368.595 271.055 368.595 259.285C368.595 259.283 368.595 259.281 368.595 259.279L368.594 259.279C368.594 259.281 368.594 259.283 368.594 259.285C368.594 271.055 359.052 280.615 347.282 280.615Z" fill="#83B15B" style="fill:#83B15B;fill:color(display-p3 0.5146 0.6942 0.3574);fill-opacity:1;"/>
<path d="M337.734 269.865C342.749 274.88 350.88 274.88 355.895 269.865L337.734 251.704C332.719 256.719 332.719 264.85 337.734 269.865Z" fill="#141414" style="fill:#141414;fill:color(display-p3 0.0784 0.0784 0.0784);fill-opacity:1;"/>
<path d="M398.188 269.865C393.172 274.88 385.041 274.88 380.026 269.865L398.188 251.704C403.203 256.719 403.203 264.85 398.188 269.865Z" fill="#141414" style="fill:#141414;fill:color(display-p3 0.0784 0.0784 0.0784);fill-opacity:1;"/>
<ellipse cx="345.69" cy="260.322" rx="3.41112" ry="6.04002" transform="rotate(-180 345.69 260.322)" fill="#F5D0D0" style="fill:#F5D0D0;fill:color(display-p3 0.9601 0.8153 0.8153);fill-opacity:1;"/>
<ellipse cx="3.41112" cy="6.04002" rx="3.41112" ry="6.04002" transform="matrix(1 -8.74228e-08 -8.74228e-08 -1 386.828 266.362)" fill="#F5D0D0" style="fill:#F5D0D0;fill:color(display-p3 0.9601 0.8153 0.8153);fill-opacity:1;"/>
<rect width="22.8541" height="42.6611" rx="11.4271" transform="matrix(-1 0 0 1 414.309 143.691)" fill="#575F42" style="fill:#575F42;fill:color(display-p3 0.3425 0.3724 0.2604);fill-opacity:1;"/>
<rect width="22.8541" height="42.6611" rx="11.4271" transform="matrix(-1 0 0 1 391.453 143.691)" fill="#575F42" style="fill:#575F42;fill:color(display-p3 0.3425 0.3724 0.2604);fill-opacity:1;"/>
<rect width="22.8541" height="42.6611" rx="11.4271" transform="matrix(-1 0 0 1 368.602 143.691)" fill="#575F42" style="fill:#575F42;fill:color(display-p3 0.3425 0.3724 0.2604);fill-opacity:1;"/>
<rect width="22.8541" height="42.6611" rx="11.4271" transform="matrix(-1 0 0 1 345.746 143.691)" fill="#575F42" style="fill:#575F42;fill:color(display-p3 0.3425 0.3724 0.2604);fill-opacity:1;"/>
<path d="M350.913 173.412C344.892 169.663 343.049 161.744 346.798 155.723L368.602 169.296C364.853 175.317 356.934 177.16 350.913 173.412Z" fill="#9EB06F" style="fill:#9EB06F;fill:color(display-p3 0.6187 0.6884 0.4358);fill-opacity:1;"/>
<ellipse cx="3.41112" cy="6.04002" rx="3.41112" ry="6.04002" transform="matrix(-1 0 0 1 358.664 163.172)" fill="black" style="fill:black;fill-opacity:1;"/>
<path d="M386.29 173.412C392.311 169.663 394.154 161.744 390.406 155.723L368.602 169.296C372.35 175.317 380.269 177.16 386.29 173.412Z" fill="#9EB06F" style="fill:#9EB06F;fill:color(display-p3 0.6187 0.6884 0.4358);fill-opacity:1;"/>
<ellipse cx="379.485" cy="169.212" rx="3.41112" ry="6.04002" fill="black" style="fill:black;fill-opacity:1;"/>
<rect width="91.4165" height="42.6611" rx="21.3305" transform="matrix(-1 0 0 1 414.309 96.2422)" fill="#A75255" style="fill:#A75255;fill:color(display-p3 0.6554 0.3218 0.3333);fill-opacity:1;"/>
<path d="M339.483 132.116C333.462 128.368 331.62 120.448 335.368 114.427L357.172 128.001C353.424 134.022 345.504 135.864 339.483 132.116Z" fill="#FFD782" style="fill:#FFD782;fill:color(display-p3 1.0000 0.8448 0.5098);fill-opacity:1;"/>
<ellipse cx="3.41112" cy="6.04002" rx="3.41112" ry="6.04002" transform="matrix(-1 0 0 1 347.234 121.876)" fill="black" style="fill:black;fill-opacity:1;"/>
<path d="M397.173 132.116C403.194 128.368 405.037 120.448 401.288 114.427L379.484 128.001C383.233 134.022 391.152 135.864 397.173 132.116Z" fill="#FFD782" style="fill:#FFD782;fill:color(display-p3 1.0000 0.8448 0.5098);fill-opacity:1;"/>
<ellipse cx="392.833" cy="127.916" rx="3.41112" ry="6.04002" fill="black" style="fill:black;fill-opacity:1;"/>
<rect width="22.8541" height="42.6611" rx="11.4271" transform="matrix(-1 0 0 1 116.414 96.2422)" fill="#42465F" style="fill:#42465F;fill:color(display-p3 0.2604 0.2734 0.3724);fill-opacity:1;"/>
<rect width="22.8541" height="42.6611" rx="11.4271" transform="matrix(-1 0 0 1 93.5625 96.2422)" fill="#42465F" style="fill:#42465F;fill:color(display-p3 0.2604 0.2734 0.3724);fill-opacity:1;"/>
<rect width="22.8541" height="42.6611" rx="11.4271" transform="matrix(-1 0 0 1 70.707 96.2422)" fill="#42465F" style="fill:#42465F;fill:color(display-p3 0.2604 0.2734 0.3724);fill-opacity:1;"/>
<rect width="22.8541" height="42.6611" rx="11.4271" transform="matrix(-1 0 0 1 47.8555 96.2422)" fill="#42465F" style="fill:#42465F;fill:color(display-p3 0.2604 0.2734 0.3724);fill-opacity:1;"/>
<path d="M43.6238 125.962C37.6028 122.214 35.7603 114.295 39.5085 108.274L61.3125 121.847C57.5643 127.868 49.6448 129.711 43.6238 125.962Z" fill="#A0E2E8" style="fill:#A0E2E8;fill:color(display-p3 0.6276 0.8851 0.9085);fill-opacity:1;"/>
<ellipse cx="3.41112" cy="6.04002" rx="3.41112" ry="6.04002" transform="matrix(-1 0 0 1 51.375 115.723)" fill="black" style="fill:black;fill-opacity:1;"/>
<path d="M100.423 125.962C106.444 122.214 108.287 114.295 104.538 108.274L82.7344 121.847C86.4826 127.868 94.4021 129.711 100.423 125.962Z" fill="#A0E2E8" style="fill:#A0E2E8;fill:color(display-p3 0.6276 0.8851 0.9085);fill-opacity:1;"/>
<ellipse cx="93.6181" cy="121.763" rx="3.41112" ry="6.04002" fill="black" style="fill:black;fill-opacity:1;"/>
<path d="M92.0264 374.877C103.796 374.877 113.338 365.317 113.338 353.547C113.338 341.777 103.797 332.216 92.0264 332.216C92.0003 332.216 91.9743 332.217 91.9482 332.217L49.4805 332.217C49.4543 332.217 49.4276 332.216 49.4014 332.216C37.6314 332.216 28.0898 341.777 28.0898 353.547C28.09 365.317 37.6315 374.877 49.4014 374.877C61.1715 374.877 70.7137 365.317 70.7139 353.547C70.7139 353.545 70.7139 353.543 70.7139 353.541L70.7148 353.541C70.7148 353.543 70.7148 353.545 70.7148 353.547C70.715 365.317 80.2563 374.877 92.0264 374.877Z" fill="#BDC37A" style="fill:#BDC37A;fill:color(display-p3 0.7411 0.7649 0.4798);fill-opacity:1;"/>
<path d="M101.57 364.127C96.5553 369.142 88.4243 369.142 83.4092 364.127L101.57 345.966C106.585 350.981 106.585 359.112 101.57 364.127Z" fill="#141414" style="fill:#141414;fill:color(display-p3 0.0784 0.0784 0.0784);fill-opacity:1;"/>
<path d="M41.1172 364.127C46.1322 369.142 54.2632 369.142 59.2783 364.127L41.1172 345.966C36.1021 350.981 36.1021 359.112 41.1172 364.127Z" fill="#141414" style="fill:#141414;fill:color(display-p3 0.0784 0.0784 0.0784);fill-opacity:1;"/>
<ellipse cx="3.41112" cy="6.04002" rx="3.41112" ry="6.04002" transform="matrix(1 -8.74228e-08 -8.74228e-08 -1 90.207 360.624)" fill="#F5D0D0" style="fill:#F5D0D0;fill:color(display-p3 0.9601 0.8153 0.8153);fill-opacity:1;"/>
<ellipse cx="49.0694" cy="354.584" rx="3.41112" ry="6.04002" transform="rotate(-180 49.0694 354.584)" fill="#F5D0D0" style="fill:#F5D0D0;fill:color(display-p3 0.9601 0.8153 0.8153);fill-opacity:1;"/>
<rect width="91.4165" height="42.6611" rx="21.3305" transform="matrix(-1 0 0 1 217.77 96.2422)" fill="#701AB7" style="fill:#701AB7;fill:color(display-p3 0.4398 0.1027 0.7157);fill-opacity:1;"/>
<path d="M154.374 132.116C148.353 128.368 146.51 120.448 150.259 114.427L172.062 128.001C168.314 134.022 160.395 135.864 154.374 132.116Z" fill="#7C71D6" style="fill:#7C71D6;fill:color(display-p3 0.4877 0.4414 0.8380);fill-opacity:1;"/>
<ellipse cx="3.41112" cy="6.04002" rx="3.41112" ry="6.04002" transform="matrix(-1 0 0 1 162.125 121.876)" fill="black" style="fill:black;fill-opacity:1;"/>
<path d="M189.751 132.116C195.772 128.368 197.615 120.448 193.866 114.427L172.062 128.001C175.811 134.022 183.73 135.864 189.751 132.116Z" fill="#7C71D6" style="fill:#7C71D6;fill:color(display-p3 0.4877 0.4414 0.8380);fill-opacity:1;"/>
<ellipse cx="185.411" cy="127.916" rx="3.41112" ry="6.04002" fill="black" style="fill:black;fill-opacity:1;"/>
<rect width="22.8541" height="42.6611" rx="11.4271" transform="matrix(-1 0 0 1 217.77 143.691)" fill="#843B7A" style="fill:#843B7A;fill:color(display-p3 0.5176 0.2314 0.4784);fill-opacity:1;"/>
<rect width="22.8541" height="42.6611" rx="11.4271" transform="matrix(-1 0 0 1 194.914 143.691)" fill="#843B7A" style="fill:#843B7A;fill:color(display-p3 0.5176 0.2314 0.4784);fill-opacity:1;"/>
<rect width="22.8541" height="42.6611" rx="11.4271" transform="matrix(-1 0 0 1 172.062 143.691)" fill="#843B7A" style="fill:#843B7A;fill:color(display-p3 0.5176 0.2314 0.4784);fill-opacity:1;"/>
<rect width="22.8541" height="42.6611" rx="11.4271" transform="matrix(-1 0 0 1 149.207 143.691)" fill="#843B7A" style="fill:#843B7A;fill:color(display-p3 0.5176 0.2314 0.4784);fill-opacity:1;"/>
<path d="M154.374 173.412C148.353 169.663 146.51 161.744 150.259 155.723L172.062 169.296C168.314 175.317 160.395 177.16 154.374 173.412Z" fill="#FFD782" style="fill:#FFD782;fill:color(display-p3 1.0000 0.8448 0.5098);fill-opacity:1;"/>
<ellipse cx="3.41112" cy="6.04002" rx="3.41112" ry="6.04002" transform="matrix(-1 0 0 1 162.125 163.172)" fill="black" style="fill:black;fill-opacity:1;"/>
<path d="M189.751 173.412C195.772 169.663 197.615 161.744 193.866 155.723L172.062 169.296C175.811 175.317 183.73 177.16 189.751 173.412Z" fill="#FFD782" style="fill:#FFD782;fill:color(display-p3 1.0000 0.8448 0.5098);fill-opacity:1;"/>
<ellipse cx="182.942" cy="169.212" rx="3.41112" ry="6.04002" fill="black" style="fill:black;fill-opacity:1;"/>
<path d="M249.013 143.691C237.242 143.691 227.7 153.252 227.7 165.022C227.7 176.792 237.243 186.353 249.013 186.353C255.94 186.352 262.094 183.04 265.986 177.916C267.349 178.376 268.809 178.626 270.326 178.626C271.843 178.626 273.302 178.376 274.665 177.917C278.558 183.04 284.71 186.352 291.637 186.353C303.407 186.353 312.949 176.792 312.949 165.022C312.949 153.252 303.407 143.691 291.637 143.691C284.711 143.692 278.558 147.003 274.665 152.126C273.303 151.667 271.843 151.418 270.326 151.418C268.809 151.418 267.349 151.667 265.986 152.127C262.094 147.003 255.939 143.691 249.013 143.691Z" fill="#0063A0" style="fill:#0063A0;fill:color(display-p3 0.0000 0.3864 0.6266);fill-opacity:1;"/>
<path d="M260.773 158.679C258.953 161.831 252.954 161.774 247.373 158.551C241.792 155.329 238.743 150.162 240.562 147.01L260.773 158.679Z" fill="#ADBDE3" style="fill:#ADBDE3;fill:color(display-p3 0.6794 0.7423 0.8893);fill-opacity:1;"/>
<path d="M280.036 158.679C281.855 161.831 287.855 161.774 293.436 158.551C299.017 155.329 302.066 150.162 300.246 147.01L280.036 158.679Z" fill="#ADBDE3" style="fill:#ADBDE3;fill:color(display-p3 0.6794 0.7423 0.8893);fill-opacity:1;"/>
<ellipse cx="1.90935" cy="5.67527" rx="1.90935" ry="5.67527" transform="matrix(-1 0 0 1 251.953 148.033)" fill="black" style="fill:black;fill-opacity:1;"/>
<ellipse cx="290.765" cy="153.708" rx="1.90935" ry="5.67527" fill="black" style="fill:black;fill-opacity:1;"/>
<path d="M249.013 96.2422C237.242 96.2422 227.7 105.803 227.7 117.573C227.7 129.343 237.243 138.903 249.013 138.903L249.015 138.902V138.903L291.639 138.902C303.408 138.901 312.949 129.343 312.949 117.573C312.949 105.803 303.407 96.2422 291.637 96.2422C279.867 96.2424 270.325 105.803 270.325 117.573C270.325 117.575 270.325 117.576 270.325 117.578H270.324C270.324 117.576 270.324 117.575 270.324 117.573C270.324 105.803 260.783 96.2423 249.013 96.2422Z" fill="#A07000" style="fill:#A07000;fill:color(display-p3 0.6266 0.4386 0.0000);fill-opacity:1;"/>
<path d="M278.947 117.573C278.947 110.48 284.697 104.731 291.789 104.731L291.789 130.415C284.697 130.415 278.947 124.665 278.947 117.573Z" fill="#141414" style="fill:#141414;fill:color(display-p3 0.0784 0.0784 0.0784);fill-opacity:1;"/>
<ellipse cx="3.41112" cy="6.04002" rx="3.41112" ry="6.04002" transform="matrix(-1 0 0 1 285.371 111.532)" fill="#F5D0D0" style="fill:#F5D0D0;fill:color(display-p3 0.9601 0.8153 0.8153);fill-opacity:1;"/>
<path d="M236.178 117.573C236.178 110.48 241.927 104.731 249.02 104.731L249.02 130.415C241.927 130.415 236.178 124.665 236.178 117.573Z" fill="#141414" style="fill:#141414;fill:color(display-p3 0.0784 0.0784 0.0784);fill-opacity:1;"/>
<ellipse cx="3.41112" cy="6.04002" rx="3.41112" ry="6.04002" transform="matrix(-1 0 0 1 242.602 111.532)" fill="#F5D0D0" style="fill:#F5D0D0;fill:color(display-p3 0.9601 0.8153 0.8153);fill-opacity:1;"/>
<path d="M92.0264 186.353C103.796 186.353 113.338 176.793 113.338 165.022C113.338 153.252 103.797 143.691 92.0264 143.691C92.0003 143.691 91.9743 143.692 91.9482 143.692L49.4805 143.692C49.4543 143.692 49.4276 143.691 49.4014 143.691C37.6314 143.692 28.0898 153.252 28.0898 165.022C28.09 176.792 37.6315 186.352 49.4014 186.353C61.1715 186.353 70.7137 176.793 70.7139 165.022C70.7139 165.021 70.7139 165.018 70.7139 165.017L70.7148 165.017C70.7148 165.018 70.7148 165.021 70.7148 165.022C70.715 176.792 80.2563 186.352 92.0264 186.353Z" fill="#C1CD42" style="fill:#C1CD42;fill:color(display-p3 0.7588 0.8040 0.2606);fill-opacity:1;"/>
<path d="M101.57 175.603C96.5553 180.618 88.4243 180.618 83.4092 175.603L101.57 157.441C106.585 162.456 106.585 170.587 101.57 175.603Z" fill="#141414" style="fill:#141414;fill:color(display-p3 0.0784 0.0784 0.0784);fill-opacity:1;"/>
<path d="M41.1172 175.603C46.1322 180.618 54.2632 180.618 59.2783 175.603L41.1172 157.441C36.1021 162.456 36.1021 170.587 41.1172 175.603Z" fill="#141414" style="fill:#141414;fill:color(display-p3 0.0784 0.0784 0.0784);fill-opacity:1;"/>
<ellipse cx="3.41112" cy="6.04002" rx="3.41112" ry="6.04002" transform="matrix(1 -8.74228e-08 -8.74228e-08 -1 90.207 172.1)" fill="#F5D0D0" style="fill:#F5D0D0;fill:color(display-p3 0.9601 0.8153 0.8153);fill-opacity:1;"/>
<ellipse cx="49.0694" cy="166.06" rx="3.41112" ry="6.04002" transform="rotate(-180 49.0694 166.06)" fill="#F5D0D0" style="fill:#F5D0D0;fill:color(display-p3 0.9601 0.8153 0.8153);fill-opacity:1;"/>
</svg>
