<svg width="92" height="43" viewBox="0 0 92 43" fill="none" xmlns="http://www.w3.org/2000/svg">
<rect width="91.4165" height="42.6611" rx="21.3305" transform="matrix(-1 0 0 1 91.418 0)" fill="#FF00FF" style="fill:#FF00FF;fill:color(display-p3 1.0000 0.0000 1.0000);fill-opacity:1;"/>
<path d="M27.7559 23.6787C34.8483 23.6787 40.5978 29.4282 40.5978 36.5205H14.9141C14.9141 29.4282 20.6636 23.6787 27.7559 23.6787Z" fill="white" style="fill:white;fill-opacity:1;"/>
<path d="M63.6621 23.6787C56.5697 23.6787 50.8202 29.4281 50.8202 36.5205L76.5039 36.5205C76.5039 29.4282 70.7544 23.6787 63.6621 23.6787Z" fill="white" style="fill:white;fill-opacity:1;"/>
<path d="M33.7373 30.4805C35.6212 30.4805 37.1484 33.1847 37.1484 36.5205H30.3262C30.3262 33.1847 31.8534 30.4805 33.7373 30.4805Z" fill="black" style="fill:black;fill-opacity:1;"/>
<path d="M69.0498 30.4805C70.9337 30.4805 72.4609 33.1847 72.4609 36.5205H65.6387C65.6387 33.1847 67.1659 30.4805 69.0498 30.4805Z" fill="black" style="fill:black;fill-opacity:1;"/>
</svg>
