<svg width="440" height="956" viewBox="0 0 440 956" fill="none" xmlns="http://www.w3.org/2000/svg">
<g clip-path="url(#clip0_3332_4086)">
<rect width="440" height="956" fill="#7D6AFF" style="fill:#7D6AFF;fill:color(display-p3 0.4902 0.4157 1.0000);fill-opacity:1;"/>
<g style="mix-blend-mode:luminosity">
<rect x="-8.00781" y="417.973" width="30.2349" height="56.4384" rx="15.1174" fill="#425E5F" style="fill:#425E5F;fill:color(display-p3 0.2604 0.3668 0.3724);fill-opacity:1;"/>
<rect x="22.2227" y="417.973" width="30.2349" height="56.4384" rx="15.1174" fill="#425E5F" style="fill:#425E5F;fill:color(display-p3 0.2604 0.3668 0.3724);fill-opacity:1;"/>
<rect x="52.4609" y="417.973" width="30.2349" height="56.4384" rx="15.1174" fill="#425E5F" style="fill:#425E5F;fill:color(display-p3 0.2604 0.3668 0.3724);fill-opacity:1;"/>
<path d="M45.6239 457.291C53.5894 452.333 56.0269 441.856 51.0682 433.89L22.2227 451.847C27.1814 459.813 37.6585 462.25 45.6239 457.291Z" fill="#9EB06F" style="fill:#9EB06F;fill:color(display-p3 0.6187 0.6884 0.4358);fill-opacity:1;"/>
<ellipse cx="39.8838" cy="451.736" rx="4.51273" ry="7.99064" fill="black" style="fill:black;fill-opacity:1;"/>
<path d="M-1.17863 457.291C-9.1441 452.333 -11.5816 441.856 -6.62287 433.89L22.2227 451.847C17.264 459.813 6.78684 462.25 -1.17863 457.291Z" fill="#9EB06F" style="fill:#9EB06F;fill:color(display-p3 0.6187 0.6884 0.4358);fill-opacity:1;"/>
<ellipse cx="4.51273" cy="7.99064" rx="4.51273" ry="7.99064" transform="matrix(-1 0 0 1 12.3398 443.746)" fill="black" style="fill:black;fill-opacity:1;"/>
</g>
<g style="mix-blend-mode:luminosity">
<rect x="-38.2422" y="355.201" width="120.939" height="56.4384" rx="28.2192" fill="#843B7A" style="fill:#843B7A;fill:color(display-p3 0.5184 0.2295 0.4799);fill-opacity:1;"/>
<path d="M60.7489 402.66C68.7144 397.701 71.1519 387.224 66.1932 379.259L37.3477 397.216C42.3064 405.181 52.7835 407.619 60.7489 402.66Z" fill="#D671C8" style="fill:#D671C8;fill:color(display-p3 0.8380 0.4414 0.7837);fill-opacity:1;"/>
<ellipse cx="55.0049" cy="397.104" rx="4.51273" ry="7.99064" fill="black" style="fill:black;fill-opacity:1;"/>
<path d="M-15.5732 402.66C-23.5386 397.701 -25.9761 387.224 -21.0174 379.259L7.82812 397.216C2.86942 405.181 -7.60769 407.619 -15.5732 402.66Z" fill="#D671C8" style="fill:#D671C8;fill:color(display-p3 0.8380 0.4414 0.7837);fill-opacity:1;"/>
</g>
<g style="mix-blend-mode:luminosity">
<rect x="355.855" y="355.201" width="30.2349" height="56.4384" rx="15.1174" fill="#42465F" style="fill:#42465F;fill:color(display-p3 0.2604 0.2734 0.3724);fill-opacity:1;"/>
<rect x="386.09" y="355.201" width="30.2349" height="56.4384" rx="15.1174" fill="#42465F" style="fill:#42465F;fill:color(display-p3 0.2604 0.2734 0.3724);fill-opacity:1;"/>
<rect x="416.328" y="355.201" width="30.2349" height="56.4384" rx="15.1174" fill="#42465F" style="fill:#42465F;fill:color(display-p3 0.2604 0.2734 0.3724);fill-opacity:1;"/>
<path d="M452.155 394.519C460.121 389.56 462.558 379.083 457.599 371.118L428.754 389.075C433.713 397.04 444.19 399.478 452.155 394.519Z" fill="#FFD782" style="fill:#FFD782;fill:color(display-p3 1.0000 0.8448 0.5098);fill-opacity:1;"/>
<path d="M377.013 394.519C369.047 389.56 366.61 379.083 371.569 371.118L400.414 389.075C395.455 397.04 384.978 399.478 377.013 394.519Z" fill="#FFD782" style="fill:#FFD782;fill:color(display-p3 1.0000 0.8448 0.5098);fill-opacity:1;"/>
<ellipse cx="4.51273" cy="7.99064" rx="4.51273" ry="7.99064" transform="matrix(-1 0 0 1 390.527 380.973)" fill="black" style="fill:black;fill-opacity:1;"/>
</g>
<g style="mix-blend-mode:luminosity">
<rect x="221.77" y="355.201" width="120.939" height="56.4384" rx="28.2192" fill="#701AB7" style="fill:#701AB7;fill:color(display-p3 0.4398 0.1027 0.7157);fill-opacity:1;"/>
<path d="M305.64 402.66C313.605 397.701 316.043 387.224 311.084 379.259L282.238 397.216C287.197 405.181 297.674 407.619 305.64 402.66Z" fill="#7C71D6" style="fill:#7C71D6;fill:color(display-p3 0.4877 0.4414 0.8380);fill-opacity:1;"/>
<ellipse cx="299.896" cy="397.104" rx="4.51273" ry="7.99064" fill="black" style="fill:black;fill-opacity:1;"/>
<path d="M258.837 402.66C250.872 397.701 248.434 387.224 253.393 379.259L282.238 397.216C277.28 405.181 266.802 407.619 258.837 402.66Z" fill="#7C71D6" style="fill:#7C71D6;fill:color(display-p3 0.4877 0.4414 0.8380);fill-opacity:1;"/>
<ellipse cx="4.51273" cy="7.99064" rx="4.51273" ry="7.99064" transform="matrix(-1 0 0 1 269.09 389.113)" fill="black" style="fill:black;fill-opacity:1;"/>
</g>
<g style="mix-blend-mode:luminosity">
<rect x="221.77" y="417.973" width="30.2349" height="56.4384" rx="15.1174" fill="#A7595A" style="fill:#A7595A;fill:color(display-p3 0.6537 0.3473 0.3524);fill-opacity:1;"/>
<rect x="252.004" y="417.973" width="30.2349" height="56.4384" rx="15.1174" fill="#A7595A" style="fill:#A7595A;fill:color(display-p3 0.6537 0.3473 0.3524);fill-opacity:1;"/>
<rect x="282.238" y="417.973" width="30.2349" height="56.4384" rx="15.1174" fill="#A7595A" style="fill:#A7595A;fill:color(display-p3 0.6537 0.3473 0.3524);fill-opacity:1;"/>
<rect x="312.477" y="417.973" width="30.2349" height="56.4384" rx="15.1174" fill="#A7595A" style="fill:#A7595A;fill:color(display-p3 0.6537 0.3473 0.3524);fill-opacity:1;"/>
<path d="M305.64 457.291C313.605 452.333 316.043 441.856 311.084 433.89L282.238 451.847C287.197 459.813 297.674 462.25 305.64 457.291Z" fill="#FFD782" style="fill:#FFD782;fill:color(display-p3 1.0000 0.8448 0.5098);fill-opacity:1;"/>
<ellipse cx="299.896" cy="451.736" rx="4.51273" ry="7.99064" fill="black" style="fill:black;fill-opacity:1;"/>
<path d="M258.837 457.291C250.872 452.333 248.434 441.856 253.393 433.89L282.238 451.847C277.28 459.813 266.802 462.25 258.837 457.291Z" fill="#FFD782" style="fill:#FFD782;fill:color(display-p3 1.0000 0.8448 0.5098);fill-opacity:1;"/>
<ellipse cx="4.51273" cy="7.99064" rx="4.51273" ry="7.99064" transform="matrix(-1 0 0 1 272.355 443.746)" fill="black" style="fill:black;fill-opacity:1;"/>
</g>
<g style="mix-blend-mode:luminosity">
<path d="M180.438 417.974C196.01 417.974 208.634 430.622 208.634 446.193C208.634 461.765 196.01 474.412 180.438 474.412C171.274 474.412 163.133 470.03 157.983 463.251C156.18 463.86 154.248 464.19 152.239 464.19C150.232 464.19 148.302 463.861 146.5 463.253C141.35 470.031 133.209 474.412 124.046 474.412C108.475 474.412 95.8517 461.764 95.8516 446.193C95.8516 430.622 108.475 417.974 124.046 417.974C133.209 417.974 141.35 422.355 146.5 429.133C148.302 428.525 150.233 428.196 152.239 428.196C154.248 428.196 156.179 428.526 157.982 429.135C163.132 422.355 171.274 417.974 180.438 417.974Z" fill="#0063A0" style="fill:#0063A0;fill:color(display-p3 0.0000 0.3864 0.6266);fill-opacity:1;"/>
<path d="M164.876 437.801C167.283 441.971 175.22 441.895 182.604 437.633C189.987 433.37 194.021 426.534 191.613 422.364L164.876 437.801Z" fill="#FF6E6E" style="fill:#FF6E6E;fill:color(display-p3 1.0000 0.4328 0.4328);fill-opacity:1;"/>
<path d="M139.394 437.801C136.986 441.971 129.049 441.895 121.666 437.633C114.283 433.37 110.249 426.534 112.656 422.364L139.394 437.801Z" fill="#FF6E6E" style="fill:#FF6E6E;fill:color(display-p3 1.0000 0.4328 0.4328);fill-opacity:1;"/>
<ellipse cx="179.073" cy="431.225" rx="2.52597" ry="7.5081" fill="black" style="fill:black;fill-opacity:1;"/>
<ellipse cx="2.52597" cy="7.5081" rx="2.52597" ry="7.5081" transform="matrix(-1 0 0 1 127.73 423.717)" fill="black" style="fill:black;fill-opacity:1;"/>
</g>
<g style="mix-blend-mode:luminosity">
<path d="M180.438 355.201C196.01 355.201 208.634 367.848 208.634 383.419C208.634 398.991 196.01 411.639 180.438 411.639C180.414 411.639 180.39 411.638 180.366 411.638H124.119C124.095 411.638 124.07 411.639 124.046 411.639C108.475 411.639 95.8516 398.991 95.8516 383.419C95.8518 367.848 108.475 355.201 124.046 355.201C139.617 355.201 152.241 367.848 152.241 383.419C152.241 383.422 152.241 383.424 152.241 383.426H152.244C152.244 383.424 152.244 383.422 152.244 383.419C152.244 367.848 164.867 355.201 180.438 355.201Z" fill="#78663C" style="fill:#78663C;fill:color(display-p3 0.4718 0.4010 0.2357);fill-opacity:1;"/>
<path d="M140.833 383.42C140.833 374.037 133.227 366.43 123.844 366.43L123.844 400.409C133.227 400.409 140.833 392.802 140.833 383.42Z" fill="#C9C3F8" style="fill:#C9C3F8;fill:color(display-p3 0.7882 0.7647 0.9725);fill-opacity:1;"/>
<ellipse cx="136.849" cy="383.419" rx="4.51273" ry="7.99064" fill="black" style="fill:black;fill-opacity:1;"/>
<path d="M197.419 383.42C197.419 374.037 189.813 366.43 180.43 366.43L180.43 400.409C189.813 400.409 197.419 392.802 197.419 383.42Z" fill="#C9C3F8" style="fill:#C9C3F8;fill:color(display-p3 0.7882 0.7647 0.9725);fill-opacity:1;"/>
<ellipse cx="193.431" cy="383.419" rx="4.51273" ry="7.99064" fill="black" style="fill:black;fill-opacity:1;"/>
</g>
<g style="mix-blend-mode:luminosity">
<path d="M388.115 473.57C372.544 473.57 359.921 460.923 359.921 445.352C359.921 429.78 372.544 417.132 388.115 417.132C388.14 417.132 388.164 417.133 388.188 417.133L444.436 417.133C444.46 417.133 444.484 417.132 444.508 417.132C460.079 417.132 472.703 429.78 472.703 445.352C472.703 460.923 460.079 473.57 444.508 473.57C428.937 473.57 416.314 460.923 416.313 445.352C416.313 445.349 416.313 445.346 416.313 445.344L416.311 445.344C416.311 445.346 416.311 445.349 416.311 445.352C416.31 460.923 403.686 473.57 388.115 473.57Z" fill="#83B15B" style="fill:#83B15B;fill:color(display-p3 0.5146 0.6942 0.3574);fill-opacity:1;"/>
<path d="M375.488 459.349C382.123 465.984 392.88 465.984 399.515 459.349L375.488 435.323C368.854 441.957 368.854 452.714 375.488 459.349Z" fill="#141414" style="fill:#141414;fill:color(display-p3 0.0784 0.0784 0.0784);fill-opacity:1;"/>
<path d="M455.461 459.349C448.826 465.984 438.069 465.984 431.435 459.349L455.461 435.323C462.096 441.957 462.096 452.714 455.461 459.349Z" fill="#141414" style="fill:#141414;fill:color(display-p3 0.0784 0.0784 0.0784);fill-opacity:1;"/>
<ellipse cx="386.015" cy="446.724" rx="4.51273" ry="7.99064" transform="rotate(-180 386.015 446.724)" fill="#F5D0D0" style="fill:#F5D0D0;fill:color(display-p3 0.9601 0.8153 0.8153);fill-opacity:1;"/>
</g>
<g style="mix-blend-mode:luminosity">
<rect width="30.2349" height="56.4384" rx="15.1174" transform="matrix(-1 0 0 1 446.559 292.427)" fill="#575F42" style="fill:#575F42;fill:color(display-p3 0.3425 0.3724 0.2604);fill-opacity:1;"/>
<rect width="30.2349" height="56.4384" rx="15.1174" transform="matrix(-1 0 0 1 416.328 292.427)" fill="#575F42" style="fill:#575F42;fill:color(display-p3 0.3425 0.3724 0.2604);fill-opacity:1;"/>
<rect width="30.2349" height="56.4384" rx="15.1174" transform="matrix(-1 0 0 1 386.09 292.427)" fill="#575F42" style="fill:#575F42;fill:color(display-p3 0.3425 0.3724 0.2604);fill-opacity:1;"/>
<path d="M392.927 331.746C384.961 326.787 382.524 316.31 387.483 308.345L416.328 326.302C411.369 334.267 400.892 336.705 392.927 331.746Z" fill="#8D4142" style="fill:#8D4142;fill:color(display-p3 0.5533 0.2532 0.2582);fill-opacity:1;"/>
<ellipse cx="4.51273" cy="7.99064" rx="4.51273" ry="7.99064" transform="matrix(-1 0 0 1 403.18 318.2)" fill="#480001" style="fill:#480001;fill:color(display-p3 0.2812 0.0000 0.0047);fill-opacity:1;"/>
<path d="M439.729 331.746C447.695 326.787 450.132 316.31 445.174 308.345L416.328 326.302C421.287 334.267 431.764 336.705 439.729 331.746Z" fill="#8D4142" style="fill:#8D4142;fill:color(display-p3 0.5533 0.2532 0.2582);fill-opacity:1;"/>
<ellipse cx="430.724" cy="326.191" rx="4.51273" ry="7.99064" fill="#480001" style="fill:#480001;fill:color(display-p3 0.2812 0.0000 0.0047);fill-opacity:1;"/>
</g>
<g style="mix-blend-mode:luminosity">
<rect width="120.939" height="56.4384" rx="28.2192" transform="matrix(-1 0 0 1 476.793 229.655)" fill="#5F4243" style="fill:#5F4243;fill:color(display-p3 0.3725 0.2588 0.2627);fill-opacity:1;"/>
<path d="M377.802 277.114C369.836 272.155 367.399 261.678 372.358 253.713L401.203 271.67C396.244 279.635 385.767 282.073 377.802 277.114Z" fill="#FFD782" style="fill:#FFD782;fill:color(display-p3 1.0000 0.8448 0.5098);fill-opacity:1;"/>
<ellipse cx="4.51273" cy="7.99064" rx="4.51273" ry="7.99064" transform="matrix(-1 0 0 1 388.059 263.567)" fill="black" style="fill:black;fill-opacity:1;"/>
<path d="M454.124 277.114C462.089 272.155 464.527 261.678 459.568 253.713L430.723 271.67C435.681 279.635 446.158 282.073 454.124 277.114Z" fill="#FFD782" style="fill:#FFD782;fill:color(display-p3 1.0000 0.8448 0.5098);fill-opacity:1;"/>
</g>
<g style="mix-blend-mode:luminosity">
<rect width="30.2349" height="56.4384" rx="15.1174" transform="matrix(-1 0 0 1 82.6953 229.655)" fill="#83B15B" style="fill:#83B15B;fill:color(display-p3 0.5146 0.6942 0.3574);fill-opacity:1;"/>
<rect width="30.2349" height="56.4384" rx="15.1174" transform="matrix(-1 0 0 1 52.4609 229.655)" fill="#83B15B" style="fill:#83B15B;fill:color(display-p3 0.5146 0.6942 0.3574);fill-opacity:1;"/>
<rect width="30.2349" height="56.4384" rx="15.1174" transform="matrix(-1 0 0 1 22.2227 229.655)" fill="#83B15B" style="fill:#83B15B;fill:color(display-p3 0.5146 0.6942 0.3574);fill-opacity:1;"/>
<path d="M-13.6044 268.973C-21.5699 264.014 -24.0073 253.537 -19.0486 245.572L9.79688 263.529C4.83817 271.494 -5.63894 273.932 -13.6044 268.973Z" fill="#C1CD42" style="fill:#C1CD42;fill:color(display-p3 0.7588 0.8040 0.2606);fill-opacity:1;"/>
<path d="M61.538 268.973C69.5035 264.014 71.9409 253.537 66.9822 245.572L38.1367 263.529C43.0954 271.494 53.5725 273.932 61.538 268.973Z" fill="#C1CD42" style="fill:#C1CD42;fill:color(display-p3 0.7588 0.8040 0.2606);fill-opacity:1;"/>
<ellipse cx="52.5362" cy="263.417" rx="4.51273" ry="7.99064" fill="black" style="fill:black;fill-opacity:1;"/>
</g>
<g style="mix-blend-mode:luminosity">
<rect width="120.939" height="56.4384" rx="28.2192" transform="matrix(-1 0 0 1 216.781 229.655)" fill="#7E5F98" style="fill:#7E5F98;fill:color(display-p3 0.4958 0.3712 0.5978);fill-opacity:1;"/>
<path d="M132.911 277.114C124.946 272.155 122.508 261.678 127.467 253.713L156.312 271.67C151.354 279.635 140.877 282.073 132.911 277.114Z" fill="#C9C3F8" style="fill:#C9C3F8;fill:color(display-p3 0.7891 0.7651 0.9709);fill-opacity:1;"/>
<ellipse cx="4.51273" cy="7.99064" rx="4.51273" ry="7.99064" transform="matrix(-1 0 0 1 143.168 263.567)" fill="black" style="fill:black;fill-opacity:1;"/>
<path d="M179.714 277.114C187.679 272.155 190.117 261.678 185.158 253.713L156.312 271.67C161.271 279.635 171.748 282.073 179.714 277.114Z" fill="#C9C3F8" style="fill:#C9C3F8;fill:color(display-p3 0.7891 0.7651 0.9709);fill-opacity:1;"/>
<ellipse cx="173.974" cy="271.558" rx="4.51273" ry="7.99064" fill="black" style="fill:black;fill-opacity:1;"/>
</g>
<g style="mix-blend-mode:luminosity">
<rect width="30.2349" height="56.4384" rx="15.1174" transform="matrix(-1 0 0 1 216.781 292.427)" fill="#843B7A" style="fill:#843B7A;fill:color(display-p3 0.5176 0.2314 0.4784);fill-opacity:1;"/>
<rect width="30.2349" height="56.4384" rx="15.1174" transform="matrix(-1 0 0 1 186.547 292.427)" fill="#843B7A" style="fill:#843B7A;fill:color(display-p3 0.5176 0.2314 0.4784);fill-opacity:1;"/>
<rect width="30.2349" height="56.4384" rx="15.1174" transform="matrix(-1 0 0 1 156.312 292.427)" fill="#843B7A" style="fill:#843B7A;fill:color(display-p3 0.5176 0.2314 0.4784);fill-opacity:1;"/>
<rect width="30.2349" height="56.4384" rx="15.1174" transform="matrix(-1 0 0 1 126.074 292.427)" fill="#843B7A" style="fill:#843B7A;fill:color(display-p3 0.5176 0.2314 0.4784);fill-opacity:1;"/>
<path d="M132.911 331.746C124.946 326.787 122.508 316.31 127.467 308.345L156.312 326.302C151.354 334.267 140.877 336.705 132.911 331.746Z" fill="#FFD782" style="fill:#FFD782;fill:color(display-p3 1.0000 0.8448 0.5098);fill-opacity:1;"/>
<ellipse cx="4.51273" cy="7.99064" rx="4.51273" ry="7.99064" transform="matrix(-1 0 0 1 143.168 318.2)" fill="black" style="fill:black;fill-opacity:1;"/>
<path d="M179.714 331.746C187.679 326.787 190.117 316.31 185.158 308.345L156.312 326.302C161.271 334.267 171.748 336.705 179.714 331.746Z" fill="#FFD782" style="fill:#FFD782;fill:color(display-p3 1.0000 0.8448 0.5098);fill-opacity:1;"/>
<ellipse cx="170.708" cy="326.191" rx="4.51273" ry="7.99064" fill="black" style="fill:black;fill-opacity:1;"/>
</g>
<g style="mix-blend-mode:luminosity">
<path d="M258.112 292.428C242.541 292.428 229.917 305.076 229.917 320.647C229.917 336.219 242.541 348.866 258.112 348.866C267.276 348.866 275.418 344.484 280.567 337.705C282.371 338.314 284.303 338.645 286.312 338.645C288.318 338.645 290.248 338.315 292.051 337.707C297.201 344.485 305.342 348.866 314.505 348.866C330.076 348.866 342.699 336.218 342.699 320.647C342.699 305.076 330.076 292.428 314.505 292.428C305.342 292.428 297.201 296.809 292.051 303.587C290.249 302.979 288.318 302.65 286.312 302.65C284.303 302.65 282.372 302.98 280.568 303.589C275.419 296.809 267.277 292.428 258.112 292.428Z" fill="#0063A0" style="fill:#0063A0;fill:color(display-p3 0.0000 0.3864 0.6266);fill-opacity:1;"/>
<path d="M273.675 312.255C271.268 316.425 263.331 316.35 255.947 312.087C248.564 307.824 244.53 300.988 246.938 296.818L273.675 312.255Z" fill="#6EFFCC" style="fill:#6EFFCC;fill:color(display-p3 0.4328 1.0000 0.8015);fill-opacity:1;"/>
<path d="M299.157 312.255C301.564 316.425 309.501 316.35 316.885 312.087C324.268 307.824 328.302 300.988 325.895 296.818L299.157 312.255Z" fill="#6EFFCC" style="fill:#6EFFCC;fill:color(display-p3 0.4328 1.0000 0.8015);fill-opacity:1;"/>
<ellipse cx="2.52597" cy="7.5081" rx="2.52597" ry="7.5081" transform="matrix(-1 0 0 1 262.004 298.171)" fill="black" style="fill:black;fill-opacity:1;"/>
<ellipse cx="313.346" cy="305.679" rx="2.52597" ry="7.5081" fill="black" style="fill:black;fill-opacity:1;"/>
</g>
<g style="mix-blend-mode:luminosity">
<path d="M258.112 229.655C242.541 229.655 229.917 242.302 229.917 257.874C229.917 273.445 242.541 286.093 258.112 286.093C258.136 286.093 258.16 286.092 258.185 286.092H314.432C314.456 286.092 314.481 286.093 314.505 286.093C330.076 286.093 342.699 273.445 342.699 257.874C342.699 242.302 330.076 229.655 314.505 229.655C298.934 229.655 286.31 242.302 286.31 257.874C286.31 257.876 286.31 257.879 286.31 257.881H286.307C286.307 257.879 286.307 257.876 286.307 257.874C286.306 242.302 273.683 229.655 258.112 229.655Z" fill="#50452C" style="fill:#50452C;fill:color(display-p3 0.3123 0.2706 0.1732);fill-opacity:1;"/>
<path d="M297.718 257.874C297.718 248.491 305.324 240.885 314.707 240.885L314.707 274.863C305.324 274.863 297.718 267.257 297.718 257.874Z" fill="#B73E3E" style="fill:#B73E3E;fill:color(display-p3 0.7159 0.2450 0.2450);fill-opacity:1;"/>
<ellipse cx="4.51273" cy="7.99064" rx="4.51273" ry="7.99064" transform="matrix(-1 0 0 1 306.215 249.883)" fill="#F5D0D0" style="fill:#F5D0D0;fill:color(display-p3 0.9601 0.8153 0.8153);fill-opacity:1;"/>
<path d="M241.132 257.874C241.132 248.491 248.738 240.885 258.121 240.885L258.121 274.863C248.738 274.863 241.132 267.257 241.132 257.874Z" fill="#B73E3E" style="fill:#B73E3E;fill:color(display-p3 0.7159 0.2450 0.2450);fill-opacity:1;"/>
<ellipse cx="4.51273" cy="7.99064" rx="4.51273" ry="7.99064" transform="matrix(-1 0 0 1 249.633 249.883)" fill="#F5D0D0" style="fill:#F5D0D0;fill:color(display-p3 0.9601 0.8153 0.8153);fill-opacity:1;"/>
</g>
<g style="mix-blend-mode:luminosity">
<rect x="-8.00781" y="167.724" width="30.2349" height="56.4384" rx="15.1174" fill="#8D9281" style="fill:#8D9281;fill:color(display-p3 0.5536 0.5714 0.5048);fill-opacity:1;"/>
<rect x="22.2227" y="167.724" width="30.2349" height="56.4384" rx="15.1174" fill="#8D9281" style="fill:#8D9281;fill:color(display-p3 0.5536 0.5714 0.5048);fill-opacity:1;"/>
<rect x="52.4609" y="167.724" width="30.2349" height="56.4384" rx="15.1174" fill="#8D9281" style="fill:#8D9281;fill:color(display-p3 0.5536 0.5714 0.5048);fill-opacity:1;"/>
<path d="M45.6239 207.042C53.5894 202.083 56.0269 191.606 51.0682 183.641L22.2227 201.598C27.1814 209.563 37.6585 212.001 45.6239 207.042Z" fill="#D6DFBE" style="fill:#D6DFBE;fill:color(display-p3 0.8394 0.8759 0.7437);fill-opacity:1;"/>
<ellipse cx="39.8838" cy="201.486" rx="4.51273" ry="7.99064" fill="black" style="fill:black;fill-opacity:1;"/>
<path d="M-1.17863 207.042C-9.1441 202.083 -11.5816 191.606 -6.62287 183.641L22.2227 201.598C17.264 209.563 6.78684 212.001 -1.17863 207.042Z" fill="#D6DFBE" style="fill:#D6DFBE;fill:color(display-p3 0.8394 0.8759 0.7437);fill-opacity:1;"/>
<ellipse cx="4.51273" cy="7.99064" rx="4.51273" ry="7.99064" transform="matrix(-1 0 0 1 12.3398 193.496)" fill="black" style="fill:black;fill-opacity:1;"/>
</g>
<g style="mix-blend-mode:luminosity">
<rect x="-38.2422" y="104.951" width="120.939" height="56.4384" rx="28.2192" fill="#843B7A" style="fill:#843B7A;fill:color(display-p3 0.5184 0.2295 0.4799);fill-opacity:1;"/>
<path d="M60.7489 152.41C68.7144 147.451 71.1519 136.974 66.1932 129.009L37.3477 146.966C42.3064 154.931 52.7835 157.369 60.7489 152.41Z" fill="#D671C8" style="fill:#D671C8;fill:color(display-p3 0.8380 0.4414 0.7837);fill-opacity:1;"/>
<ellipse cx="55.0049" cy="146.854" rx="4.51273" ry="7.99064" fill="black" style="fill:black;fill-opacity:1;"/>
<path d="M-15.5732 152.41C-23.5386 147.451 -25.9761 136.974 -21.0174 129.009L7.82812 146.966C2.86942 154.931 -7.60769 157.369 -15.5732 152.41Z" fill="#D671C8" style="fill:#D671C8;fill:color(display-p3 0.8380 0.4414 0.7837);fill-opacity:1;"/>
</g>
<g style="mix-blend-mode:luminosity">
<rect x="355.855" y="104.951" width="30.2349" height="56.4384" rx="15.1174" fill="#666D9E" style="fill:#666D9E;fill:color(display-p3 0.4011 0.4264 0.6181);fill-opacity:1;"/>
<rect x="386.09" y="104.951" width="30.2349" height="56.4384" rx="15.1174" fill="#666D9E" style="fill:#666D9E;fill:color(display-p3 0.4011 0.4264 0.6181);fill-opacity:1;"/>
<rect x="416.328" y="104.951" width="30.2349" height="56.4384" rx="15.1174" fill="#666D9E" style="fill:#666D9E;fill:color(display-p3 0.4011 0.4264 0.6181);fill-opacity:1;"/>
<path d="M452.155 144.269C460.121 139.31 462.558 128.833 457.599 120.868L428.754 138.825C433.713 146.79 444.19 149.228 452.155 144.269Z" fill="#A0E2E8" style="fill:#A0E2E8;fill:color(display-p3 0.6276 0.8851 0.9085);fill-opacity:1;"/>
<path d="M377.013 144.269C369.047 139.31 366.61 128.833 371.569 120.868L400.414 138.825C395.455 146.79 384.978 149.228 377.013 144.269Z" fill="#A0E2E8" style="fill:#A0E2E8;fill:color(display-p3 0.6276 0.8851 0.9085);fill-opacity:1;"/>
<ellipse cx="4.51273" cy="7.99064" rx="4.51273" ry="7.99064" transform="matrix(-1 0 0 1 390.527 130.723)" fill="black" style="fill:black;fill-opacity:1;"/>
</g>
<g style="mix-blend-mode:luminosity">
<rect x="221.77" y="104.951" width="120.939" height="56.4384" rx="28.2192" fill="#7A5896" style="fill:#7A5896;fill:color(display-p3 0.4781 0.3452 0.5867);fill-opacity:1;"/>
<path d="M305.64 152.41C313.605 147.451 316.043 136.974 311.084 129.009L282.238 146.966C287.197 154.931 297.674 157.369 305.64 152.41Z" fill="#BCB5EF" style="fill:#BCB5EF;fill:color(display-p3 0.7378 0.7114 0.9377);fill-opacity:1;"/>
<ellipse cx="299.896" cy="146.854" rx="4.51273" ry="7.99064" fill="black" style="fill:black;fill-opacity:1;"/>
<path d="M258.837 152.41C250.872 147.451 248.434 136.974 253.393 129.009L282.238 146.966C277.28 154.931 266.802 157.369 258.837 152.41Z" fill="#BCB5EF" style="fill:#BCB5EF;fill:color(display-p3 0.7378 0.7114 0.9377);fill-opacity:1;"/>
<ellipse cx="4.51273" cy="7.99064" rx="4.51273" ry="7.99064" transform="matrix(-1 0 0 1 269.09 138.863)" fill="black" style="fill:black;fill-opacity:1;"/>
</g>
<g style="mix-blend-mode:luminosity">
<rect x="221.77" y="167.724" width="30.2349" height="56.4384" rx="15.1174" fill="#8D4142" style="fill:#8D4142;fill:color(display-p3 0.5533 0.2532 0.2582);fill-opacity:1;"/>
<rect x="252.004" y="167.724" width="30.2349" height="56.4384" rx="15.1174" fill="#8D4142" style="fill:#8D4142;fill:color(display-p3 0.5533 0.2532 0.2582);fill-opacity:1;"/>
<rect x="282.238" y="167.724" width="30.2349" height="56.4384" rx="15.1174" fill="#8D4142" style="fill:#8D4142;fill:color(display-p3 0.5533 0.2532 0.2582);fill-opacity:1;"/>
<rect x="312.477" y="167.724" width="30.2349" height="56.4384" rx="15.1174" fill="#8D4142" style="fill:#8D4142;fill:color(display-p3 0.5533 0.2532 0.2582);fill-opacity:1;"/>
<path d="M305.64 207.042C313.605 202.083 316.043 191.606 311.084 183.641L282.238 201.598C287.197 209.563 297.674 212.001 305.64 207.042Z" fill="#FFD782" style="fill:#FFD782;fill:color(display-p3 1.0000 0.8448 0.5098);fill-opacity:1;"/>
<ellipse cx="299.896" cy="201.486" rx="4.51273" ry="7.99064" fill="black" style="fill:black;fill-opacity:1;"/>
<path d="M258.837 207.042C250.872 202.083 248.434 191.606 253.393 183.641L282.238 201.598C277.28 209.563 266.802 212.001 258.837 207.042Z" fill="#FFD782" style="fill:#FFD782;fill:color(display-p3 1.0000 0.8448 0.5098);fill-opacity:1;"/>
<ellipse cx="4.51273" cy="7.99064" rx="4.51273" ry="7.99064" transform="matrix(-1 0 0 1 272.355 193.496)" fill="black" style="fill:black;fill-opacity:1;"/>
</g>
<g style="mix-blend-mode:luminosity">
<path d="M180.438 167.723C196.01 167.723 208.634 180.371 208.634 195.942C208.634 211.513 196.01 224.162 180.438 224.162C171.274 224.162 163.132 219.779 157.982 213C156.179 213.608 154.248 213.939 152.239 213.939C150.232 213.939 148.302 213.609 146.5 213.001C141.35 219.78 133.209 224.162 124.046 224.162C108.475 224.161 95.8516 211.513 95.8516 195.942C95.8517 180.371 108.475 167.723 124.046 167.723C133.209 167.723 141.35 172.104 146.5 178.882C148.302 178.275 150.233 177.946 152.239 177.946C154.248 177.946 156.179 178.276 157.982 178.884C163.132 172.105 171.274 167.723 180.438 167.723Z" fill="#0063A0" style="fill:#0063A0;fill:color(display-p3 0.0000 0.3864 0.6266);fill-opacity:1;"/>
<path d="M164.876 187.551C167.283 191.72 175.22 191.645 182.604 187.382C189.987 183.119 194.021 176.284 191.613 172.114L164.876 187.551Z" fill="#FFD782" style="fill:#FFD782;fill:color(display-p3 1.0000 0.8448 0.5098);fill-opacity:1;"/>
<path d="M139.394 187.551C136.986 191.72 129.049 191.645 121.666 187.382C114.283 183.119 110.249 176.284 112.656 172.114L139.394 187.551Z" fill="#FFD782" style="fill:#FFD782;fill:color(display-p3 1.0000 0.8448 0.5098);fill-opacity:1;"/>
<ellipse cx="179.073" cy="180.975" rx="2.52597" ry="7.5081" fill="black" style="fill:black;fill-opacity:1;"/>
<ellipse cx="2.52597" cy="7.5081" rx="2.52597" ry="7.5081" transform="matrix(-1 0 0 1 127.73 173.467)" fill="black" style="fill:black;fill-opacity:1;"/>
</g>
<g style="mix-blend-mode:luminosity">
<path d="M180.438 104.95C196.01 104.95 208.634 117.599 208.634 133.17C208.634 148.741 196.01 161.389 180.438 161.389C180.411 161.389 180.384 161.388 180.357 161.388H124.127C124.1 161.388 124.073 161.389 124.046 161.389C108.475 161.388 95.8518 148.741 95.8516 133.17C95.8516 117.599 108.475 104.95 124.046 104.95C139.617 104.95 152.241 117.599 152.241 133.17C152.241 133.172 152.241 133.174 152.241 133.177H152.244C152.244 133.174 152.244 133.172 152.244 133.17C152.244 117.599 164.867 104.95 180.438 104.95Z" fill="#AD9A6F" style="fill:#AD9A6F;fill:color(display-p3 0.6786 0.6052 0.4340);fill-opacity:1;"/>
<path d="M140.833 133.169C140.833 123.786 133.227 116.18 123.844 116.18L123.844 150.158C133.227 150.158 140.833 142.552 140.833 133.169Z" fill="#141414" style="fill:#141414;fill:color(display-p3 0.0784 0.0784 0.0784);fill-opacity:1;"/>
<ellipse cx="136.849" cy="133.169" rx="4.51273" ry="7.99064" fill="#F5D0D0" style="fill:#F5D0D0;fill:color(display-p3 0.9601 0.8153 0.8153);fill-opacity:1;"/>
<path d="M197.419 133.169C197.419 123.786 189.813 116.18 180.43 116.18L180.43 150.158C189.813 150.158 197.419 142.552 197.419 133.169Z" fill="#141414" style="fill:#141414;fill:color(display-p3 0.0784 0.0784 0.0784);fill-opacity:1;"/>
<ellipse cx="193.431" cy="133.169" rx="4.51273" ry="7.99064" fill="#F5D0D0" style="fill:#F5D0D0;fill:color(display-p3 0.9601 0.8153 0.8153);fill-opacity:1;"/>
</g>
<g style="mix-blend-mode:luminosity">
<path d="M388.115 223.32C372.544 223.32 359.921 210.673 359.921 195.102C359.921 179.53 372.544 166.882 388.115 166.882C388.14 166.882 388.164 166.883 388.188 166.883L444.436 166.883C444.46 166.883 444.484 166.882 444.508 166.882C460.079 166.882 472.703 179.53 472.703 195.102C472.703 210.673 460.079 223.32 444.508 223.32C428.937 223.32 416.314 210.673 416.313 195.102C416.313 195.099 416.313 195.096 416.313 195.094L416.311 195.094C416.311 195.096 416.311 195.099 416.311 195.102C416.31 210.673 403.687 223.32 388.115 223.32Z" fill="#83B15B" style="fill:#83B15B;fill:color(display-p3 0.5146 0.6942 0.3574);fill-opacity:1;"/>
<path d="M375.488 209.099C382.123 215.734 392.88 215.734 399.515 209.099L375.488 185.073C368.854 191.707 368.854 202.464 375.488 209.099Z" fill="#141414" style="fill:#141414;fill:color(display-p3 0.0784 0.0784 0.0784);fill-opacity:1;"/>
<path d="M455.461 209.099C448.826 215.734 438.069 215.734 431.435 209.099L455.461 185.073C462.096 191.707 462.096 202.464 455.461 209.099Z" fill="#141414" style="fill:#141414;fill:color(display-p3 0.0784 0.0784 0.0784);fill-opacity:1;"/>
<ellipse cx="386.015" cy="196.474" rx="4.51273" ry="7.99064" transform="rotate(-180 386.015 196.474)" fill="#F5D0D0" style="fill:#F5D0D0;fill:color(display-p3 0.9601 0.8153 0.8153);fill-opacity:1;"/>
</g>
<g style="mix-blend-mode:luminosity">
<rect width="30.2349" height="56.4384" rx="15.1174" transform="matrix(-1 0 0 1 446.559 42.1777)" fill="#575F42" style="fill:#575F42;fill:color(display-p3 0.3425 0.3724 0.2604);fill-opacity:1;"/>
<rect width="30.2349" height="56.4384" rx="15.1174" transform="matrix(-1 0 0 1 416.328 42.1777)" fill="#575F42" style="fill:#575F42;fill:color(display-p3 0.3425 0.3724 0.2604);fill-opacity:1;"/>
<rect width="30.2349" height="56.4384" rx="15.1174" transform="matrix(-1 0 0 1 386.09 42.1777)" fill="#575F42" style="fill:#575F42;fill:color(display-p3 0.3425 0.3724 0.2604);fill-opacity:1;"/>
<path d="M392.927 81.496C384.961 76.5373 382.524 66.0602 387.483 58.0947L416.328 76.0518C411.369 84.0172 400.892 86.4547 392.927 81.496Z" fill="#9EB06F" style="fill:#9EB06F;fill:color(display-p3 0.6187 0.6884 0.4358);fill-opacity:1;"/>
<ellipse cx="4.51273" cy="7.99064" rx="4.51273" ry="7.99064" transform="matrix(-1 0 0 1 403.18 67.9502)" fill="black" style="fill:black;fill-opacity:1;"/>
<path d="M439.729 81.496C447.695 76.5373 450.132 66.0602 445.174 58.0947L416.328 76.0518C421.287 84.0172 431.764 86.4547 439.729 81.496Z" fill="#9EB06F" style="fill:#9EB06F;fill:color(display-p3 0.6187 0.6884 0.4358);fill-opacity:1;"/>
<ellipse cx="430.724" cy="75.9408" rx="4.51273" ry="7.99064" fill="black" style="fill:black;fill-opacity:1;"/>
</g>
<g style="mix-blend-mode:luminosity">
<rect width="120.939" height="56.4384" rx="28.2192" transform="matrix(-1 0 0 1 476.793 -20.5952)" fill="#A75255" style="fill:#A75255;fill:color(display-p3 0.6554 0.3218 0.3333);fill-opacity:1;"/>
<path d="M377.802 26.8646C369.836 21.9059 367.399 11.4288 372.358 3.46337L401.203 21.4204C396.244 29.3859 385.767 31.8234 377.802 26.8646Z" fill="#FFD782" style="fill:#FFD782;fill:color(display-p3 1.0000 0.8448 0.5098);fill-opacity:1;"/>
<ellipse cx="4.51273" cy="7.99064" rx="4.51273" ry="7.99064" transform="matrix(-1 0 0 1 388.059 13.3174)" fill="black" style="fill:black;fill-opacity:1;"/>
<path d="M454.124 26.8646C462.089 21.9059 464.527 11.4288 459.568 3.46337L430.723 21.4204C435.681 29.3859 446.158 31.8234 454.124 26.8646Z" fill="#FFD782" style="fill:#FFD782;fill:color(display-p3 1.0000 0.8448 0.5098);fill-opacity:1;"/>
</g>
<g style="mix-blend-mode:luminosity">
<rect width="30.2349" height="56.4384" rx="15.1174" transform="matrix(-1 0 0 1 82.6953 -20.5952)" fill="#42465F" style="fill:#42465F;fill:color(display-p3 0.2604 0.2734 0.3724);fill-opacity:1;"/>
<rect width="30.2349" height="56.4384" rx="15.1174" transform="matrix(-1 0 0 1 52.4609 -20.5952)" fill="#42465F" style="fill:#42465F;fill:color(display-p3 0.2604 0.2734 0.3724);fill-opacity:1;"/>
<rect width="30.2349" height="56.4384" rx="15.1174" transform="matrix(-1 0 0 1 22.2227 -20.5952)" fill="#42465F" style="fill:#42465F;fill:color(display-p3 0.2604 0.2734 0.3724);fill-opacity:1;"/>
<path d="M-13.6044 18.723C-21.5699 13.7643 -24.0073 3.28724 -19.0486 -4.67823L9.79688 13.2788C4.83817 21.2443 -5.63894 23.6817 -13.6044 18.723Z" fill="#A0E2E8" style="fill:#A0E2E8;fill:color(display-p3 0.6276 0.8851 0.9085);fill-opacity:1;"/>
<path d="M61.538 18.723C69.5035 13.7643 71.9409 3.28724 66.9822 -4.67823L38.1367 13.2788C43.0954 21.2443 53.5725 23.6817 61.538 18.723Z" fill="#A0E2E8" style="fill:#A0E2E8;fill:color(display-p3 0.6276 0.8851 0.9085);fill-opacity:1;"/>
<ellipse cx="52.5362" cy="13.1674" rx="4.51273" ry="7.99064" fill="black" style="fill:black;fill-opacity:1;"/>
</g>
<g style="mix-blend-mode:luminosity">
<path d="M50.4355 348.024C66.0066 348.024 78.6296 335.377 78.6299 319.806C78.6299 304.234 66.0067 291.586 50.4355 291.586C50.4113 291.586 50.3866 291.587 50.3623 291.587L-5.88477 291.587C-5.90885 291.587 -5.93294 291.586 -5.95704 291.586C-21.5284 291.586 -34.1523 304.234 -34.1523 319.806C-34.1521 335.377 -21.5282 348.024 -5.95703 348.024C9.61402 348.024 22.2371 335.377 22.2373 319.806C22.2373 319.803 22.2373 319.8 22.2373 319.798L22.2402 319.798C22.2402 319.8 22.2402 319.803 22.2402 319.806C22.2405 335.377 34.8643 348.024 50.4355 348.024Z" fill="#BDC37A" style="fill:#BDC37A;fill:color(display-p3 0.7411 0.7649 0.4798);fill-opacity:1;"/>
<path d="M63.0586 333.803C56.4239 340.438 45.667 340.438 39.0324 333.803L63.0586 309.777C69.6933 316.412 69.6933 327.168 63.0586 333.803Z" fill="#141414" style="fill:#141414;fill:color(display-p3 0.0784 0.0784 0.0784);fill-opacity:1;"/>
<path d="M-16.918 333.803C-10.2833 340.438 0.473598 340.438 7.10826 333.803L-16.918 309.777C-23.5526 316.412 -23.5526 327.168 -16.918 333.803Z" fill="#141414" style="fill:#141414;fill:color(display-p3 0.0784 0.0784 0.0784);fill-opacity:1;"/>
<ellipse cx="4.51273" cy="7.99064" rx="4.51273" ry="7.99064" transform="matrix(1 -8.74228e-08 -8.74228e-08 -1 48.0273 329.168)" fill="#F5D0D0" style="fill:#F5D0D0;fill:color(display-p3 0.9601 0.8153 0.8153);fill-opacity:1;"/>
</g>
<g style="mix-blend-mode:luminosity">
<rect width="120.939" height="56.4384" rx="28.2192" transform="matrix(-1 0 0 1 216.781 -20.5952)" fill="#701AB7" style="fill:#701AB7;fill:color(display-p3 0.4398 0.1027 0.7157);fill-opacity:1;"/>
<path d="M132.911 26.8646C124.946 21.9059 122.508 11.4288 127.467 3.46337L156.312 21.4204C151.354 29.3859 140.877 31.8234 132.911 26.8646Z" fill="#7C71D6" style="fill:#7C71D6;fill:color(display-p3 0.4877 0.4414 0.8380);fill-opacity:1;"/>
<ellipse cx="4.51273" cy="7.99064" rx="4.51273" ry="7.99064" transform="matrix(-1 0 0 1 143.168 13.3174)" fill="black" style="fill:black;fill-opacity:1;"/>
<path d="M179.714 26.8646C187.679 21.9059 190.117 11.4288 185.158 3.46337L156.312 21.4204C161.271 29.3859 171.748 31.8234 179.714 26.8646Z" fill="#7C71D6" style="fill:#7C71D6;fill:color(display-p3 0.4877 0.4414 0.8380);fill-opacity:1;"/>
<ellipse cx="173.974" cy="21.308" rx="4.51273" ry="7.99064" fill="black" style="fill:black;fill-opacity:1;"/>
</g>
<g style="mix-blend-mode:luminosity">
<rect width="30.2349" height="56.4384" rx="15.1174" transform="matrix(-1 0 0 1 216.781 42.1777)" fill="#843B7A" style="fill:#843B7A;fill:color(display-p3 0.5176 0.2314 0.4784);fill-opacity:1;"/>
<rect width="30.2349" height="56.4384" rx="15.1174" transform="matrix(-1 0 0 1 186.547 42.1777)" fill="#843B7A" style="fill:#843B7A;fill:color(display-p3 0.5176 0.2314 0.4784);fill-opacity:1;"/>
<rect width="30.2349" height="56.4384" rx="15.1174" transform="matrix(-1 0 0 1 156.312 42.1777)" fill="#843B7A" style="fill:#843B7A;fill:color(display-p3 0.5176 0.2314 0.4784);fill-opacity:1;"/>
<rect width="30.2349" height="56.4384" rx="15.1174" transform="matrix(-1 0 0 1 126.074 42.1777)" fill="#843B7A" style="fill:#843B7A;fill:color(display-p3 0.5176 0.2314 0.4784);fill-opacity:1;"/>
<path d="M132.911 81.496C124.946 76.5373 122.508 66.0602 127.467 58.0947L156.312 76.0518C151.354 84.0172 140.877 86.4547 132.911 81.496Z" fill="#FFD782" style="fill:#FFD782;fill:color(display-p3 1.0000 0.8448 0.5098);fill-opacity:1;"/>
<ellipse cx="4.51273" cy="7.99064" rx="4.51273" ry="7.99064" transform="matrix(-1 0 0 1 143.168 67.9502)" fill="black" style="fill:black;fill-opacity:1;"/>
<path d="M179.714 81.496C187.679 76.5373 190.117 66.0602 185.158 58.0947L156.312 76.0518C161.271 84.0172 171.748 86.4547 179.714 81.496Z" fill="#FFD782" style="fill:#FFD782;fill:color(display-p3 1.0000 0.8448 0.5098);fill-opacity:1;"/>
<ellipse cx="170.708" cy="75.9408" rx="4.51273" ry="7.99064" fill="black" style="fill:black;fill-opacity:1;"/>
</g>
<g style="mix-blend-mode:luminosity">
<path d="M258.112 42.1782C242.541 42.1782 229.917 54.8266 229.917 70.3979C229.917 85.9692 242.541 98.6167 258.112 98.6167C267.276 98.6166 275.418 94.2348 280.567 87.4556C282.371 88.0643 284.303 88.395 286.312 88.395C288.318 88.395 290.248 88.0651 292.051 87.4575C297.201 94.2357 305.342 98.6167 314.505 98.6167C330.076 98.6165 342.699 85.969 342.699 70.3979C342.699 54.8267 330.076 42.1785 314.505 42.1782C305.342 42.1782 297.201 46.5594 292.051 53.3374C290.249 52.7298 288.318 52.4009 286.312 52.4009C284.303 52.4009 282.372 52.7309 280.568 53.3394C275.419 46.56 267.276 42.1783 258.112 42.1782Z" fill="#0063A0" style="fill:#0063A0;fill:color(display-p3 0.0000 0.3864 0.6266);fill-opacity:1;"/>
<path d="M273.675 62.0057C271.268 66.1755 263.331 66.1001 255.947 61.8373C248.564 57.5745 244.53 50.7386 246.938 46.5688L273.675 62.0057Z" fill="#ADBDE3" style="fill:#ADBDE3;fill:color(display-p3 0.6794 0.7423 0.8893);fill-opacity:1;"/>
<path d="M299.157 62.0057C301.564 66.1755 309.501 66.1001 316.885 61.8373C324.268 57.5745 328.302 50.7386 325.895 46.5688L299.157 62.0057Z" fill="#ADBDE3" style="fill:#ADBDE3;fill:color(display-p3 0.6794 0.7423 0.8893);fill-opacity:1;"/>
<ellipse cx="2.52597" cy="7.5081" rx="2.52597" ry="7.5081" transform="matrix(-1 0 0 1 262.004 47.9219)" fill="black" style="fill:black;fill-opacity:1;"/>
<ellipse cx="313.346" cy="55.43" rx="2.52597" ry="7.5081" fill="black" style="fill:black;fill-opacity:1;"/>
</g>
<g style="mix-blend-mode:luminosity">
<path d="M258.112 -20.5952C242.541 -20.5952 229.917 -7.94762 229.917 7.62354C229.917 23.1949 242.541 35.8433 258.112 35.8433C258.136 35.8433 258.16 35.8423 258.185 35.8423H314.432C314.456 35.8423 314.481 35.8433 314.505 35.8433C330.076 35.843 342.699 23.1948 342.699 7.62354C342.699 -7.94748 330.076 -20.595 314.505 -20.5952C298.934 -20.5952 286.31 -7.94762 286.31 7.62354C286.31 7.62599 286.31 7.6289 286.31 7.63135H286.307C286.307 7.6289 286.307 7.62599 286.307 7.62354C286.306 -7.9475 273.683 -20.595 258.112 -20.5952Z" fill="#A07000" style="fill:#A07000;fill:color(display-p3 0.6266 0.4386 0.0000);fill-opacity:1;"/>
<path d="M297.718 7.62368C297.718 -1.75914 305.324 -9.36543 314.707 -9.36543L314.707 24.6128C305.324 24.6128 297.718 17.0065 297.718 7.62368Z" fill="#141414" style="fill:#141414;fill:color(display-p3 0.0784 0.0784 0.0784);fill-opacity:1;"/>
<ellipse cx="4.51273" cy="7.99064" rx="4.51273" ry="7.99064" transform="matrix(-1 0 0 1 306.215 -0.367188)" fill="#F5D0D0" style="fill:#F5D0D0;fill:color(display-p3 0.9601 0.8153 0.8153);fill-opacity:1;"/>
<path d="M241.132 7.62368C241.132 -1.75914 248.738 -9.36543 258.121 -9.36543L258.121 24.6128C248.738 24.6128 241.132 17.0065 241.132 7.62368Z" fill="#141414" style="fill:#141414;fill:color(display-p3 0.0784 0.0784 0.0784);fill-opacity:1;"/>
<ellipse cx="4.51273" cy="7.99064" rx="4.51273" ry="7.99064" transform="matrix(-1 0 0 1 249.633 -0.367188)" fill="#F5D0D0" style="fill:#F5D0D0;fill:color(display-p3 0.9601 0.8153 0.8153);fill-opacity:1;"/>
</g>
<g style="mix-blend-mode:luminosity">
<path d="M50.4355 98.6157C66.0067 98.6155 78.6299 85.9672 78.6299 70.396C78.6296 54.825 66.0066 42.1775 50.4355 42.1772C50.4087 42.1772 50.3814 42.1781 50.3545 42.1782L-5.87598 42.1782C-5.90299 42.1781 -5.93001 42.1772 -5.95704 42.1772C-21.5283 42.1772 -34.1521 54.8248 -34.1523 70.396C-34.1523 85.9674 -21.5284 98.6157 -5.95703 98.6157C9.61417 98.6155 22.2373 85.9672 22.2373 70.396C22.2373 70.3937 22.2373 70.3914 22.2373 70.3892L22.2402 70.3892C22.2402 70.3914 22.2402 70.3937 22.2402 70.396C22.2402 85.9674 34.8642 98.6157 50.4355 98.6157Z" fill="#C1CD42" style="fill:#C1CD42;fill:color(display-p3 0.7588 0.8040 0.2606);fill-opacity:1;"/>
<path d="M63.0586 84.3944C56.4239 91.0291 45.667 91.0291 39.0324 84.3944L63.0586 60.3682C69.6933 67.0028 69.6933 77.7597 63.0586 84.3944Z" fill="#141414" style="fill:#141414;fill:color(display-p3 0.0784 0.0784 0.0784);fill-opacity:1;"/>
<path d="M-16.918 84.3944C-10.2833 91.0291 0.473598 91.0291 7.10826 84.3944L-16.918 60.3682C-23.5526 67.0028 -23.5526 77.7597 -16.918 84.3944Z" fill="#141414" style="fill:#141414;fill:color(display-p3 0.0784 0.0784 0.0784);fill-opacity:1;"/>
<ellipse cx="4.51273" cy="7.99064" rx="4.51273" ry="7.99064" transform="matrix(1 -8.74228e-08 -8.74228e-08 -1 48.0273 79.7598)" fill="#F5D0D0" style="fill:#F5D0D0;fill:color(display-p3 0.9601 0.8153 0.8153);fill-opacity:1;"/>
</g>
<g style="mix-blend-mode:luminosity">
<rect x="-8.00781" y="920.157" width="30.2349" height="56.4384" rx="15.1174" fill="#425E5F" style="fill:#425E5F;fill:color(display-p3 0.2604 0.3668 0.3724);fill-opacity:1;"/>
<rect x="22.2227" y="920.157" width="30.2349" height="56.4384" rx="15.1174" fill="#425E5F" style="fill:#425E5F;fill:color(display-p3 0.2604 0.3668 0.3724);fill-opacity:1;"/>
<rect x="52.4609" y="920.157" width="30.2349" height="56.4384" rx="15.1174" fill="#425E5F" style="fill:#425E5F;fill:color(display-p3 0.2604 0.3668 0.3724);fill-opacity:1;"/>
<path d="M45.6239 959.475C53.5894 954.516 56.0269 944.039 51.0682 936.074L22.2227 954.031C27.1814 961.996 37.6585 964.434 45.6239 959.475Z" fill="#9EB06F" style="fill:#9EB06F;fill:color(display-p3 0.6187 0.6884 0.4358);fill-opacity:1;"/>
<ellipse cx="39.8838" cy="953.919" rx="4.51273" ry="7.99064" fill="black" style="fill:black;fill-opacity:1;"/>
<path d="M-1.17863 959.475C-9.1441 954.516 -11.5816 944.039 -6.62287 936.074L22.2227 954.031C17.264 961.996 6.78684 964.434 -1.17863 959.475Z" fill="#9EB06F" style="fill:#9EB06F;fill:color(display-p3 0.6187 0.6884 0.4358);fill-opacity:1;"/>
<ellipse cx="4.51273" cy="7.99064" rx="4.51273" ry="7.99064" transform="matrix(-1 0 0 1 12.3398 945.929)" fill="black" style="fill:black;fill-opacity:1;"/>
</g>
<g style="mix-blend-mode:luminosity">
<rect x="-38.2422" y="857.384" width="120.939" height="56.4384" rx="28.2192" fill="#843B7A" style="fill:#843B7A;fill:color(display-p3 0.5184 0.2295 0.4799);fill-opacity:1;"/>
<path d="M60.7489 904.843C68.7144 899.884 71.1519 889.407 66.1932 881.442L37.3477 899.399C42.3064 907.364 52.7835 909.802 60.7489 904.843Z" fill="#D671C8" style="fill:#D671C8;fill:color(display-p3 0.8380 0.4414 0.7837);fill-opacity:1;"/>
<ellipse cx="55.0049" cy="899.288" rx="4.51273" ry="7.99064" fill="black" style="fill:black;fill-opacity:1;"/>
<path d="M-15.5732 904.843C-23.5386 899.884 -25.9761 889.407 -21.0174 881.442L7.82812 899.399C2.86942 907.364 -7.60769 909.802 -15.5732 904.843Z" fill="#D671C8" style="fill:#D671C8;fill:color(display-p3 0.8380 0.4414 0.7837);fill-opacity:1;"/>
</g>
<g style="mix-blend-mode:luminosity">
<rect x="355.855" y="857.384" width="30.2349" height="56.4384" rx="15.1174" fill="#42465F" style="fill:#42465F;fill:color(display-p3 0.2604 0.2734 0.3724);fill-opacity:1;"/>
<rect x="386.09" y="857.384" width="30.2349" height="56.4384" rx="15.1174" fill="#42465F" style="fill:#42465F;fill:color(display-p3 0.2604 0.2734 0.3724);fill-opacity:1;"/>
<rect x="416.328" y="857.384" width="30.2349" height="56.4384" rx="15.1174" fill="#42465F" style="fill:#42465F;fill:color(display-p3 0.2604 0.2734 0.3724);fill-opacity:1;"/>
<path d="M452.155 896.702C460.121 891.743 462.558 881.266 457.599 873.301L428.754 891.258C433.713 899.223 444.19 901.661 452.155 896.702Z" fill="#FFD782" style="fill:#FFD782;fill:color(display-p3 1.0000 0.8448 0.5098);fill-opacity:1;"/>
<path d="M377.013 896.702C369.047 891.743 366.61 881.266 371.569 873.301L400.414 891.258C395.455 899.223 384.978 901.661 377.013 896.702Z" fill="#FFD782" style="fill:#FFD782;fill:color(display-p3 1.0000 0.8448 0.5098);fill-opacity:1;"/>
<ellipse cx="4.51273" cy="7.99064" rx="4.51273" ry="7.99064" transform="matrix(-1 0 0 1 390.527 883.156)" fill="black" style="fill:black;fill-opacity:1;"/>
</g>
<g style="mix-blend-mode:luminosity">
<rect x="221.77" y="857.384" width="120.939" height="56.4384" rx="28.2192" fill="#701AB7" style="fill:#701AB7;fill:color(display-p3 0.4398 0.1027 0.7157);fill-opacity:1;"/>
<path d="M305.64 904.843C313.605 899.884 316.043 889.407 311.084 881.442L282.238 899.399C287.197 907.364 297.674 909.802 305.64 904.843Z" fill="#7C71D6" style="fill:#7C71D6;fill:color(display-p3 0.4877 0.4414 0.8380);fill-opacity:1;"/>
<ellipse cx="299.896" cy="899.288" rx="4.51273" ry="7.99064" fill="black" style="fill:black;fill-opacity:1;"/>
<path d="M258.837 904.843C250.872 899.884 248.434 889.407 253.393 881.442L282.238 899.399C277.28 907.364 266.802 909.802 258.837 904.843Z" fill="#7C71D6" style="fill:#7C71D6;fill:color(display-p3 0.4877 0.4414 0.8380);fill-opacity:1;"/>
<ellipse cx="4.51273" cy="7.99064" rx="4.51273" ry="7.99064" transform="matrix(-1 0 0 1 269.09 891.297)" fill="black" style="fill:black;fill-opacity:1;"/>
</g>
<g style="mix-blend-mode:luminosity">
<rect x="221.77" y="920.157" width="30.2349" height="56.4384" rx="15.1174" fill="#A7595A" style="fill:#A7595A;fill:color(display-p3 0.6537 0.3473 0.3524);fill-opacity:1;"/>
<rect x="252.004" y="920.157" width="30.2349" height="56.4384" rx="15.1174" fill="#A7595A" style="fill:#A7595A;fill:color(display-p3 0.6537 0.3473 0.3524);fill-opacity:1;"/>
<rect x="282.238" y="920.157" width="30.2349" height="56.4384" rx="15.1174" fill="#A7595A" style="fill:#A7595A;fill:color(display-p3 0.6537 0.3473 0.3524);fill-opacity:1;"/>
<rect x="312.477" y="920.157" width="30.2349" height="56.4384" rx="15.1174" fill="#A7595A" style="fill:#A7595A;fill:color(display-p3 0.6537 0.3473 0.3524);fill-opacity:1;"/>
<path d="M305.64 959.475C313.605 954.516 316.043 944.039 311.084 936.074L282.238 954.031C287.197 961.996 297.674 964.434 305.64 959.475Z" fill="#FFD782" style="fill:#FFD782;fill:color(display-p3 1.0000 0.8448 0.5098);fill-opacity:1;"/>
<ellipse cx="299.896" cy="953.919" rx="4.51273" ry="7.99064" fill="black" style="fill:black;fill-opacity:1;"/>
<path d="M258.837 959.475C250.872 954.516 248.434 944.039 253.393 936.074L282.238 954.031C277.28 961.996 266.802 964.434 258.837 959.475Z" fill="#FFD782" style="fill:#FFD782;fill:color(display-p3 1.0000 0.8448 0.5098);fill-opacity:1;"/>
<ellipse cx="4.51273" cy="7.99064" rx="4.51273" ry="7.99064" transform="matrix(-1 0 0 1 272.355 945.929)" fill="black" style="fill:black;fill-opacity:1;"/>
</g>
<g style="mix-blend-mode:luminosity">
<path d="M180.438 920.157C196.01 920.157 208.634 932.804 208.634 948.375C208.634 963.947 196.01 976.595 180.438 976.595C171.274 976.595 163.132 972.213 157.982 965.433C156.179 966.042 154.248 966.374 152.239 966.374C150.232 966.374 148.302 966.043 146.5 965.435C141.35 972.213 133.209 976.595 124.046 976.595C108.475 976.595 95.8516 963.947 95.8516 948.375C95.8518 932.804 108.475 920.157 124.046 920.157C133.209 920.157 141.35 924.538 146.5 931.316C148.302 930.708 150.233 930.379 152.239 930.379C154.248 930.379 156.179 930.709 157.982 931.318C163.132 924.538 171.274 920.157 180.438 920.157Z" fill="#0063A0" style="fill:#0063A0;fill:color(display-p3 0.0000 0.3864 0.6266);fill-opacity:1;"/>
<path d="M164.876 939.984C167.283 944.154 175.22 944.079 182.604 939.816C189.987 935.553 194.021 928.717 191.613 924.547L164.876 939.984Z" fill="#FF6E6E" style="fill:#FF6E6E;fill:color(display-p3 1.0000 0.4328 0.4328);fill-opacity:1;"/>
<path d="M139.394 939.984C136.986 944.154 129.049 944.079 121.666 939.816C114.283 935.553 110.249 928.717 112.656 924.547L139.394 939.984Z" fill="#FF6E6E" style="fill:#FF6E6E;fill:color(display-p3 1.0000 0.4328 0.4328);fill-opacity:1;"/>
<ellipse cx="179.073" cy="933.409" rx="2.52597" ry="7.5081" fill="black" style="fill:black;fill-opacity:1;"/>
<ellipse cx="2.52597" cy="7.5081" rx="2.52597" ry="7.5081" transform="matrix(-1 0 0 1 127.73 925.9)" fill="black" style="fill:black;fill-opacity:1;"/>
</g>
<g style="mix-blend-mode:luminosity">
<path d="M180.438 857.384C196.01 857.384 208.634 870.033 208.634 885.604C208.634 901.175 196.01 913.823 180.438 913.823C180.411 913.823 180.384 913.822 180.357 913.822H124.127C124.1 913.822 124.073 913.823 124.046 913.823C108.475 913.823 95.8518 901.175 95.8516 885.604C95.8516 870.033 108.475 857.385 124.046 857.384C139.617 857.384 152.241 870.033 152.241 885.604C152.241 885.606 152.241 885.609 152.241 885.611H152.244C152.244 885.609 152.244 885.606 152.244 885.604C152.244 870.033 164.867 857.384 180.438 857.384Z" fill="#78663C" style="fill:#78663C;fill:color(display-p3 0.4718 0.4010 0.2357);fill-opacity:1;"/>
<path d="M140.833 885.603C140.833 876.22 133.227 868.614 123.844 868.614L123.844 902.592C133.227 902.592 140.833 894.986 140.833 885.603Z" fill="#C9C3F8" style="fill:#C9C3F8;fill:color(display-p3 0.7882 0.7647 0.9725);fill-opacity:1;"/>
<ellipse cx="136.849" cy="885.603" rx="4.51273" ry="7.99064" fill="black" style="fill:black;fill-opacity:1;"/>
<path d="M197.419 885.603C197.419 876.22 189.813 868.614 180.43 868.614L180.43 902.592C189.813 902.592 197.419 894.986 197.419 885.603Z" fill="#C9C3F8" style="fill:#C9C3F8;fill:color(display-p3 0.7882 0.7647 0.9725);fill-opacity:1;"/>
<ellipse cx="193.431" cy="885.603" rx="4.51273" ry="7.99064" fill="black" style="fill:black;fill-opacity:1;"/>
</g>
<g style="mix-blend-mode:luminosity">
<path d="M388.115 975.754C372.544 975.754 359.921 963.106 359.921 947.535C359.921 931.964 372.544 919.316 388.115 919.315C388.14 919.315 388.164 919.316 388.188 919.316L444.436 919.316C444.46 919.316 444.484 919.315 444.508 919.315C460.079 919.315 472.703 931.964 472.703 947.535C472.703 963.106 460.079 975.754 444.508 975.754C428.937 975.754 416.314 963.106 416.313 947.535C416.313 947.533 416.313 947.53 416.313 947.527L416.311 947.527C416.311 947.53 416.311 947.533 416.311 947.535C416.31 963.106 403.687 975.754 388.115 975.754Z" fill="#83B15B" style="fill:#83B15B;fill:color(display-p3 0.5146 0.6942 0.3574);fill-opacity:1;"/>
<path d="M375.488 961.533C382.123 968.167 392.88 968.167 399.515 961.533L375.488 937.506C368.854 944.141 368.854 954.898 375.488 961.533Z" fill="#141414" style="fill:#141414;fill:color(display-p3 0.0784 0.0784 0.0784);fill-opacity:1;"/>
<path d="M455.461 961.533C448.826 968.167 438.069 968.167 431.435 961.533L455.461 937.506C462.096 944.141 462.096 954.898 455.461 961.533Z" fill="#141414" style="fill:#141414;fill:color(display-p3 0.0784 0.0784 0.0784);fill-opacity:1;"/>
<ellipse cx="386.015" cy="948.907" rx="4.51273" ry="7.99064" transform="rotate(-180 386.015 948.907)" fill="#F5D0D0" style="fill:#F5D0D0;fill:color(display-p3 0.9601 0.8153 0.8153);fill-opacity:1;"/>
</g>
<g style="mix-blend-mode:luminosity">
<rect width="30.2349" height="56.4384" rx="15.1174" transform="matrix(-1 0 0 1 446.559 794.611)" fill="#575F42" style="fill:#575F42;fill:color(display-p3 0.3425 0.3724 0.2604);fill-opacity:1;"/>
<rect width="30.2349" height="56.4384" rx="15.1174" transform="matrix(-1 0 0 1 416.328 794.611)" fill="#575F42" style="fill:#575F42;fill:color(display-p3 0.3425 0.3724 0.2604);fill-opacity:1;"/>
<rect width="30.2349" height="56.4384" rx="15.1174" transform="matrix(-1 0 0 1 386.09 794.611)" fill="#575F42" style="fill:#575F42;fill:color(display-p3 0.3425 0.3724 0.2604);fill-opacity:1;"/>
<path d="M392.927 833.93C384.961 828.971 382.524 818.494 387.483 810.528L416.328 828.485C411.369 836.451 400.892 838.888 392.927 833.93Z" fill="#8D4142" style="fill:#8D4142;fill:color(display-p3 0.5533 0.2532 0.2582);fill-opacity:1;"/>
<ellipse cx="4.51273" cy="7.99064" rx="4.51273" ry="7.99064" transform="matrix(-1 0 0 1 403.18 820.383)" fill="#480001" style="fill:#480001;fill:color(display-p3 0.2812 0.0000 0.0047);fill-opacity:1;"/>
<path d="M439.729 833.93C447.695 828.971 450.132 818.494 445.174 810.528L416.328 828.485C421.287 836.451 431.764 838.888 439.729 833.93Z" fill="#8D4142" style="fill:#8D4142;fill:color(display-p3 0.5533 0.2532 0.2582);fill-opacity:1;"/>
<ellipse cx="430.724" cy="828.374" rx="4.51273" ry="7.99064" fill="#480001" style="fill:#480001;fill:color(display-p3 0.2812 0.0000 0.0047);fill-opacity:1;"/>
</g>
<g style="mix-blend-mode:luminosity">
<rect width="120.939" height="56.4384" rx="28.2192" transform="matrix(-1 0 0 1 476.793 731.838)" fill="#5F4243" style="fill:#5F4243;fill:color(display-p3 0.3725 0.2588 0.2627);fill-opacity:1;"/>
<path d="M377.802 779.298C369.836 774.339 367.399 763.862 372.358 755.896L401.203 773.854C396.244 781.819 385.767 784.256 377.802 779.298Z" fill="#FFD782" style="fill:#FFD782;fill:color(display-p3 1.0000 0.8448 0.5098);fill-opacity:1;"/>
<ellipse cx="4.51273" cy="7.99064" rx="4.51273" ry="7.99064" transform="matrix(-1 0 0 1 388.059 765.751)" fill="black" style="fill:black;fill-opacity:1;"/>
<path d="M454.124 779.298C462.089 774.339 464.527 763.862 459.568 755.896L430.723 773.854C435.681 781.819 446.158 784.256 454.124 779.298Z" fill="#FFD782" style="fill:#FFD782;fill:color(display-p3 1.0000 0.8448 0.5098);fill-opacity:1;"/>
</g>
<g style="mix-blend-mode:luminosity">
<rect width="30.2349" height="56.4384" rx="15.1174" transform="matrix(-1 0 0 1 82.6953 731.838)" fill="#83B15B" style="fill:#83B15B;fill:color(display-p3 0.5146 0.6942 0.3574);fill-opacity:1;"/>
<rect width="30.2349" height="56.4384" rx="15.1174" transform="matrix(-1 0 0 1 52.4609 731.838)" fill="#83B15B" style="fill:#83B15B;fill:color(display-p3 0.5146 0.6942 0.3574);fill-opacity:1;"/>
<rect width="30.2349" height="56.4384" rx="15.1174" transform="matrix(-1 0 0 1 22.2227 731.838)" fill="#83B15B" style="fill:#83B15B;fill:color(display-p3 0.5146 0.6942 0.3574);fill-opacity:1;"/>
<path d="M-13.6044 771.156C-21.5699 766.197 -24.0073 755.72 -19.0486 747.755L9.79688 765.712C4.83817 773.677 -5.63894 776.115 -13.6044 771.156Z" fill="#C1CD42" style="fill:#C1CD42;fill:color(display-p3 0.7588 0.8040 0.2606);fill-opacity:1;"/>
<path d="M61.538 771.156C69.5035 766.197 71.9409 755.72 66.9822 747.755L38.1367 765.712C43.0954 773.677 53.5725 776.115 61.538 771.156Z" fill="#C1CD42" style="fill:#C1CD42;fill:color(display-p3 0.7588 0.8040 0.2606);fill-opacity:1;"/>
<ellipse cx="52.5362" cy="765.601" rx="4.51273" ry="7.99064" fill="black" style="fill:black;fill-opacity:1;"/>
</g>
<g style="mix-blend-mode:luminosity">
<rect width="120.939" height="56.4384" rx="28.2192" transform="matrix(-1 0 0 1 216.781 731.838)" fill="#7E5F98" style="fill:#7E5F98;fill:color(display-p3 0.4958 0.3712 0.5978);fill-opacity:1;"/>
<path d="M132.911 779.298C124.946 774.339 122.508 763.862 127.467 755.896L156.312 773.854C151.354 781.819 140.877 784.256 132.911 779.298Z" fill="#C9C3F8" style="fill:#C9C3F8;fill:color(display-p3 0.7891 0.7651 0.9709);fill-opacity:1;"/>
<ellipse cx="4.51273" cy="7.99064" rx="4.51273" ry="7.99064" transform="matrix(-1 0 0 1 143.168 765.751)" fill="black" style="fill:black;fill-opacity:1;"/>
<path d="M179.714 779.298C187.679 774.339 190.117 763.862 185.158 755.896L156.312 773.854C161.271 781.819 171.748 784.256 179.714 779.298Z" fill="#C9C3F8" style="fill:#C9C3F8;fill:color(display-p3 0.7891 0.7651 0.9709);fill-opacity:1;"/>
<ellipse cx="173.974" cy="773.742" rx="4.51273" ry="7.99064" fill="black" style="fill:black;fill-opacity:1;"/>
</g>
<g style="mix-blend-mode:luminosity">
<rect width="30.2349" height="56.4384" rx="15.1174" transform="matrix(-1 0 0 1 216.781 794.611)" fill="#843B7A" style="fill:#843B7A;fill:color(display-p3 0.5176 0.2314 0.4784);fill-opacity:1;"/>
<rect width="30.2349" height="56.4384" rx="15.1174" transform="matrix(-1 0 0 1 186.547 794.611)" fill="#843B7A" style="fill:#843B7A;fill:color(display-p3 0.5176 0.2314 0.4784);fill-opacity:1;"/>
<rect width="30.2349" height="56.4384" rx="15.1174" transform="matrix(-1 0 0 1 156.312 794.611)" fill="#843B7A" style="fill:#843B7A;fill:color(display-p3 0.5176 0.2314 0.4784);fill-opacity:1;"/>
<rect width="30.2349" height="56.4384" rx="15.1174" transform="matrix(-1 0 0 1 126.074 794.611)" fill="#843B7A" style="fill:#843B7A;fill:color(display-p3 0.5176 0.2314 0.4784);fill-opacity:1;"/>
<path d="M132.911 833.93C124.946 828.971 122.508 818.494 127.467 810.528L156.312 828.485C151.354 836.451 140.877 838.888 132.911 833.93Z" fill="#FFD782" style="fill:#FFD782;fill:color(display-p3 1.0000 0.8448 0.5098);fill-opacity:1;"/>
<ellipse cx="4.51273" cy="7.99064" rx="4.51273" ry="7.99064" transform="matrix(-1 0 0 1 143.168 820.383)" fill="black" style="fill:black;fill-opacity:1;"/>
<path d="M179.714 833.93C187.679 828.971 190.117 818.494 185.158 810.528L156.312 828.485C161.271 836.451 171.748 838.888 179.714 833.93Z" fill="#FFD782" style="fill:#FFD782;fill:color(display-p3 1.0000 0.8448 0.5098);fill-opacity:1;"/>
<ellipse cx="170.708" cy="828.374" rx="4.51273" ry="7.99064" fill="black" style="fill:black;fill-opacity:1;"/>
</g>
<g style="mix-blend-mode:luminosity">
<path d="M258.112 794.611C242.541 794.611 229.917 807.258 229.917 822.83C229.917 838.401 242.541 851.049 258.112 851.049C267.277 851.049 275.418 846.667 280.567 839.887C282.371 840.496 284.303 840.827 286.312 840.827C288.318 840.827 290.248 840.497 292.051 839.889C297.201 846.668 305.341 851.049 314.505 851.049C330.076 851.049 342.699 838.401 342.699 822.83C342.699 807.258 330.076 794.611 314.505 794.611C305.342 794.611 297.201 798.992 292.051 805.77C290.249 805.162 288.318 804.833 286.312 804.833C284.303 804.834 282.372 805.163 280.568 805.772C275.419 798.992 267.277 794.611 258.112 794.611Z" fill="#0063A0" style="fill:#0063A0;fill:color(display-p3 0.0000 0.3864 0.6266);fill-opacity:1;"/>
<path d="M273.675 814.438C271.268 818.608 263.331 818.533 255.947 814.27C248.564 810.007 244.53 803.171 246.938 799.001L273.675 814.438Z" fill="#6EFFCC" style="fill:#6EFFCC;fill:color(display-p3 0.4328 1.0000 0.8015);fill-opacity:1;"/>
<path d="M299.157 814.438C301.564 818.608 309.501 818.533 316.885 814.27C324.268 810.007 328.302 803.171 325.895 799.001L299.157 814.438Z" fill="#6EFFCC" style="fill:#6EFFCC;fill:color(display-p3 0.4328 1.0000 0.8015);fill-opacity:1;"/>
<ellipse cx="2.52597" cy="7.5081" rx="2.52597" ry="7.5081" transform="matrix(-1 0 0 1 262.004 800.354)" fill="black" style="fill:black;fill-opacity:1;"/>
<ellipse cx="313.346" cy="807.863" rx="2.52597" ry="7.5081" fill="black" style="fill:black;fill-opacity:1;"/>
</g>
<g style="mix-blend-mode:luminosity">
<path d="M258.112 731.838C242.541 731.838 229.917 744.486 229.917 760.058C229.917 775.629 242.541 788.276 258.112 788.276C258.139 788.276 258.166 788.275 258.193 788.275H314.424C314.451 788.275 314.478 788.276 314.505 788.276C330.076 788.276 342.699 775.629 342.699 760.058C342.699 744.486 330.076 731.838 314.505 731.838C298.934 731.838 286.31 744.486 286.31 760.058C286.31 760.06 286.31 760.062 286.31 760.064H286.307C286.307 760.062 286.307 760.06 286.307 760.058C286.307 744.486 273.683 731.838 258.112 731.838Z" fill="#50452C" style="fill:#50452C;fill:color(display-p3 0.3123 0.2706 0.1732);fill-opacity:1;"/>
<path d="M297.718 760.057C297.718 750.674 305.324 743.068 314.707 743.068L314.707 777.046C305.324 777.046 297.718 769.44 297.718 760.057Z" fill="#B73E3E" style="fill:#B73E3E;fill:color(display-p3 0.7159 0.2450 0.2450);fill-opacity:1;"/>
<ellipse cx="4.51273" cy="7.99064" rx="4.51273" ry="7.99064" transform="matrix(-1 0 0 1 306.215 752.066)" fill="#F5D0D0" style="fill:#F5D0D0;fill:color(display-p3 0.9601 0.8153 0.8153);fill-opacity:1;"/>
<path d="M241.132 760.057C241.132 750.674 248.738 743.068 258.121 743.068L258.121 777.046C248.738 777.046 241.132 769.44 241.132 760.057Z" fill="#B73E3E" style="fill:#B73E3E;fill:color(display-p3 0.7159 0.2450 0.2450);fill-opacity:1;"/>
<ellipse cx="4.51273" cy="7.99064" rx="4.51273" ry="7.99064" transform="matrix(-1 0 0 1 249.633 752.066)" fill="#F5D0D0" style="fill:#F5D0D0;fill:color(display-p3 0.9601 0.8153 0.8153);fill-opacity:1;"/>
</g>
<g style="mix-blend-mode:luminosity">
<rect x="-8.00781" y="669.907" width="30.2349" height="56.4384" rx="15.1174" fill="#8D9281" style="fill:#8D9281;fill:color(display-p3 0.5536 0.5714 0.5048);fill-opacity:1;"/>
<rect x="22.2227" y="669.907" width="30.2349" height="56.4384" rx="15.1174" fill="#8D9281" style="fill:#8D9281;fill:color(display-p3 0.5536 0.5714 0.5048);fill-opacity:1;"/>
<rect x="52.4609" y="669.907" width="30.2349" height="56.4384" rx="15.1174" fill="#8D9281" style="fill:#8D9281;fill:color(display-p3 0.5536 0.5714 0.5048);fill-opacity:1;"/>
<path d="M45.6239 709.225C53.5894 704.266 56.0269 693.789 51.0682 685.824L22.2227 703.781C27.1814 711.746 37.6585 714.184 45.6239 709.225Z" fill="#D6DFBE" style="fill:#D6DFBE;fill:color(display-p3 0.8394 0.8759 0.7437);fill-opacity:1;"/>
<ellipse cx="39.8838" cy="703.67" rx="4.51273" ry="7.99064" fill="black" style="fill:black;fill-opacity:1;"/>
<path d="M-1.17863 709.225C-9.1441 704.266 -11.5816 693.789 -6.62287 685.824L22.2227 703.781C17.264 711.746 6.78684 714.184 -1.17863 709.225Z" fill="#D6DFBE" style="fill:#D6DFBE;fill:color(display-p3 0.8394 0.8759 0.7437);fill-opacity:1;"/>
<ellipse cx="4.51273" cy="7.99064" rx="4.51273" ry="7.99064" transform="matrix(-1 0 0 1 12.3398 695.679)" fill="black" style="fill:black;fill-opacity:1;"/>
</g>
<g style="mix-blend-mode:luminosity">
<rect x="-38.2422" y="607.133" width="120.939" height="56.4384" rx="28.2192" fill="#843B7A" style="fill:#843B7A;fill:color(display-p3 0.5184 0.2295 0.4799);fill-opacity:1;"/>
<path d="M60.7489 654.593C68.7144 649.634 71.1519 639.157 66.1932 631.191L37.3477 649.148C42.3064 657.114 52.7835 659.551 60.7489 654.593Z" fill="#D671C8" style="fill:#D671C8;fill:color(display-p3 0.8380 0.4414 0.7837);fill-opacity:1;"/>
<ellipse cx="55.0049" cy="649.037" rx="4.51273" ry="7.99064" fill="black" style="fill:black;fill-opacity:1;"/>
<path d="M-15.5732 654.593C-23.5386 649.634 -25.9761 639.157 -21.0174 631.191L7.82812 649.148C2.86942 657.114 -7.60769 659.551 -15.5732 654.593Z" fill="#D671C8" style="fill:#D671C8;fill:color(display-p3 0.8380 0.4414 0.7837);fill-opacity:1;"/>
</g>
<g style="mix-blend-mode:luminosity">
<rect x="355.855" y="607.133" width="30.2349" height="56.4384" rx="15.1174" fill="#666D9E" style="fill:#666D9E;fill:color(display-p3 0.4011 0.4264 0.6181);fill-opacity:1;"/>
<rect x="386.09" y="607.133" width="30.2349" height="56.4384" rx="15.1174" fill="#666D9E" style="fill:#666D9E;fill:color(display-p3 0.4011 0.4264 0.6181);fill-opacity:1;"/>
<rect x="416.328" y="607.133" width="30.2349" height="56.4384" rx="15.1174" fill="#666D9E" style="fill:#666D9E;fill:color(display-p3 0.4011 0.4264 0.6181);fill-opacity:1;"/>
<path d="M452.155 646.452C460.121 641.493 462.558 631.016 457.599 623.05L428.754 641.007C433.713 648.973 444.19 651.41 452.155 646.452Z" fill="#A0E2E8" style="fill:#A0E2E8;fill:color(display-p3 0.6276 0.8851 0.9085);fill-opacity:1;"/>
<path d="M377.013 646.452C369.047 641.493 366.61 631.016 371.569 623.05L400.414 641.007C395.455 648.973 384.978 651.41 377.013 646.452Z" fill="#A0E2E8" style="fill:#A0E2E8;fill:color(display-p3 0.6276 0.8851 0.9085);fill-opacity:1;"/>
<ellipse cx="4.51273" cy="7.99064" rx="4.51273" ry="7.99064" transform="matrix(-1 0 0 1 390.527 632.906)" fill="black" style="fill:black;fill-opacity:1;"/>
</g>
<g style="mix-blend-mode:luminosity">
<rect x="221.77" y="607.134" width="120.939" height="56.4384" rx="28.2192" fill="#7A5896" style="fill:#7A5896;fill:color(display-p3 0.4781 0.3452 0.5867);fill-opacity:1;"/>
<path d="M305.64 654.593C313.605 649.634 316.043 639.157 311.084 631.192L282.238 649.149C287.197 657.114 297.674 659.552 305.64 654.593Z" fill="#BCB5EF" style="fill:#BCB5EF;fill:color(display-p3 0.7378 0.7114 0.9377);fill-opacity:1;"/>
<ellipse cx="299.896" cy="649.038" rx="4.51273" ry="7.99064" fill="black" style="fill:black;fill-opacity:1;"/>
<path d="M258.837 654.593C250.872 649.634 248.434 639.157 253.393 631.192L282.238 649.149C277.28 657.114 266.802 659.552 258.837 654.593Z" fill="#BCB5EF" style="fill:#BCB5EF;fill:color(display-p3 0.7378 0.7114 0.9377);fill-opacity:1;"/>
<ellipse cx="4.51273" cy="7.99064" rx="4.51273" ry="7.99064" transform="matrix(-1 0 0 1 269.09 641.047)" fill="black" style="fill:black;fill-opacity:1;"/>
</g>
<g style="mix-blend-mode:luminosity">
<rect x="221.77" y="669.907" width="30.2349" height="56.4384" rx="15.1174" fill="#8D4142" style="fill:#8D4142;fill:color(display-p3 0.5533 0.2532 0.2582);fill-opacity:1;"/>
<rect x="252.004" y="669.907" width="30.2349" height="56.4384" rx="15.1174" fill="#8D4142" style="fill:#8D4142;fill:color(display-p3 0.5533 0.2532 0.2582);fill-opacity:1;"/>
<rect x="282.238" y="669.907" width="30.2349" height="56.4384" rx="15.1174" fill="#8D4142" style="fill:#8D4142;fill:color(display-p3 0.5533 0.2532 0.2582);fill-opacity:1;"/>
<rect x="312.477" y="669.907" width="30.2349" height="56.4384" rx="15.1174" fill="#8D4142" style="fill:#8D4142;fill:color(display-p3 0.5533 0.2532 0.2582);fill-opacity:1;"/>
<path d="M305.64 709.225C313.605 704.266 316.043 693.789 311.084 685.824L282.238 703.781C287.197 711.746 297.674 714.184 305.64 709.225Z" fill="#FFD782" style="fill:#FFD782;fill:color(display-p3 1.0000 0.8448 0.5098);fill-opacity:1;"/>
<ellipse cx="299.896" cy="703.67" rx="4.51273" ry="7.99064" fill="black" style="fill:black;fill-opacity:1;"/>
<path d="M258.837 709.225C250.872 704.266 248.434 693.789 253.393 685.824L282.238 703.781C277.28 711.746 266.802 714.184 258.837 709.225Z" fill="#FFD782" style="fill:#FFD782;fill:color(display-p3 1.0000 0.8448 0.5098);fill-opacity:1;"/>
<ellipse cx="4.51273" cy="7.99064" rx="4.51273" ry="7.99064" transform="matrix(-1 0 0 1 272.355 695.679)" fill="black" style="fill:black;fill-opacity:1;"/>
</g>
<g style="mix-blend-mode:luminosity">
<path d="M180.438 669.907C196.01 669.907 208.634 682.555 208.634 698.126C208.634 713.698 196.01 726.345 180.438 726.345C171.274 726.345 163.132 721.963 157.982 715.183C156.179 715.792 154.248 716.124 152.239 716.124C150.232 716.124 148.302 715.793 146.5 715.185C141.35 721.963 133.209 726.345 124.046 726.345C108.475 726.345 95.8518 713.697 95.8516 698.126C95.8516 682.555 108.475 669.907 124.046 669.907C133.209 669.907 141.35 674.288 146.5 681.066C148.302 680.458 150.233 680.129 152.239 680.129C154.248 680.129 156.179 680.459 157.982 681.068C163.132 674.288 171.274 669.907 180.438 669.907Z" fill="#0063A0" style="fill:#0063A0;fill:color(display-p3 0.0000 0.3864 0.6266);fill-opacity:1;"/>
<path d="M164.876 689.734C167.283 693.904 175.22 693.829 182.604 689.566C189.987 685.303 194.021 678.467 191.613 674.297L164.876 689.734Z" fill="#FFD782" style="fill:#FFD782;fill:color(display-p3 1.0000 0.8448 0.5098);fill-opacity:1;"/>
<path d="M139.394 689.734C136.986 693.904 129.049 693.829 121.666 689.566C114.283 685.303 110.249 678.467 112.656 674.297L139.394 689.734Z" fill="#FFD782" style="fill:#FFD782;fill:color(display-p3 1.0000 0.8448 0.5098);fill-opacity:1;"/>
<ellipse cx="179.073" cy="683.159" rx="2.52597" ry="7.5081" fill="black" style="fill:black;fill-opacity:1;"/>
<ellipse cx="2.52597" cy="7.5081" rx="2.52597" ry="7.5081" transform="matrix(-1 0 0 1 127.73 675.65)" fill="black" style="fill:black;fill-opacity:1;"/>
</g>
<g style="mix-blend-mode:luminosity">
<path d="M180.438 607.133C196.01 607.133 208.634 619.781 208.634 635.352C208.634 650.923 196.01 663.572 180.438 663.572C180.414 663.572 180.39 663.571 180.366 663.571H124.119C124.095 663.571 124.07 663.572 124.046 663.572C108.475 663.572 95.8516 650.923 95.8516 635.352C95.8517 619.781 108.475 607.134 124.046 607.133C139.617 607.133 152.241 619.781 152.241 635.352C152.241 635.354 152.241 635.357 152.241 635.359H152.244C152.244 635.357 152.244 635.354 152.244 635.352C152.244 619.781 164.867 607.134 180.438 607.133Z" fill="#AD9A6F" style="fill:#AD9A6F;fill:color(display-p3 0.6786 0.6052 0.4340);fill-opacity:1;"/>
<path d="M140.833 635.352C140.833 625.969 133.227 618.363 123.844 618.363L123.844 652.341C133.227 652.341 140.833 644.735 140.833 635.352Z" fill="#141414" style="fill:#141414;fill:color(display-p3 0.0784 0.0784 0.0784);fill-opacity:1;"/>
<ellipse cx="136.849" cy="635.352" rx="4.51273" ry="7.99064" fill="#F5D0D0" style="fill:#F5D0D0;fill:color(display-p3 0.9601 0.8153 0.8153);fill-opacity:1;"/>
<path d="M197.419 635.352C197.419 625.969 189.813 618.363 180.43 618.363L180.43 652.341C189.813 652.341 197.419 644.735 197.419 635.352Z" fill="#141414" style="fill:#141414;fill:color(display-p3 0.0784 0.0784 0.0784);fill-opacity:1;"/>
<ellipse cx="193.431" cy="635.352" rx="4.51273" ry="7.99064" fill="#F5D0D0" style="fill:#F5D0D0;fill:color(display-p3 0.9601 0.8153 0.8153);fill-opacity:1;"/>
</g>
<g style="mix-blend-mode:luminosity">
<path d="M388.115 725.503C372.544 725.503 359.921 712.855 359.921 697.284C359.921 681.713 372.544 669.065 388.115 669.065C388.142 669.065 388.169 669.066 388.196 669.066L444.427 669.066C444.454 669.066 444.481 669.065 444.508 669.065C460.079 669.065 472.703 681.713 472.703 697.284C472.703 712.855 460.079 725.503 444.508 725.503C428.937 725.503 416.313 712.855 416.313 697.284C416.313 697.281 416.313 697.279 416.313 697.277L416.311 697.277C416.311 697.279 416.311 697.281 416.311 697.284C416.311 712.855 403.687 725.503 388.115 725.503Z" fill="#83B15B" style="fill:#83B15B;fill:color(display-p3 0.5146 0.6942 0.3574);fill-opacity:1;"/>
<path d="M375.488 711.282C382.123 717.917 392.88 717.917 399.515 711.282L375.488 687.256C368.854 693.891 368.854 704.647 375.488 711.282Z" fill="#141414" style="fill:#141414;fill:color(display-p3 0.0784 0.0784 0.0784);fill-opacity:1;"/>
<path d="M455.461 711.282C448.826 717.917 438.069 717.917 431.435 711.282L455.461 687.256C462.096 693.891 462.096 704.647 455.461 711.282Z" fill="#141414" style="fill:#141414;fill:color(display-p3 0.0784 0.0784 0.0784);fill-opacity:1;"/>
<ellipse cx="386.015" cy="698.657" rx="4.51273" ry="7.99064" transform="rotate(-180 386.015 698.657)" fill="#F5D0D0" style="fill:#F5D0D0;fill:color(display-p3 0.9601 0.8153 0.8153);fill-opacity:1;"/>
</g>
<g style="mix-blend-mode:luminosity">
<rect width="30.2349" height="56.4384" rx="15.1174" transform="matrix(-1 0 0 1 446.559 544.361)" fill="#575F42" style="fill:#575F42;fill:color(display-p3 0.3425 0.3724 0.2604);fill-opacity:1;"/>
<rect width="30.2349" height="56.4384" rx="15.1174" transform="matrix(-1 0 0 1 416.328 544.361)" fill="#575F42" style="fill:#575F42;fill:color(display-p3 0.3425 0.3724 0.2604);fill-opacity:1;"/>
<rect width="30.2349" height="56.4384" rx="15.1174" transform="matrix(-1 0 0 1 386.09 544.361)" fill="#575F42" style="fill:#575F42;fill:color(display-p3 0.3425 0.3724 0.2604);fill-opacity:1;"/>
<path d="M392.927 583.68C384.961 578.721 382.524 568.244 387.483 560.278L416.328 578.235C411.369 586.201 400.892 588.638 392.927 583.68Z" fill="#9EB06F" style="fill:#9EB06F;fill:color(display-p3 0.6187 0.6884 0.4358);fill-opacity:1;"/>
<ellipse cx="4.51273" cy="7.99064" rx="4.51273" ry="7.99064" transform="matrix(-1 0 0 1 403.18 570.133)" fill="black" style="fill:black;fill-opacity:1;"/>
<path d="M439.729 583.68C447.695 578.721 450.132 568.244 445.174 560.278L416.328 578.235C421.287 586.201 431.764 588.638 439.729 583.68Z" fill="#9EB06F" style="fill:#9EB06F;fill:color(display-p3 0.6187 0.6884 0.4358);fill-opacity:1;"/>
<ellipse cx="430.724" cy="578.124" rx="4.51273" ry="7.99064" fill="black" style="fill:black;fill-opacity:1;"/>
</g>
<g style="mix-blend-mode:luminosity">
<rect width="120.939" height="56.4384" rx="28.2192" transform="matrix(-1 0 0 1 476.793 481.588)" fill="#A75255" style="fill:#A75255;fill:color(display-p3 0.6554 0.3218 0.3333);fill-opacity:1;"/>
<path d="M377.802 529.048C369.836 524.089 367.399 513.612 372.358 505.646L401.203 523.604C396.244 531.569 385.767 534.006 377.802 529.048Z" fill="#FFD782" style="fill:#FFD782;fill:color(display-p3 1.0000 0.8448 0.5098);fill-opacity:1;"/>
<ellipse cx="4.51273" cy="7.99064" rx="4.51273" ry="7.99064" transform="matrix(-1 0 0 1 388.059 515.501)" fill="black" style="fill:black;fill-opacity:1;"/>
<path d="M454.124 529.048C462.089 524.089 464.527 513.612 459.568 505.646L430.723 523.604C435.681 531.569 446.158 534.006 454.124 529.048Z" fill="#FFD782" style="fill:#FFD782;fill:color(display-p3 1.0000 0.8448 0.5098);fill-opacity:1;"/>
</g>
<g style="mix-blend-mode:luminosity">
<rect width="30.2349" height="56.4384" rx="15.1174" transform="matrix(-1 0 0 1 82.6953 481.588)" fill="#42465F" style="fill:#42465F;fill:color(display-p3 0.2604 0.2734 0.3724);fill-opacity:1;"/>
<rect width="30.2349" height="56.4384" rx="15.1174" transform="matrix(-1 0 0 1 52.4609 481.588)" fill="#42465F" style="fill:#42465F;fill:color(display-p3 0.2604 0.2734 0.3724);fill-opacity:1;"/>
<rect width="30.2349" height="56.4384" rx="15.1174" transform="matrix(-1 0 0 1 22.2227 481.588)" fill="#42465F" style="fill:#42465F;fill:color(display-p3 0.2604 0.2734 0.3724);fill-opacity:1;"/>
<path d="M-13.6044 520.906C-21.5699 515.947 -24.0073 505.47 -19.0486 497.505L9.79688 515.462C4.83817 523.427 -5.63894 525.865 -13.6044 520.906Z" fill="#A0E2E8" style="fill:#A0E2E8;fill:color(display-p3 0.6276 0.8851 0.9085);fill-opacity:1;"/>
<path d="M61.538 520.906C69.5035 515.947 71.9409 505.47 66.9822 497.505L38.1367 515.462C43.0954 523.427 53.5725 525.865 61.538 520.906Z" fill="#A0E2E8" style="fill:#A0E2E8;fill:color(display-p3 0.6276 0.8851 0.9085);fill-opacity:1;"/>
<ellipse cx="52.5362" cy="515.351" rx="4.51273" ry="7.99064" fill="black" style="fill:black;fill-opacity:1;"/>
</g>
<g style="mix-blend-mode:luminosity">
<path d="M50.4355 850.208C66.0066 850.208 78.6297 837.56 78.6299 821.989C78.6299 806.418 66.0067 793.77 50.4355 793.77C50.4113 793.77 50.3866 793.77 50.3623 793.771L-5.88477 793.771C-5.90885 793.77 -5.93294 793.77 -5.95704 793.77C-21.5284 793.77 -34.1523 806.418 -34.1523 821.989C-34.1522 837.561 -21.5283 850.208 -5.95703 850.208C9.61408 850.208 22.2372 837.56 22.2373 821.989C22.2373 821.987 22.2373 821.984 22.2373 821.981L22.2402 821.981C22.2402 821.984 22.2402 821.987 22.2402 821.989C22.2404 837.561 34.8643 850.208 50.4355 850.208Z" fill="#BDC37A" style="fill:#BDC37A;fill:color(display-p3 0.7411 0.7649 0.4798);fill-opacity:1;"/>
<path d="M63.0586 835.987C56.4239 842.621 45.667 842.621 39.0324 835.987L63.0586 811.96C69.6933 818.595 69.6933 829.352 63.0586 835.987Z" fill="#141414" style="fill:#141414;fill:color(display-p3 0.0784 0.0784 0.0784);fill-opacity:1;"/>
<path d="M-16.918 835.987C-10.2833 842.621 0.473598 842.621 7.10826 835.987L-16.918 811.96C-23.5526 818.595 -23.5526 829.352 -16.918 835.987Z" fill="#141414" style="fill:#141414;fill:color(display-p3 0.0784 0.0784 0.0784);fill-opacity:1;"/>
<ellipse cx="4.51273" cy="7.99064" rx="4.51273" ry="7.99064" transform="matrix(1 -8.74228e-08 -8.74228e-08 -1 48.0273 831.352)" fill="#F5D0D0" style="fill:#F5D0D0;fill:color(display-p3 0.9601 0.8153 0.8153);fill-opacity:1;"/>
</g>
<g style="mix-blend-mode:luminosity">
<rect width="120.939" height="56.4384" rx="28.2192" transform="matrix(-1 0 0 1 216.781 481.588)" fill="#701AB7" style="fill:#701AB7;fill:color(display-p3 0.4398 0.1027 0.7157);fill-opacity:1;"/>
<path d="M132.911 529.048C124.946 524.089 122.508 513.612 127.467 505.646L156.312 523.604C151.354 531.569 140.877 534.006 132.911 529.048Z" fill="#7C71D6" style="fill:#7C71D6;fill:color(display-p3 0.4877 0.4414 0.8380);fill-opacity:1;"/>
<ellipse cx="4.51273" cy="7.99064" rx="4.51273" ry="7.99064" transform="matrix(-1 0 0 1 143.168 515.501)" fill="black" style="fill:black;fill-opacity:1;"/>
<path d="M179.714 529.048C187.679 524.089 190.117 513.612 185.158 505.646L156.312 523.604C161.271 531.569 171.748 534.006 179.714 529.048Z" fill="#7C71D6" style="fill:#7C71D6;fill:color(display-p3 0.4877 0.4414 0.8380);fill-opacity:1;"/>
<ellipse cx="173.974" cy="523.492" rx="4.51273" ry="7.99064" fill="black" style="fill:black;fill-opacity:1;"/>
</g>
<g style="mix-blend-mode:luminosity">
<rect width="30.2349" height="56.4384" rx="15.1174" transform="matrix(-1 0 0 1 216.781 544.361)" fill="#843B7A" style="fill:#843B7A;fill:color(display-p3 0.5176 0.2314 0.4784);fill-opacity:1;"/>
<rect width="30.2349" height="56.4384" rx="15.1174" transform="matrix(-1 0 0 1 186.547 544.361)" fill="#843B7A" style="fill:#843B7A;fill:color(display-p3 0.5176 0.2314 0.4784);fill-opacity:1;"/>
<rect width="30.2349" height="56.4384" rx="15.1174" transform="matrix(-1 0 0 1 156.312 544.361)" fill="#843B7A" style="fill:#843B7A;fill:color(display-p3 0.5176 0.2314 0.4784);fill-opacity:1;"/>
<rect width="30.2349" height="56.4384" rx="15.1174" transform="matrix(-1 0 0 1 126.074 544.361)" fill="#843B7A" style="fill:#843B7A;fill:color(display-p3 0.5176 0.2314 0.4784);fill-opacity:1;"/>
<path d="M132.911 583.68C124.946 578.721 122.508 568.244 127.467 560.278L156.312 578.235C151.354 586.201 140.877 588.638 132.911 583.68Z" fill="#FFD782" style="fill:#FFD782;fill:color(display-p3 1.0000 0.8448 0.5098);fill-opacity:1;"/>
<ellipse cx="4.51273" cy="7.99064" rx="4.51273" ry="7.99064" transform="matrix(-1 0 0 1 143.168 570.133)" fill="black" style="fill:black;fill-opacity:1;"/>
<path d="M179.714 583.68C187.679 578.721 190.117 568.244 185.158 560.278L156.312 578.235C161.271 586.201 171.748 588.638 179.714 583.68Z" fill="#FFD782" style="fill:#FFD782;fill:color(display-p3 1.0000 0.8448 0.5098);fill-opacity:1;"/>
<ellipse cx="170.708" cy="578.124" rx="4.51273" ry="7.99064" fill="black" style="fill:black;fill-opacity:1;"/>
</g>
<g style="mix-blend-mode:luminosity">
<path d="M258.112 544.361C242.541 544.361 229.917 557.009 229.917 572.58C229.917 588.151 242.541 600.8 258.112 600.8C267.277 600.8 275.419 596.417 280.568 589.638C282.372 590.246 284.303 590.578 286.312 590.578C288.318 590.578 290.248 590.247 292.051 589.64C297.201 596.418 305.341 600.8 314.505 600.8C330.076 600.8 342.699 588.151 342.699 572.58C342.699 557.009 330.076 544.362 314.505 544.361C305.342 544.361 297.201 548.742 292.051 555.521C290.249 554.913 288.318 554.584 286.312 554.584C284.303 554.584 282.372 554.914 280.568 555.522C275.419 548.743 267.277 544.361 258.112 544.361Z" fill="#0063A0" style="fill:#0063A0;fill:color(display-p3 0.0000 0.3864 0.6266);fill-opacity:1;"/>
<path d="M273.675 564.189C271.268 568.359 263.331 568.283 255.947 564.02C248.564 559.758 244.53 552.922 246.938 548.752L273.675 564.189Z" fill="#ADBDE3" style="fill:#ADBDE3;fill:color(display-p3 0.6794 0.7423 0.8893);fill-opacity:1;"/>
<path d="M299.157 564.189C301.564 568.359 309.501 568.283 316.885 564.02C324.268 559.758 328.302 552.922 325.895 548.752L299.157 564.189Z" fill="#ADBDE3" style="fill:#ADBDE3;fill:color(display-p3 0.6794 0.7423 0.8893);fill-opacity:1;"/>
<ellipse cx="2.52597" cy="7.5081" rx="2.52597" ry="7.5081" transform="matrix(-1 0 0 1 262.004 550.105)" fill="black" style="fill:black;fill-opacity:1;"/>
<ellipse cx="313.346" cy="557.613" rx="2.52597" ry="7.5081" fill="black" style="fill:black;fill-opacity:1;"/>
</g>
<g style="mix-blend-mode:luminosity">
<path d="M258.112 481.588C242.541 481.588 229.917 494.237 229.917 509.808C229.917 525.379 242.541 538.027 258.112 538.027L258.113 538.026V538.027L314.503 538.026L314.505 538.027C330.076 538.027 342.699 525.379 342.699 509.808C342.699 494.237 330.076 481.589 314.505 481.588C298.934 481.588 286.31 494.237 286.31 509.808C286.31 509.81 286.31 509.813 286.31 509.815H286.307C286.307 509.813 286.307 509.81 286.307 509.808C286.307 494.237 273.683 481.589 258.112 481.588Z" fill="#A07000" style="fill:#A07000;fill:color(display-p3 0.6266 0.4386 0.0000);fill-opacity:1;"/>
<path d="M297.718 509.807C297.718 500.424 305.324 492.818 314.707 492.818L314.707 526.796C305.324 526.796 297.718 519.19 297.718 509.807Z" fill="#141414" style="fill:#141414;fill:color(display-p3 0.0784 0.0784 0.0784);fill-opacity:1;"/>
<ellipse cx="4.51273" cy="7.99064" rx="4.51273" ry="7.99064" transform="matrix(-1 0 0 1 306.215 501.816)" fill="#F5D0D0" style="fill:#F5D0D0;fill:color(display-p3 0.9601 0.8153 0.8153);fill-opacity:1;"/>
<path d="M241.132 509.807C241.132 500.424 248.738 492.818 258.121 492.818L258.121 526.796C248.738 526.796 241.132 519.19 241.132 509.807Z" fill="#141414" style="fill:#141414;fill:color(display-p3 0.0784 0.0784 0.0784);fill-opacity:1;"/>
<ellipse cx="4.51273" cy="7.99064" rx="4.51273" ry="7.99064" transform="matrix(-1 0 0 1 249.633 501.816)" fill="#F5D0D0" style="fill:#F5D0D0;fill:color(display-p3 0.9601 0.8153 0.8153);fill-opacity:1;"/>
</g>
<g style="mix-blend-mode:luminosity">
<path d="M50.4355 600.799C66.0066 600.799 78.6297 588.152 78.6299 572.581C78.6299 557.009 66.0067 544.361 50.4355 544.361C50.4113 544.361 50.3866 544.362 50.3623 544.362L-5.88477 544.362C-5.90885 544.362 -5.93294 544.361 -5.95704 544.361C-21.5284 544.361 -34.1523 557.009 -34.1523 572.581C-34.1522 588.152 -21.5283 600.799 -5.95703 600.799C9.61405 600.799 22.2371 588.152 22.2373 572.581C22.2373 572.578 22.2373 572.576 22.2373 572.574L22.2402 572.574C22.2402 572.576 22.2402 572.578 22.2402 572.581C22.2404 588.152 34.8643 600.799 50.4355 600.799Z" fill="#C1CD42" style="fill:#C1CD42;fill:color(display-p3 0.7588 0.8040 0.2606);fill-opacity:1;"/>
<path d="M63.0586 586.578C56.4239 593.213 45.667 593.213 39.0324 586.578L63.0586 562.552C69.6933 569.186 69.6933 579.943 63.0586 586.578Z" fill="#141414" style="fill:#141414;fill:color(display-p3 0.0784 0.0784 0.0784);fill-opacity:1;"/>
<path d="M-16.918 586.578C-10.2833 593.213 0.473598 593.213 7.10826 586.578L-16.918 562.552C-23.5526 569.186 -23.5526 579.943 -16.918 586.578Z" fill="#141414" style="fill:#141414;fill:color(display-p3 0.0784 0.0784 0.0784);fill-opacity:1;"/>
<ellipse cx="4.51273" cy="7.99064" rx="4.51273" ry="7.99064" transform="matrix(1 -8.74228e-08 -8.74228e-08 -1 48.0273 581.943)" fill="#F5D0D0" style="fill:#F5D0D0;fill:color(display-p3 0.9601 0.8153 0.8153);fill-opacity:1;"/>
</g>
<circle cx="220" cy="481.588" r="135.855" fill="#08C4A9" style="fill:#08C4A9;fill:color(display-p3 0.0314 0.7686 0.6627);fill-opacity:1;"/>
<path d="M280.383 472.928C287.049 476.777 287.049 486.399 280.383 490.248L181.174 547.526C174.507 551.375 166.174 546.564 166.174 538.866L166.174 424.31C166.174 416.612 174.507 411.8 181.174 415.649L280.383 472.928Z" fill="white" style="fill:white;fill-opacity:1;"/>
<path d="M166.164 913.823C166.164 906.818 171.843 901.139 178.848 901.139H261.153C268.159 901.139 273.838 906.818 273.838 913.823C273.838 920.828 268.159 926.507 261.153 926.507H178.848C171.843 926.507 166.164 920.828 166.164 913.823Z" fill="#08C4A9" style="fill:#08C4A9;fill:color(display-p3 0.0314 0.7686 0.6627);fill-opacity:1;"/>
<path d="M177.272 916.911L185.137 911.084L185.063 910.95C183.981 909.051 182.098 907.204 179.297 907.159C175.751 907.102 172.549 909.737 172.485 913.725C172.428 917.277 175.288 920.445 179.277 920.509C183.14 920.572 185.137 917.021 185.137 917.021L182.788 915.186C182.788 915.186 180.59 918.841 177.272 916.911ZM176.877 911.079C178.328 909.806 180.351 910.083 180.947 910.811L175.707 914.693C175.372 913.258 175.958 911.887 176.877 911.079Z" fill="white" style="fill:white;fill-opacity:1;"/>
<path d="M253.133 920.19L247.35 913.824L252.743 907.458H248.942L244.416 913.18V907.458H241.258V920.19H244.416V914.421L249.332 920.19H253.133Z" fill="white" style="fill:white;fill-opacity:1;"/>
<path d="M201.855 907.458V920.19H205.014V910.505H209.929V920.19H213.088V907.458H201.855Z" fill="white" style="fill:white;fill-opacity:1;"/>
<path d="M225.921 907.458H214.689V910.505H218.726V920.19H221.884V910.505H225.921V907.458Z" fill="white" style="fill:white;fill-opacity:1;"/>
<path d="M196.316 907.458V908.828C195.469 907.856 194.203 907.152 192.341 907.152C189.131 907.152 186.057 909.774 186.057 913.826C186.057 917.771 188.83 920.501 192.341 920.501C194.204 920.501 195.47 919.695 196.316 918.639V920.19H199.474V907.458H196.316ZM192.873 917.409C190.594 917.409 189.215 915.909 189.215 913.826C189.215 911.716 190.622 910.261 192.873 910.261C194.769 910.261 196.316 911.82 196.316 913.824C196.316 916.182 194.583 917.409 192.873 917.409Z" fill="white" style="fill:white;fill-opacity:1;"/>
<path d="M262.785 907.458V908.828C261.938 907.856 260.672 907.152 258.81 907.152C255.601 907.152 252.526 909.774 252.526 913.826C252.526 917.771 255.299 920.501 258.81 920.501C260.673 920.501 261.939 919.695 262.785 918.639V920.19H265.944V907.458H262.785ZM259.342 917.409C257.063 917.409 255.684 915.909 255.684 913.826C255.684 911.716 257.091 910.261 259.342 910.261C261.238 910.261 262.785 911.82 262.785 913.824C262.785 916.182 261.052 917.409 259.342 917.409Z" fill="white" style="fill:white;fill-opacity:1;"/>
<path d="M239.174 911.098C238.218 908.808 236.355 907.152 233.081 907.152C229.688 907.152 226.593 909.865 226.593 913.826C226.593 917.96 229.461 920.501 233.675 920.501C236.426 920.501 238.107 918.841 238.891 918.07L236.978 915.975C236.476 916.433 235.424 917.345 233.678 917.345C231.771 917.345 230.466 916.469 229.972 915.121H239.643C239.643 915.121 239.67 914.74 239.67 914.507L239.669 914.504C239.701 913.394 239.6 912.12 239.174 911.098ZM233.271 910.176C235.167 910.176 236.141 911.211 236.369 912.383H229.989C230.457 911.071 231.598 910.176 233.271 910.176Z" fill="white" style="fill:white;fill-opacity:1;"/>
</g>
<defs>
<clipPath id="clip0_3332_4086">
<rect width="440" height="956" fill="white" style="fill:white;fill-opacity:1;"/>
</clipPath>
</defs>
</svg>
