<svg width="185" height="44" viewBox="0 0 185 44" fill="none" xmlns="http://www.w3.org/2000/svg">
<path d="M0 21.7551C0 9.7401 9.7401 0 21.7551 0H162.921C174.936 0 184.676 9.7401 184.676 21.7551C184.676 33.7701 174.936 43.5102 162.921 43.5102H21.7551C9.74011 43.5102 0 33.7701 0 21.7551Z" fill="#08C4A9" style="fill:#08C4A9;fill:color(display-p3 0.0314 0.7686 0.6627);fill-opacity:1;"/>
<path d="M19.0471 27.0513L32.5365 17.0577L32.4102 16.8271C30.555 13.5714 27.3251 10.4033 22.5204 10.3257C16.4384 10.2276 10.9476 14.747 10.8374 21.5866C10.7391 27.6796 15.6437 33.1132 22.4859 33.2236C29.1115 33.3305 32.5367 27.24 32.5367 27.24L28.5085 24.0939C28.5085 24.0939 24.7388 30.3617 19.0471 27.0513ZM18.3707 17.0494C20.8584 14.8652 24.3278 15.3413 25.3503 16.59L16.3631 23.2481C15.7895 20.7862 16.7932 18.4346 18.3707 17.0494Z" fill="white" style="fill:white;fill-opacity:1;"/>
<path d="M149.16 32.6755L139.241 21.7568L148.491 10.8387H141.971L134.21 20.6533V10.8387H128.792V32.6755H134.21V22.781L142.64 32.6755H149.16Z" fill="white" style="fill:white;fill-opacity:1;"/>
<path d="M61.2116 10.8387V32.6755H66.629V16.0641H75.0595V32.6755H80.4769V10.8387H61.2116Z" fill="white" style="fill:white;fill-opacity:1;"/>
<path d="M102.488 10.8387H83.2223V16.0641H90.1463V32.6755H95.5637V16.0641H102.488V10.8387Z" fill="white" style="fill:white;fill-opacity:1;"/>
<path d="M51.7104 10.8387V13.189C50.2574 11.522 48.0857 10.3135 44.8927 10.3135C39.3879 10.3135 34.1142 14.8111 34.1142 21.761C34.1142 28.5273 38.8709 33.2086 44.8927 33.2086C48.0888 33.2086 50.2594 31.8273 51.7104 30.0148V32.6753H57.1277V10.8387H51.7104ZM45.805 27.9055C41.897 27.9055 39.5314 25.3338 39.5314 21.761C39.5314 18.1418 41.9446 15.6454 45.805 15.6454C49.0577 15.6454 51.7104 18.3201 51.7104 21.7568C51.7104 25.8017 48.7381 27.9055 45.805 27.9055Z" fill="white" style="fill:white;fill-opacity:1;"/>
<path d="M165.715 10.8387V13.189C164.262 11.522 162.09 10.3135 158.897 10.3135C153.392 10.3135 148.118 14.8111 148.118 21.761C148.118 28.5273 152.875 33.2086 158.897 33.2086C162.093 33.2086 164.264 31.8273 165.715 30.0148V32.6753H171.132V10.8387H165.715ZM159.809 27.9055C155.901 27.9055 153.536 25.3338 153.536 21.761C153.536 18.1418 155.949 15.6454 159.809 15.6454C163.062 15.6454 165.715 18.3201 165.715 21.7568C165.715 25.8017 162.742 27.9055 159.809 27.9055Z" fill="white" style="fill:white;fill-opacity:1;"/>
<path d="M125.218 17.0822C123.578 13.1546 120.384 10.3135 114.768 10.3135C108.948 10.3135 103.64 14.9664 103.64 21.761C103.64 28.8514 108.56 33.2086 115.787 33.2086C120.505 33.2086 123.388 30.3628 124.733 29.0399L121.453 25.4461C120.59 26.2317 118.787 27.7964 115.792 27.7964C112.522 27.7964 110.283 26.2934 109.435 23.9823H126.022C126.022 23.9823 126.068 23.3288 126.068 22.9291L126.068 22.9239C126.121 21.0194 125.95 18.835 125.218 17.0822ZM115.093 15.4995C118.346 15.4995 120.017 17.2748 120.407 19.285H109.466C110.268 17.0346 112.224 15.4995 115.093 15.4995Z" fill="white" style="fill:white;fill-opacity:1;"/>
</svg>
