<svg width="183" height="95" viewBox="0 0 183 95" fill="none" xmlns="http://www.w3.org/2000/svg">
<path d="M0 47.1482C0 21.109 21.109 0 47.1482 0H135.68C161.719 0 182.828 21.109 182.828 47.1482C182.828 73.1874 161.719 94.2964 135.68 94.2964H47.1482C21.109 94.2964 0 73.1874 0 47.1482Z" fill="#08C4A9" style="fill:#08C4A9;fill:color(display-p3 0.0314 0.7686 0.6627);fill-opacity:1;"/>
<path d="M60.1773 44.6738C59.9906 44.6738 59.9106 44.5805 59.9373 44.3938L61.9173 31.8538C61.9439 31.6672 62.0373 31.5738 62.1973 31.5738H64.7773C64.9639 31.5738 65.0439 31.6672 65.0173 31.8538L64.3373 36.2538C64.2439 36.8672 64.1173 37.5205 63.9573 38.2138C63.7973 38.8938 63.6106 39.5938 63.3973 40.3138H63.4773C63.8106 39.6605 64.1839 39.0205 64.5973 38.3938C65.0239 37.7538 65.4373 37.1605 65.8373 36.6138L69.3173 31.8338C69.3839 31.7538 69.4439 31.6938 69.4973 31.6538C69.5506 31.6005 69.6239 31.5738 69.7173 31.5738H72.5373C72.7373 31.5738 72.8239 31.6672 72.7973 31.8538L70.8173 44.3938C70.7906 44.5805 70.6906 44.6738 70.5173 44.6738H67.9573C67.7706 44.6738 67.6906 44.5805 67.7173 44.3938L68.3773 40.1538C68.4706 39.5005 68.5906 38.8405 68.7373 38.1738C68.8973 37.4938 69.0706 36.7938 69.2573 36.0738H69.1973C68.9439 36.4738 68.6906 36.8672 68.4373 37.2538C68.1839 37.6272 67.9306 37.9938 67.6773 38.3538C67.4373 38.7005 67.2106 39.0272 66.9973 39.3338L63.3973 44.4138C63.3573 44.4805 63.3039 44.5405 63.2373 44.5938C63.1706 44.6472 63.0839 44.6738 62.9773 44.6738H60.1773Z" fill="white" style="fill:white;fill-opacity:1;"/>
<path d="M73.3804 44.6738C73.1937 44.6738 73.1137 44.5805 73.1404 44.3938L75.1204 31.8538C75.1471 31.6672 75.2537 31.5738 75.4404 31.5738H82.7404C82.8337 31.5738 82.9071 31.6005 82.9604 31.6538C83.0137 31.6938 83.0271 31.7605 83.0004 31.8538L82.6204 34.1338C82.5937 34.3205 82.5004 34.4138 82.3404 34.4138H77.9204L76.3404 44.3938C76.3137 44.5805 76.2204 44.6738 76.0604 44.6738H73.3804Z" fill="white" style="fill:white;fill-opacity:1;"/>
<path d="M82.7949 44.6738C82.5949 44.6738 82.5083 44.5805 82.5349 44.3938L84.5149 31.8538C84.5416 31.6672 84.6349 31.5738 84.7949 31.5738H88.7349C90.3883 31.5738 91.5949 31.8938 92.3549 32.5338C93.1283 33.1738 93.5149 34.1538 93.5149 35.4738C93.5149 36.5138 93.2882 37.4138 92.8349 38.1738C92.3949 38.9338 91.7549 39.5205 90.9149 39.9338C90.0749 40.3472 89.0549 40.5538 87.8549 40.5538H86.3549L85.7349 44.3938C85.7082 44.5805 85.6149 44.6738 85.4549 44.6738H82.7949ZM86.7949 37.7538H87.9949C88.7416 37.7538 89.3016 37.5938 89.6749 37.2738C90.0483 36.9538 90.2349 36.4538 90.2349 35.7738C90.2349 35.2938 90.0882 34.9472 89.7949 34.7338C89.5016 34.5072 89.0683 34.3938 88.4949 34.3938H87.3149L86.7949 37.7538Z" fill="white" style="fill:white;fill-opacity:1;"/>
<path d="M91.6888 44.6738C91.6088 44.6738 91.5555 44.6472 91.5288 44.5938C91.5022 44.5405 91.5088 44.4738 91.5488 44.3938L97.6088 31.8538C97.7022 31.6672 97.8155 31.5738 97.9488 31.5738H101.449C101.609 31.5738 101.709 31.6672 101.749 31.8538L103.849 44.3938C103.889 44.5805 103.809 44.6738 103.609 44.6738H100.669C100.509 44.6738 100.415 44.5805 100.389 44.3938L99.5688 37.3338C99.5155 36.8405 99.4622 36.3405 99.4088 35.8338C99.3688 35.3272 99.3355 34.8272 99.3088 34.3338H99.2488C99.0755 34.8405 98.8888 35.3472 98.6888 35.8538C98.4888 36.3472 98.2822 36.8472 98.0688 37.3538L95.0288 44.3938C94.9488 44.5805 94.8288 44.6738 94.6688 44.6738H91.6888ZM95.4488 42.3338L96.3688 39.7538H100.409L100.549 42.3338H95.4488Z" fill="white" style="fill:white;fill-opacity:1;"/>
<path d="M106.549 44.6738C106.349 44.6738 106.262 44.5805 106.289 44.3938L107.869 34.4138H104.709C104.616 34.4138 104.542 34.3938 104.489 34.3538C104.449 34.3005 104.436 34.2272 104.449 34.1338L104.809 31.8538C104.836 31.6672 104.936 31.5738 105.109 31.5738H114.709C114.802 31.5738 114.876 31.6005 114.929 31.6538C114.982 31.6938 114.996 31.7605 114.969 31.8538L114.609 34.1338C114.582 34.3205 114.482 34.4138 114.309 34.4138H111.109L109.489 44.3938C109.462 44.5805 109.369 44.6738 109.209 44.6738H106.549Z" fill="white" style="fill:white;fill-opacity:1;"/>
<path d="M114.767 44.6738C114.58 44.6738 114.5 44.5805 114.527 44.3938L116.507 31.8538C116.547 31.6672 116.64 31.5738 116.787 31.5738H119.447C119.647 31.5738 119.734 31.6672 119.707 31.8538L119.087 35.7738H120.507C122.04 35.7738 123.194 36.0872 123.967 36.7138C124.74 37.3405 125.127 38.2672 125.127 39.4938C125.127 41.1738 124.614 42.4605 123.587 43.3538C122.574 44.2338 121.134 44.6738 119.267 44.6738H114.767ZM118.127 41.8538H119.567C120.327 41.8538 120.9 41.6805 121.287 41.3338C121.687 40.9872 121.887 40.4805 121.887 39.8138C121.887 39.3338 121.747 38.9872 121.467 38.7738C121.187 38.5472 120.734 38.4338 120.107 38.4338H118.667L118.127 41.8538Z" fill="white" style="fill:white;fill-opacity:1;"/>
<path d="M54.2198 65.6738C54.0464 65.6738 53.9731 65.5805 53.9998 65.3938L55.9798 52.8538C56.0064 52.6672 56.1131 52.5738 56.2998 52.5738H64.3998C64.4931 52.5738 64.5664 52.6005 64.6198 52.6538C64.6731 52.6938 64.6864 52.7605 64.6598 52.8538L64.2998 55.1338C64.2731 55.3205 64.1798 55.4138 64.0198 55.4138H58.7998L58.4198 57.7338H63.1198C63.3198 57.7338 63.3998 57.8272 63.3598 58.0138L63.0198 60.1538C62.9931 60.3405 62.8998 60.4338 62.7398 60.4338H57.9998L57.6198 62.8338H62.7798C62.9664 62.8338 63.0464 62.9205 63.0198 63.0938L62.6798 65.3938C62.6398 65.5805 62.5464 65.6738 62.3998 65.6738H54.2198Z" fill="white" style="fill:white;fill-opacity:1;"/>
<path d="M78.4415 68.5338C78.2415 68.5338 78.1548 68.4405 78.1815 68.2538L78.6015 65.6738H65.0015C64.8148 65.6738 64.7348 65.5805 64.7615 65.3938L66.7415 52.8538C66.7681 52.6672 66.8615 52.5738 67.0215 52.5738H69.6815C69.8815 52.5738 69.9681 52.6672 69.9415 52.8538L68.3815 62.7738H71.3615L72.9415 52.8538C72.9681 52.6672 73.0615 52.5738 73.2215 52.5738H75.8815C76.0815 52.5738 76.1681 52.6672 76.1415 52.8538L74.5815 62.7738H77.5615L79.1215 52.8538C79.1481 52.6672 79.2415 52.5738 79.4015 52.5738H82.0615C82.2615 52.5738 82.3481 52.6672 82.3215 52.8538L80.7615 62.7738H81.8815C82.0815 62.7738 82.1681 62.8605 82.1415 63.0338L81.3215 68.2538C81.2948 68.4405 81.2015 68.5338 81.0415 68.5338H78.4415Z" fill="white" style="fill:white;fill-opacity:1;"/>
<path d="M83.2627 65.6738C83.0894 65.6738 83.0161 65.5805 83.0427 65.3938L85.0227 52.8538C85.0494 52.6672 85.1561 52.5738 85.3427 52.5738H93.4427C93.5361 52.5738 93.6094 52.6005 93.6627 52.6538C93.7161 52.6938 93.7294 52.7605 93.7027 52.8538L93.3427 55.1338C93.3161 55.3205 93.2227 55.4138 93.0627 55.4138H87.8427L87.4627 57.7338H92.1627C92.3627 57.7338 92.4427 57.8272 92.4027 58.0138L92.0627 60.1538C92.0361 60.3405 91.9427 60.4338 91.7827 60.4338H87.0427L86.6627 62.8338H91.8227C92.0094 62.8338 92.0894 62.9205 92.0627 63.0938L91.7227 65.3938C91.6827 65.5805 91.5894 65.6738 91.4427 65.6738H83.2627ZM91.5427 51.5338C91.0761 51.5338 90.7161 51.4072 90.4627 51.1538C90.2094 50.9005 90.1094 50.5605 90.1627 50.1338L90.2027 49.7538C90.2694 49.2872 90.4361 48.9405 90.7027 48.7138C90.9827 48.4738 91.3627 48.3538 91.8427 48.3538C92.3361 48.3538 92.7094 48.4805 92.9627 48.7338C93.2161 48.9738 93.3161 49.3138 93.2627 49.7538L93.2027 50.1338C93.1494 50.5872 92.9827 50.9338 92.7027 51.1738C92.4361 51.4138 92.0494 51.5338 91.5427 51.5338ZM87.4427 51.5338C86.9494 51.5338 86.5761 51.4072 86.3227 51.1538C86.0827 50.9005 85.9827 50.5605 86.0227 50.1338L86.0827 49.7538C86.1361 49.2872 86.2961 48.9405 86.5627 48.7138C86.8427 48.4738 87.2294 48.3538 87.7227 48.3538C88.2161 48.3538 88.5894 48.4805 88.8427 48.7338C89.0961 48.9738 89.1894 49.3138 89.1227 49.7538L89.0827 50.1338C89.0161 50.5872 88.8427 50.9338 88.5627 51.1738C88.2961 51.4138 87.9227 51.5338 87.4427 51.5338Z" fill="white" style="fill:white;fill-opacity:1;"/>
<path d="M97.8926 65.6738C97.6926 65.6738 97.6059 65.5805 97.6326 65.3938L99.6126 52.8538C99.6392 52.6672 99.7326 52.5738 99.8926 52.5738H103.833C105.486 52.5738 106.693 52.8938 107.453 53.5338C108.226 54.1738 108.613 55.1538 108.613 56.4738C108.613 57.5138 108.386 58.4138 107.933 59.1738C107.493 59.9338 106.853 60.5205 106.013 60.9338C105.173 61.3472 104.153 61.5538 102.953 61.5538H101.453L100.833 65.3938C100.806 65.5805 100.713 65.6738 100.553 65.6738H97.8926ZM101.893 58.7538H103.093C103.839 58.7538 104.399 58.5938 104.773 58.2738C105.146 57.9538 105.333 57.4538 105.333 56.7738C105.333 56.2938 105.186 55.9472 104.893 55.7338C104.599 55.5072 104.166 55.3938 103.593 55.3938H102.413L101.893 58.7538Z" fill="white" style="fill:white;fill-opacity:1;"/>
<path d="M106.786 65.6738C106.706 65.6738 106.653 65.6472 106.626 65.5938C106.6 65.5405 106.606 65.4738 106.646 65.3938L112.706 52.8538C112.8 52.6672 112.913 52.5738 113.046 52.5738H116.546C116.706 52.5738 116.806 52.6672 116.846 52.8538L118.946 65.3938C118.986 65.5805 118.906 65.6738 118.706 65.6738H115.766C115.606 65.6738 115.513 65.5805 115.486 65.3938L114.666 58.3338C114.613 57.8405 114.56 57.3405 114.506 56.8338C114.466 56.3272 114.433 55.8272 114.406 55.3338H114.346C114.173 55.8405 113.986 56.3472 113.786 56.8538C113.586 57.3472 113.38 57.8472 113.166 58.3538L110.126 65.3938C110.046 65.5805 109.926 65.6738 109.766 65.6738H106.786ZM110.546 63.3338L111.466 60.7538H115.506L115.646 63.3338H110.546Z" fill="white" style="fill:white;fill-opacity:1;"/>
<path d="M124.91 65.9138C123.697 65.9138 122.717 65.7738 121.97 65.4938C121.224 65.2138 120.71 64.7805 120.43 64.1938C120.15 63.5938 120.097 62.8272 120.27 61.8938C120.31 61.7072 120.404 61.6138 120.55 61.6138H122.93C123.117 61.6138 123.204 61.7005 123.19 61.8738C123.164 62.1938 123.217 62.4538 123.35 62.6538C123.484 62.8405 123.697 62.9738 123.99 63.0538C124.284 63.1338 124.657 63.1738 125.11 63.1738C125.95 63.1738 126.57 63.0472 126.97 62.7938C127.37 62.5405 127.57 62.1205 127.57 61.5338C127.57 61.1205 127.437 60.8205 127.17 60.6338C126.904 60.4472 126.457 60.3538 125.83 60.3538H123.89C123.69 60.3538 123.61 60.2605 123.65 60.0738L123.95 58.1338C123.99 57.9472 124.084 57.8538 124.23 57.8538H125.67C126.47 57.8538 127.05 57.7272 127.41 57.4738C127.77 57.2205 127.95 56.7938 127.95 56.1938C127.95 55.7938 127.797 55.5005 127.49 55.3138C127.184 55.1138 126.704 55.0138 126.05 55.0138C125.464 55.0138 125.017 55.1138 124.71 55.3138C124.417 55.5138 124.25 55.8205 124.21 56.2338C124.197 56.4205 124.104 56.5138 123.93 56.5138H121.55C121.364 56.5138 121.27 56.4205 121.27 56.2338C121.324 54.9272 121.77 53.9538 122.61 53.3138C123.464 52.6605 124.737 52.3338 126.43 52.3338C127.977 52.3338 129.157 52.6072 129.97 53.1538C130.784 53.6872 131.19 54.4672 131.19 55.4938C131.19 56.3338 130.984 57.0472 130.57 57.6338C130.157 58.2072 129.564 58.6138 128.79 58.8538V58.8938C129.417 59.0405 129.904 59.3472 130.25 59.8138C130.61 60.2805 130.79 60.8405 130.79 61.4938C130.79 62.4538 130.557 63.2672 130.09 63.9338C129.637 64.5872 128.97 65.0805 128.09 65.4138C127.224 65.7472 126.164 65.9138 124.91 65.9138Z" fill="white" style="fill:white;fill-opacity:1;"/>
</svg>
