<svg width="183" height="95" viewBox="0 0 183 95" fill="none" xmlns="http://www.w3.org/2000/svg">
<path d="M0 47.1482C0 21.109 21.109 0 47.1482 0H135.68C161.719 0 182.828 21.109 182.828 47.1482C182.828 73.1874 161.719 94.2964 135.68 94.2964H47.1482C21.109 94.2964 0 73.1874 0 47.1482Z" fill="#7D6AFF" style="fill:#7D6AFF;fill:color(display-p3 0.4902 0.4157 1.0000);fill-opacity:1;"/>
<path d="M43.3511 44.6738C43.1644 44.6738 43.0844 44.5805 43.1111 44.3938L45.0911 31.8538C45.1178 31.6672 45.2111 31.5738 45.3711 31.5738H55.7111C55.9111 31.5738 55.9978 31.6672 55.9711 31.8538L53.9711 44.3938C53.9444 44.5805 53.8444 44.6738 53.6711 44.6738H51.0311C50.8311 44.6738 50.7444 44.5805 50.7711 44.3938L52.3511 34.4138H47.8911L46.3111 44.3938C46.2844 44.5805 46.1911 44.6738 46.0311 44.6738H43.3511Z" fill="white" style="fill:white;fill-opacity:1;"/>
<path d="M61.8142 44.9138C59.9209 44.9138 58.5475 44.4405 57.6942 43.4938C56.8409 42.5472 56.5542 41.2072 56.8342 39.4738L57.3342 36.3338C57.6009 34.6272 58.2342 33.3672 59.2342 32.5538C60.2342 31.7405 61.6342 31.3338 63.4342 31.3338C65.3142 31.3338 66.6875 31.8072 67.5542 32.7538C68.4209 33.6872 68.7142 35.0205 68.4342 36.7538L67.9142 39.9138C67.6475 41.6205 67.0142 42.8805 66.0142 43.6938C65.0142 44.5072 63.6142 44.9138 61.8142 44.9138ZM62.1542 42.0538C62.9142 42.0538 63.5009 41.8605 63.9142 41.4738C64.3409 41.0872 64.6209 40.4872 64.7542 39.6738L65.1942 36.8938C65.3409 35.9872 65.2342 35.3138 64.8742 34.8738C64.5275 34.4338 63.9342 34.2072 63.0942 34.1938C62.3475 34.1938 61.7609 34.3872 61.3342 34.7738C60.9209 35.1605 60.6475 35.7605 60.5142 36.5738L60.0742 39.3538C59.9275 40.2605 60.0275 40.9338 60.3742 41.3738C60.7209 41.8138 61.3142 42.0405 62.1542 42.0538Z" fill="white" style="fill:white;fill-opacity:1;"/>
<path d="M81.3425 41.7738C81.5425 41.7738 81.6292 41.8605 81.6025 42.0338L80.7825 47.2538C80.7558 47.4405 80.6625 47.5338 80.5025 47.5338H77.9025C77.7025 47.5338 77.6158 47.4405 77.6425 47.2538L78.0625 44.6738H71.2425L70.8225 47.2538C70.7958 47.4405 70.7025 47.5338 70.5425 47.5338H67.9425C67.7425 47.5338 67.6558 47.4405 67.6825 47.2538L68.5025 42.0338C68.5292 41.8605 68.6225 41.7738 68.7825 41.7738H69.9625L74.6225 31.8538C74.7025 31.6672 74.8092 31.5738 74.9425 31.5738H78.4425C78.6025 31.5738 78.7025 31.6672 78.7425 31.8538L80.2825 41.7738H81.3425ZM75.1225 37.2738L73.2425 41.7738H77.0025L76.5425 37.2538C76.4892 36.7605 76.4425 36.2738 76.4025 35.7938C76.3758 35.3005 76.3425 34.8138 76.3025 34.3338H76.2625C76.0758 34.8405 75.8892 35.3405 75.7025 35.8338C75.5158 36.3138 75.3225 36.7938 75.1225 37.2738Z" fill="white" style="fill:white;fill-opacity:1;"/>
<path d="M82.628 44.6738C82.4546 44.6738 82.3813 44.5805 82.408 44.3938L84.388 31.8538C84.4146 31.6672 84.5213 31.5738 84.708 31.5738H92.808C92.9013 31.5738 92.9746 31.6005 93.028 31.6538C93.0813 31.6938 93.0946 31.7605 93.068 31.8538L92.708 34.1338C92.6813 34.3205 92.588 34.4138 92.428 34.4138H87.208L86.828 36.7338H91.528C91.728 36.7338 91.808 36.8272 91.768 37.0138L91.428 39.1538C91.4013 39.3405 91.308 39.4338 91.148 39.4338H86.408L86.028 41.8338H91.188C91.3746 41.8338 91.4546 41.9205 91.428 42.0938L91.088 44.3938C91.048 44.5805 90.9546 44.6738 90.808 44.6738H82.628Z" fill="white" style="fill:white;fill-opacity:1;"/>
<path d="M92.1869 44.6738C92.1069 44.6738 92.0535 44.6472 92.0269 44.5938C92.0002 44.5405 92.0069 44.4738 92.0469 44.3938L98.0469 31.8538C98.1269 31.6672 98.2335 31.5738 98.3669 31.5738H101.887C102.047 31.5738 102.14 31.6672 102.167 31.8538L104.227 44.3938C104.254 44.5805 104.174 44.6738 103.987 44.6738H101.047C100.887 44.6738 100.794 44.5805 100.767 44.3938L100.007 37.3338C99.9402 36.8272 99.8869 36.3272 99.8469 35.8338C99.8069 35.3272 99.7735 34.8272 99.7469 34.3338H99.6869C99.5002 34.8405 99.3069 35.3472 99.1069 35.8538C98.9069 36.3605 98.7002 36.8605 98.4869 37.3538L95.5269 44.3938C95.4469 44.5805 95.3269 44.6738 95.1669 44.6738H92.1869Z" fill="white" style="fill:white;fill-opacity:1;"/>
<path d="M105.558 44.6738C105.371 44.6738 105.291 44.5805 105.318 44.3938L107.298 31.8538C107.325 31.6672 107.418 31.5738 107.578 31.5738H110.158C110.345 31.5738 110.425 31.6672 110.398 31.8538L109.718 36.2538C109.625 36.8672 109.498 37.5205 109.338 38.2138C109.178 38.8938 108.991 39.5938 108.778 40.3138H108.858C109.191 39.6605 109.565 39.0205 109.978 38.3938C110.405 37.7538 110.818 37.1605 111.218 36.6138L114.698 31.8338C114.765 31.7538 114.825 31.6938 114.878 31.6538C114.931 31.6005 115.005 31.5738 115.098 31.5738H117.918C118.118 31.5738 118.205 31.6672 118.178 31.8538L116.198 44.3938C116.171 44.5805 116.071 44.6738 115.898 44.6738H113.338C113.151 44.6738 113.071 44.5805 113.098 44.3938L113.758 40.1538C113.851 39.5005 113.971 38.8405 114.118 38.1738C114.278 37.4938 114.451 36.7938 114.638 36.0738H114.578C114.325 36.4738 114.071 36.8672 113.818 37.2538C113.565 37.6272 113.311 37.9938 113.058 38.3538C112.818 38.7005 112.591 39.0272 112.378 39.3338L108.778 44.4138C108.738 44.4805 108.685 44.5405 108.618 44.5938C108.551 44.6472 108.465 44.6738 108.358 44.6738H105.558Z" fill="white" style="fill:white;fill-opacity:1;"/>
<path d="M124.021 44.9138C122.141 44.9138 120.775 44.4338 119.921 43.4738C119.068 42.5005 118.775 41.1538 119.041 39.4338L119.521 36.3538C119.788 34.6472 120.421 33.3872 121.421 32.5738C122.421 31.7472 123.808 31.3338 125.581 31.3338C126.781 31.3338 127.788 31.5338 128.601 31.9338C129.415 32.3338 129.995 32.9005 130.341 33.6338C130.701 34.3672 130.775 35.2205 130.561 36.1938C130.521 36.3805 130.428 36.4738 130.281 36.4738H127.601C127.415 36.4738 127.328 36.3805 127.341 36.1938C127.435 35.5672 127.308 35.0805 126.961 34.7338C126.628 34.3738 126.068 34.1938 125.281 34.1938C124.535 34.1938 123.948 34.3938 123.521 34.7938C123.108 35.1805 122.835 35.7738 122.701 36.5738L122.261 39.3538C122.115 40.2605 122.215 40.9405 122.561 41.3938C122.921 41.8338 123.515 42.0538 124.341 42.0538C125.075 42.0538 125.641 41.8872 126.041 41.5538C126.441 41.2072 126.675 40.7072 126.741 40.0538C126.755 39.8672 126.841 39.7738 127.001 39.7738H129.681C129.895 39.7738 129.988 39.8672 129.961 40.0538C129.908 41.1072 129.641 41.9938 129.161 42.7138C128.681 43.4338 128.008 43.9805 127.141 44.3538C126.288 44.7272 125.248 44.9138 124.021 44.9138Z" fill="white" style="fill:white;fill-opacity:1;"/>
<path d="M131.593 44.6738C131.407 44.6738 131.327 44.5805 131.353 44.3938L133.333 31.8538C133.373 31.6672 133.467 31.5738 133.613 31.5738H136.273C136.473 31.5738 136.56 31.6672 136.533 31.8538L135.913 35.7738H137.333C138.867 35.7738 140.02 36.0872 140.793 36.7138C141.567 37.3405 141.953 38.2672 141.953 39.4938C141.953 41.1738 141.44 42.4605 140.413 43.3538C139.4 44.2338 137.96 44.6738 136.093 44.6738H131.593ZM134.953 41.8538H136.393C137.153 41.8538 137.727 41.6805 138.113 41.3338C138.513 40.9872 138.713 40.4805 138.713 39.8138C138.713 39.3338 138.573 38.9872 138.293 38.7738C138.013 38.5472 137.56 38.4338 136.933 38.4338H135.493L134.953 41.8538Z" fill="white" style="fill:white;fill-opacity:1;"/>
<path d="M30.4316 65.6738C30.2316 65.6738 30.145 65.5805 30.1716 65.3938L32.1516 52.8538C32.1783 52.6672 32.2716 52.5738 32.4316 52.5738H36.3716C38.025 52.5738 39.2316 52.8938 39.9916 53.5338C40.765 54.1738 41.1516 55.1538 41.1516 56.4738C41.1516 57.5138 40.925 58.4138 40.4716 59.1738C40.0316 59.9338 39.3916 60.5205 38.5516 60.9338C37.7116 61.3472 36.6916 61.5538 35.4916 61.5538H33.9916L33.3716 65.3938C33.345 65.5805 33.2516 65.6738 33.0916 65.6738H30.4316ZM34.4316 58.7538H35.6316C36.3783 58.7538 36.9383 58.5938 37.3116 58.2738C37.685 57.9538 37.8716 57.4538 37.8716 56.7738C37.8716 56.2938 37.725 55.9472 37.4316 55.7338C37.1383 55.5072 36.705 55.3938 36.1316 55.3938H34.9516L34.4316 58.7538Z" fill="white" style="fill:white;fill-opacity:1;"/>
<path d="M41.6612 65.6738C41.4878 65.6738 41.4145 65.5805 41.4412 65.3938L43.4212 52.8538C43.4478 52.6672 43.5545 52.5738 43.7412 52.5738H51.8412C51.9345 52.5738 52.0078 52.6005 52.0612 52.6538C52.1145 52.6938 52.1278 52.7605 52.1012 52.8538L51.7412 55.1338C51.7145 55.3205 51.6212 55.4138 51.4612 55.4138H46.2412L45.8612 57.7338H50.5612C50.7612 57.7338 50.8412 57.8272 50.8012 58.0138L50.4612 60.1538C50.4345 60.3405 50.3412 60.4338 50.1812 60.4338H45.4412L45.0612 62.8338H50.2212C50.4078 62.8338 50.4878 62.9205 50.4612 63.0938L50.1212 65.3938C50.0812 65.5805 49.9878 65.6738 49.8412 65.6738H41.6612Z" fill="white" style="fill:white;fill-opacity:1;"/>
<path d="M56.8829 65.9138C55.6696 65.9138 54.6896 65.7738 53.9429 65.4938C53.1962 65.2138 52.6829 64.7805 52.4029 64.1938C52.1229 63.5938 52.0696 62.8272 52.2429 61.8938C52.2829 61.7072 52.3762 61.6138 52.5229 61.6138H54.9029C55.0896 61.6138 55.1762 61.7005 55.1629 61.8738C55.1362 62.1938 55.1896 62.4538 55.3229 62.6538C55.4562 62.8405 55.6696 62.9738 55.9629 63.0538C56.2562 63.1338 56.6296 63.1738 57.0829 63.1738C57.9229 63.1738 58.5429 63.0472 58.9429 62.7938C59.3429 62.5405 59.5429 62.1205 59.5429 61.5338C59.5429 61.1205 59.4096 60.8205 59.1429 60.6338C58.8762 60.4472 58.4296 60.3538 57.8029 60.3538H55.8629C55.6629 60.3538 55.5829 60.2605 55.6229 60.0738L55.9229 58.1338C55.9629 57.9472 56.0562 57.8538 56.2029 57.8538H57.6429C58.4429 57.8538 59.0229 57.7272 59.3829 57.4738C59.7429 57.2205 59.9229 56.7938 59.9229 56.1938C59.9229 55.7938 59.7696 55.5005 59.4629 55.3138C59.1562 55.1138 58.6762 55.0138 58.0229 55.0138C57.4362 55.0138 56.9896 55.1138 56.6829 55.3138C56.3896 55.5138 56.2229 55.8205 56.1829 56.2338C56.1696 56.4205 56.0762 56.5138 55.9029 56.5138H53.5229C53.3362 56.5138 53.2429 56.4205 53.2429 56.2338C53.2962 54.9272 53.7429 53.9538 54.5829 53.3138C55.4362 52.6605 56.7096 52.3338 58.4029 52.3338C59.9496 52.3338 61.1296 52.6072 61.9429 53.1538C62.7562 53.6872 63.1629 54.4672 63.1629 55.4938C63.1629 56.3338 62.9562 57.0472 62.5429 57.6338C62.1296 58.2072 61.5362 58.6138 60.7629 58.8538V58.8938C61.3896 59.0405 61.8762 59.3472 62.2229 59.8138C62.5829 60.2805 62.7629 60.8405 62.7629 61.4938C62.7629 62.4538 62.5296 63.2672 62.0629 63.9338C61.6096 64.5872 60.9429 65.0805 60.0629 65.4138C59.1962 65.7472 58.1362 65.9138 56.8829 65.9138Z" fill="white" style="fill:white;fill-opacity:1;"/>
<path d="M65.0254 65.6738C64.9454 65.6738 64.8921 65.6405 64.8654 65.5738C64.8521 65.5072 64.8654 65.4405 64.9054 65.3738L67.5254 61.2138L64.6854 52.8538C64.6721 52.7738 64.6854 52.7072 64.7254 52.6538C64.7654 52.6005 64.8321 52.5738 64.9254 52.5738H67.7654C67.9521 52.5738 68.0654 52.6605 68.1054 52.8338L68.9854 55.9138C69.0921 56.3005 69.1921 56.6872 69.2854 57.0738C69.3787 57.4605 69.4721 57.8605 69.5654 58.2738H69.6054C69.8054 57.8738 70.0121 57.4805 70.2254 57.0938C70.4387 56.6938 70.6587 56.2938 70.8854 55.8938L72.7654 52.8338C72.8587 52.6605 72.9854 52.5738 73.1454 52.5738H76.2854C76.3521 52.5738 76.3987 52.6072 76.4254 52.6738C76.4654 52.7272 76.4587 52.7872 76.4054 52.8538L68.2054 65.4138C68.1654 65.4938 68.1121 65.5605 68.0454 65.6138C67.9787 65.6538 67.8987 65.6738 67.8054 65.6738H65.0254Z" fill="white" style="fill:white;fill-opacity:1;"/>
<path d="M72.9779 65.6738C72.8979 65.6738 72.8446 65.6472 72.8179 65.5938C72.7912 65.5405 72.7979 65.4738 72.8379 65.3938L78.8379 52.8538C78.9179 52.6672 79.0245 52.5738 79.1579 52.5738H82.6779C82.8379 52.5738 82.9312 52.6672 82.9579 52.8538L85.0179 65.3938C85.0446 65.5805 84.9646 65.6738 84.7779 65.6738H81.8379C81.6779 65.6738 81.5846 65.5805 81.5579 65.3938L80.7979 58.3338C80.7312 57.8272 80.6779 57.3272 80.6379 56.8338C80.5979 56.3272 80.5646 55.8272 80.5379 55.3338H80.4779C80.2912 55.8405 80.0979 56.3472 79.8979 56.8538C79.6979 57.3605 79.4912 57.8605 79.2779 58.3538L76.3179 65.3938C76.2379 65.5805 76.1179 65.6738 75.9579 65.6738H72.9779Z" fill="white" style="fill:white;fill-opacity:1;"/>
<path d="M86.3491 65.6738C86.1625 65.6738 86.0825 65.5805 86.1091 65.3938L88.0891 52.8538C88.1291 52.6672 88.2225 52.5738 88.3691 52.5738H91.0291C91.2291 52.5738 91.3158 52.6672 91.2891 52.8538L90.6691 56.7738H92.0891C93.6225 56.7738 94.7758 57.0872 95.5491 57.7138C96.3225 58.3405 96.7091 59.2672 96.7091 60.4938C96.7091 62.1738 96.1958 63.4605 95.1691 64.3538C94.1558 65.2338 92.7158 65.6738 90.8491 65.6738H86.3491ZM89.7091 62.8538H91.1491C91.9091 62.8538 92.4825 62.6805 92.8691 62.3338C93.2691 61.9872 93.4691 61.4805 93.4691 60.8138C93.4691 60.3338 93.3291 59.9872 93.0491 59.7738C92.7691 59.5472 92.3158 59.4338 91.6891 59.4338H90.2491L89.7091 62.8538Z" fill="white" style="fill:white;fill-opacity:1;"/>
<path d="M98.8538 65.6738C98.6538 65.6738 98.5672 65.5805 98.5938 65.3938L100.174 55.4138H97.0138C96.9205 55.4138 96.8472 55.3938 96.7938 55.3538C96.7538 55.3005 96.7405 55.2272 96.7538 55.1338L97.1138 52.8538C97.1405 52.6672 97.2405 52.5738 97.4138 52.5738H107.014C107.107 52.5738 107.18 52.6005 107.234 52.6538C107.287 52.6938 107.3 52.7605 107.274 52.8538L106.914 55.1338C106.887 55.3205 106.787 55.4138 106.614 55.4138H103.414L101.794 65.3938C101.767 65.5805 101.674 65.6738 101.514 65.6738H98.8538Z" fill="white" style="fill:white;fill-opacity:1;"/>
<path d="M104.501 65.6738C104.421 65.6738 104.368 65.6472 104.341 65.5938C104.315 65.5405 104.321 65.4738 104.361 65.3938L110.421 52.8538C110.515 52.6672 110.628 52.5738 110.761 52.5738H114.261C114.421 52.5738 114.521 52.6672 114.561 52.8538L116.661 65.3938C116.701 65.5805 116.621 65.6738 116.421 65.6738H113.481C113.321 65.6738 113.228 65.5805 113.201 65.3938L112.381 58.3338C112.328 57.8405 112.275 57.3405 112.221 56.8338C112.181 56.3272 112.148 55.8272 112.121 55.3338H112.061C111.888 55.8405 111.701 56.3472 111.501 56.8538C111.301 57.3472 111.095 57.8472 110.881 58.3538L107.841 65.3938C107.761 65.5805 107.641 65.6738 107.481 65.6738H104.501ZM108.261 63.3338L109.181 60.7538H113.221L113.361 63.3338H108.261Z" fill="white" style="fill:white;fill-opacity:1;"/>
<path d="M119.362 65.6738C119.162 65.6738 119.075 65.5805 119.102 65.3938L120.682 55.4138H117.522C117.428 55.4138 117.355 55.3938 117.302 55.3538C117.262 55.3005 117.248 55.2272 117.262 55.1338L117.622 52.8538C117.648 52.6672 117.748 52.5738 117.922 52.5738H127.522C127.615 52.5738 127.688 52.6005 127.742 52.6538C127.795 52.6938 127.808 52.7605 127.782 52.8538L127.422 55.1338C127.395 55.3205 127.295 55.4138 127.122 55.4138H123.922L122.302 65.3938C122.275 65.5805 122.182 65.6738 122.022 65.6738H119.362Z" fill="white" style="fill:white;fill-opacity:1;"/>
<path d="M132.566 65.9138C130.673 65.9138 129.3 65.4405 128.446 64.4938C127.593 63.5472 127.306 62.2072 127.586 60.4738L128.086 57.3338C128.353 55.6272 128.986 54.3672 129.986 53.5538C130.986 52.7405 132.386 52.3338 134.186 52.3338C136.066 52.3338 137.44 52.8072 138.306 53.7538C139.173 54.6872 139.466 56.0205 139.186 57.7538L138.666 60.9138C138.4 62.6205 137.766 63.8805 136.766 64.6938C135.766 65.5072 134.366 65.9138 132.566 65.9138ZM132.906 63.0538C133.666 63.0538 134.253 62.8605 134.666 62.4738C135.093 62.0872 135.373 61.4872 135.506 60.6738L135.946 57.8938C136.093 56.9872 135.986 56.3138 135.626 55.8738C135.28 55.4338 134.686 55.2072 133.846 55.1938C133.099 55.1938 132.513 55.3872 132.086 55.7738C131.673 56.1605 131.4 56.7605 131.266 57.5738L130.826 60.3538C130.68 61.2605 130.779 61.9338 131.126 62.3738C131.473 62.8138 132.066 63.0405 132.906 63.0538Z" fill="white" style="fill:white;fill-opacity:1;"/>
<path d="M140.054 65.6738C139.854 65.6738 139.768 65.5805 139.794 65.3938L142.034 52.8538C142.074 52.6672 142.174 52.5738 142.334 52.5738H145.354C145.461 52.5738 145.534 52.6005 145.574 52.6538C145.628 52.6938 145.668 52.7605 145.694 52.8538L147.654 59.3538L151.734 52.8538C151.841 52.6672 151.974 52.5738 152.134 52.5738H155.254C155.441 52.5738 155.528 52.6672 155.514 52.8538L153.774 65.3938C153.748 65.5805 153.648 65.6738 153.474 65.6738H150.874C150.674 65.6738 150.588 65.5805 150.614 65.3938L151.234 60.9138C151.301 60.3405 151.394 59.7472 151.514 59.1338C151.634 58.5205 151.754 57.9338 151.874 57.3738H151.794C151.488 57.9072 151.154 58.4738 150.794 59.0738C150.434 59.6605 150.068 60.2205 149.694 60.7538L147.354 64.3338C147.261 64.4672 147.141 64.5338 146.994 64.5338H146.854C146.708 64.5338 146.614 64.4672 146.574 64.3338L145.354 60.7338C145.168 60.2005 144.981 59.6405 144.794 59.0538C144.621 58.4672 144.468 57.9072 144.334 57.3738H144.254C144.201 57.9338 144.134 58.5138 144.054 59.1138C143.974 59.7138 143.881 60.3138 143.774 60.9138L142.974 65.3938C142.948 65.5805 142.854 65.6738 142.694 65.6738H140.054Z" fill="white" style="fill:white;fill-opacity:1;"/>
</svg>
