<svg width="92" height="43" viewBox="0 0 92 43" fill="none" xmlns="http://www.w3.org/2000/svg">
<rect width="91.4165" height="42.6611" rx="21.3305" fill="#08C4A9" style="fill:#08C4A9;fill:color(display-p3 0.0314 0.7686 0.6627);fill-opacity:1;"/>
<path d="M26.457 24.1325V21.4925H32.925V24.1325H26.457Z" fill="white" style="fill:white;fill-opacity:1;"/>
<path d="M39.9047 28.9285C38.8927 28.9285 37.9687 28.7378 37.1327 28.3565C36.2967 27.9605 35.622 27.4178 35.1087 26.7285C34.61 26.0392 34.3314 25.2692 34.2727 24.4185H37.4627C37.536 24.7265 37.6827 25.0125 37.9027 25.2765C38.1374 25.5405 38.4234 25.7605 38.7607 25.9365C39.098 26.0978 39.4574 26.1785 39.8387 26.1785C40.3667 26.1785 40.8287 26.0685 41.2247 25.8485C41.6207 25.6138 41.9214 25.2985 42.1267 24.9025C42.3467 24.5065 42.4567 24.0738 42.4567 23.6045C42.4567 23.1352 42.3467 22.7025 42.1267 22.3065C41.9214 21.9105 41.628 21.6025 41.2467 21.3825C40.8654 21.1478 40.4254 21.0305 39.9267 21.0305C39.4574 21.0305 39.0467 21.1112 38.6947 21.2725C38.3574 21.4192 38.0347 21.6392 37.7267 21.9325L35.1747 20.8985L37.0447 13.2645H44.9647V16.1245H38.3427L39.5967 15.0465L38.5187 19.4245L37.8367 18.8085C38.2327 18.6178 38.6067 18.4858 38.9587 18.4125C39.3254 18.3245 39.6847 18.2805 40.0367 18.2805C41.0927 18.2805 42.046 18.5078 42.8967 18.9625C43.7474 19.4172 44.4074 20.0478 44.8767 20.8545C45.3607 21.6612 45.6027 22.5778 45.6027 23.6045C45.6027 24.6018 45.368 25.5038 44.8987 26.3105C44.4294 27.1172 43.762 27.7552 42.8967 28.2245C42.046 28.6938 41.0487 28.9285 39.9047 28.9285Z" fill="white" style="fill:white;fill-opacity:1;"/>
<path d="M49.6897 28.6645L60.2717 13.2645H62.7577L52.1977 28.6645H49.6897ZM51.3837 20.9205C50.6357 20.9205 49.9464 20.7445 49.3157 20.3925C48.6997 20.0405 48.2084 19.5638 47.8417 18.9625C47.4751 18.3465 47.2917 17.6792 47.2917 16.9605C47.2917 16.2418 47.4751 15.5818 47.8417 14.9805C48.2084 14.3645 48.6997 13.8805 49.3157 13.5285C49.9464 13.1765 50.6357 13.0005 51.3837 13.0005C52.1317 13.0005 52.8137 13.1765 53.4297 13.5285C54.0604 13.8805 54.5591 14.3645 54.9257 14.9805C55.2924 15.5818 55.4757 16.2418 55.4757 16.9605C55.4757 17.6792 55.2924 18.3465 54.9257 18.9625C54.5591 19.5638 54.0604 20.0405 53.4297 20.3925C52.8137 20.7445 52.1317 20.9205 51.3837 20.9205ZM51.3837 18.9405C51.7504 18.9405 52.0731 18.8598 52.3517 18.6985C52.6451 18.5225 52.8724 18.2878 53.0337 17.9945C53.2097 17.6865 53.2977 17.3418 53.2977 16.9605C53.2977 16.3738 53.1144 15.8972 52.7477 15.5305C52.3957 15.1638 51.9411 14.9805 51.3837 14.9805C51.0171 14.9805 50.6871 15.0685 50.3937 15.2445C50.1151 15.4058 49.8877 15.6405 49.7117 15.9485C49.5504 16.2418 49.4697 16.5792 49.4697 16.9605C49.4697 17.5472 49.6457 18.0238 49.9977 18.3905C50.3644 18.7572 50.8264 18.9405 51.3837 18.9405ZM61.0857 28.9285C60.3377 28.9285 59.6484 28.7525 59.0177 28.4005C58.4017 28.0485 57.9104 27.5718 57.5437 26.9705C57.1771 26.3545 56.9937 25.6872 56.9937 24.9685C56.9937 24.2498 57.1771 23.5898 57.5437 22.9885C57.9104 22.3725 58.4017 21.8885 59.0177 21.5365C59.6484 21.1845 60.3377 21.0085 61.0857 21.0085C61.8337 21.0085 62.5157 21.1845 63.1317 21.5365C63.7624 21.8885 64.2611 22.3725 64.6277 22.9885C64.9944 23.5898 65.1777 24.2498 65.1777 24.9685C65.1777 25.6872 64.9944 26.3545 64.6277 26.9705C64.2611 27.5718 63.7624 28.0485 63.1317 28.4005C62.5157 28.7525 61.8337 28.9285 61.0857 28.9285ZM61.0857 26.9485C61.4524 26.9485 61.7751 26.8678 62.0537 26.7065C62.3471 26.5305 62.5744 26.2958 62.7357 26.0025C62.9117 25.6945 62.9997 25.3498 62.9997 24.9685C62.9997 24.3818 62.8164 23.9052 62.4497 23.5385C62.0977 23.1718 61.6431 22.9885 61.0857 22.9885C60.7191 22.9885 60.3891 23.0765 60.0957 23.2525C59.8171 23.4138 59.5897 23.6485 59.4137 23.9565C59.2524 24.2498 59.1717 24.5872 59.1717 24.9685C59.1717 25.5552 59.3477 26.0318 59.6997 26.3985C60.0664 26.7652 60.5284 26.9485 61.0857 26.9485Z" fill="white" style="fill:white;fill-opacity:1;"/>
</svg>
