<svg width="92" height="43" viewBox="0 0 92 43" fill="none" xmlns="http://www.w3.org/2000/svg">
<rect width="91.4165" height="42.6611" rx="21.3305" fill="#FE2259" style="fill:#FE2259;fill:color(display-p3 0.9948 0.1328 0.3483);fill-opacity:1;"/>
<path d="M27.6289 24.1325V21.4925H34.0969V24.1325H27.6289Z" fill="white" style="fill:white;fill-opacity:1;"/>
<path d="M34.9597 28.6645L41.3177 15.1785L41.9997 16.1245H34.1017V13.2645H44.7937V15.1125L38.4137 28.6645H34.9597Z" fill="white" style="fill:white;fill-opacity:1;"/>
<path d="M48.5198 28.6645L59.1018 13.2645H61.5878L51.0278 28.6645H48.5198ZM50.2138 20.9205C49.4658 20.9205 48.7765 20.7445 48.1458 20.3925C47.5298 20.0405 47.0385 19.5638 46.6718 18.9625C46.3051 18.3465 46.1218 17.6792 46.1218 16.9605C46.1218 16.2418 46.3051 15.5818 46.6718 14.9805C47.0385 14.3645 47.5298 13.8805 48.1458 13.5285C48.7765 13.1765 49.4658 13.0005 50.2138 13.0005C50.9618 13.0005 51.6438 13.1765 52.2598 13.5285C52.8905 13.8805 53.3891 14.3645 53.7558 14.9805C54.1225 15.5818 54.3058 16.2418 54.3058 16.9605C54.3058 17.6792 54.1225 18.3465 53.7558 18.9625C53.3891 19.5638 52.8905 20.0405 52.2598 20.3925C51.6438 20.7445 50.9618 20.9205 50.2138 20.9205ZM50.2138 18.9405C50.5805 18.9405 50.9031 18.8598 51.1818 18.6985C51.4751 18.5225 51.7025 18.2878 51.8638 17.9945C52.0398 17.6865 52.1278 17.3418 52.1278 16.9605C52.1278 16.3738 51.9445 15.8972 51.5778 15.5305C51.2258 15.1638 50.7711 14.9805 50.2138 14.9805C49.8471 14.9805 49.5171 15.0685 49.2238 15.2445C48.9451 15.4058 48.7178 15.6405 48.5418 15.9485C48.3805 16.2418 48.2998 16.5792 48.2998 16.9605C48.2998 17.5472 48.4758 18.0238 48.8278 18.3905C49.1945 18.7572 49.6565 18.9405 50.2138 18.9405ZM59.9158 28.9285C59.1678 28.9285 58.4785 28.7525 57.8478 28.4005C57.2318 28.0485 56.7405 27.5718 56.3738 26.9705C56.0071 26.3545 55.8238 25.6872 55.8238 24.9685C55.8238 24.2498 56.0071 23.5898 56.3738 22.9885C56.7405 22.3725 57.2318 21.8885 57.8478 21.5365C58.4785 21.1845 59.1678 21.0085 59.9158 21.0085C60.6638 21.0085 61.3458 21.1845 61.9618 21.5365C62.5925 21.8885 63.0911 22.3725 63.4578 22.9885C63.8245 23.5898 64.0078 24.2498 64.0078 24.9685C64.0078 25.6872 63.8245 26.3545 63.4578 26.9705C63.0911 27.5718 62.5925 28.0485 61.9618 28.4005C61.3458 28.7525 60.6638 28.9285 59.9158 28.9285ZM59.9158 26.9485C60.2825 26.9485 60.6051 26.8678 60.8838 26.7065C61.1771 26.5305 61.4045 26.2958 61.5658 26.0025C61.7418 25.6945 61.8298 25.3498 61.8298 24.9685C61.8298 24.3818 61.6465 23.9052 61.2798 23.5385C60.9278 23.1718 60.4731 22.9885 59.9158 22.9885C59.5491 22.9885 59.2191 23.0765 58.9258 23.2525C58.6471 23.4138 58.4198 23.6485 58.2438 23.9565C58.0825 24.2498 58.0018 24.5872 58.0018 24.9685C58.0018 25.5552 58.1778 26.0318 58.5298 26.3985C58.8965 26.7652 59.3585 26.9485 59.9158 26.9485Z" fill="white" style="fill:white;fill-opacity:1;"/>
</svg>
