<svg width="92" height="43" viewBox="0 0 92 43" fill="none" xmlns="http://www.w3.org/2000/svg">
<rect width="91.4165" height="42.6611" rx="21.3305" fill="#7D6AFF" style="fill:#7D6AFF;fill:color(display-p3 0.4902 0.4157 1.0000);fill-opacity:1;"/>
<path d="M26.9531 24.1325V21.4925H33.4211V24.1325H26.9531Z" fill="white" style="fill:white;fill-opacity:1;"/>
<path d="M34.2736 28.6645V26.7065L40.0816 20.6345C40.507 20.1945 40.837 19.8058 41.0716 19.4685C41.321 19.1312 41.497 18.8232 41.5996 18.5445C41.7023 18.2658 41.7536 17.9798 41.7536 17.6865C41.7536 17.1585 41.5556 16.7258 41.1596 16.3885C40.7636 16.0365 40.243 15.8605 39.5976 15.8605C38.9083 15.8605 38.3583 16.0585 37.9476 16.4545C37.537 16.8505 37.3316 17.3198 37.3316 17.8625H34.1856C34.2443 16.8652 34.5083 15.9998 34.9776 15.2665C35.4616 14.5332 36.0996 13.9758 36.8916 13.5945C37.6836 13.1985 38.593 13.0005 39.6196 13.0005C40.617 13.0005 41.5116 13.1765 42.3036 13.5285C43.1103 13.8805 43.741 14.4012 44.1956 15.0905C44.665 15.7798 44.8996 16.6085 44.8996 17.5765C44.8996 18.1192 44.819 18.6325 44.6576 19.1165C44.511 19.5858 44.269 20.0698 43.9316 20.5685C43.609 21.0525 43.1616 21.5878 42.5896 22.1745L38.3876 26.5305L38.0796 25.6945H45.2516V28.6645H34.2736Z" fill="white" style="fill:white;fill-opacity:1;"/>
<path d="M49.1975 28.6645L59.7795 13.2645H62.2655L51.7055 28.6645H49.1975ZM50.8915 20.9205C50.1435 20.9205 49.4542 20.7445 48.8235 20.3925C48.2075 20.0405 47.7162 19.5638 47.3495 18.9625C46.9829 18.3465 46.7995 17.6792 46.7995 16.9605C46.7995 16.2418 46.9829 15.5818 47.3495 14.9805C47.7162 14.3645 48.2075 13.8805 48.8235 13.5285C49.4542 13.1765 50.1435 13.0005 50.8915 13.0005C51.6395 13.0005 52.3215 13.1765 52.9375 13.5285C53.5682 13.8805 54.0669 14.3645 54.4335 14.9805C54.8002 15.5818 54.9835 16.2418 54.9835 16.9605C54.9835 17.6792 54.8002 18.3465 54.4335 18.9625C54.0669 19.5638 53.5682 20.0405 52.9375 20.3925C52.3215 20.7445 51.6395 20.9205 50.8915 20.9205ZM50.8915 18.9405C51.2582 18.9405 51.5809 18.8598 51.8595 18.6985C52.1529 18.5225 52.3802 18.2878 52.5415 17.9945C52.7175 17.6865 52.8055 17.3418 52.8055 16.9605C52.8055 16.3738 52.6222 15.8972 52.2555 15.5305C51.9035 15.1638 51.4489 14.9805 50.8915 14.9805C50.5249 14.9805 50.1949 15.0685 49.9015 15.2445C49.6229 15.4058 49.3955 15.6405 49.2195 15.9485C49.0582 16.2418 48.9775 16.5792 48.9775 16.9605C48.9775 17.5472 49.1535 18.0238 49.5055 18.3905C49.8722 18.7572 50.3342 18.9405 50.8915 18.9405ZM60.5935 28.9285C59.8455 28.9285 59.1562 28.7525 58.5255 28.4005C57.9095 28.0485 57.4182 27.5718 57.0515 26.9705C56.6849 26.3545 56.5015 25.6872 56.5015 24.9685C56.5015 24.2498 56.6849 23.5898 57.0515 22.9885C57.4182 22.3725 57.9095 21.8885 58.5255 21.5365C59.1562 21.1845 59.8455 21.0085 60.5935 21.0085C61.3415 21.0085 62.0235 21.1845 62.6395 21.5365C63.2702 21.8885 63.7689 22.3725 64.1355 22.9885C64.5022 23.5898 64.6855 24.2498 64.6855 24.9685C64.6855 25.6872 64.5022 26.3545 64.1355 26.9705C63.7689 27.5718 63.2702 28.0485 62.6395 28.4005C62.0235 28.7525 61.3415 28.9285 60.5935 28.9285ZM60.5935 26.9485C60.9602 26.9485 61.2829 26.8678 61.5615 26.7065C61.8549 26.5305 62.0822 26.2958 62.2435 26.0025C62.4195 25.6945 62.5075 25.3498 62.5075 24.9685C62.5075 24.3818 62.3242 23.9052 61.9575 23.5385C61.6055 23.1718 61.1509 22.9885 60.5935 22.9885C60.2269 22.9885 59.8969 23.0765 59.6035 23.2525C59.3249 23.4138 59.0975 23.6485 58.9215 23.9565C58.7602 24.2498 58.6795 24.5872 58.6795 24.9685C58.6795 25.5552 58.8555 26.0318 59.2075 26.3985C59.5742 26.7652 60.0362 26.9485 60.5935 26.9485Z" fill="white" style="fill:white;fill-opacity:1;"/>
</svg>
