<svg width="92" height="43" viewBox="0 0 92 43" fill="none" xmlns="http://www.w3.org/2000/svg">
<rect width="91.4165" height="42.6611" rx="21.3305" fill="#FE2259" style="fill:#FE2259;fill:color(display-p3 0.9948 0.1328 0.3483);fill-opacity:1;"/>
<path d="M26.0078 24.1325V21.4925H32.4758V24.1325H26.0078Z" fill="white" style="fill:white;fill-opacity:1;"/>
<path d="M41.3269 28.6645V16.7625L42.3389 16.8725L37.3229 23.6925L36.7289 22.8125H46.5409V25.5625H34.2209V23.5825L41.8549 13.2645H44.2969V28.6645H41.3269Z" fill="white" style="fill:white;fill-opacity:1;"/>
<path d="M50.1428 28.6645L60.7248 13.2645H63.2108L52.6508 28.6645H50.1428ZM51.8368 20.9205C51.0888 20.9205 50.3995 20.7445 49.7688 20.3925C49.1528 20.0405 48.6615 19.5638 48.2948 18.9625C47.9282 18.3465 47.7448 17.6792 47.7448 16.9605C47.7448 16.2418 47.9282 15.5818 48.2948 14.9805C48.6615 14.3645 49.1528 13.8805 49.7688 13.5285C50.3995 13.1765 51.0888 13.0005 51.8368 13.0005C52.5848 13.0005 53.2668 13.1765 53.8828 13.5285C54.5135 13.8805 55.0122 14.3645 55.3788 14.9805C55.7455 15.5818 55.9288 16.2418 55.9288 16.9605C55.9288 17.6792 55.7455 18.3465 55.3788 18.9625C55.0122 19.5638 54.5135 20.0405 53.8828 20.3925C53.2668 20.7445 52.5848 20.9205 51.8368 20.9205ZM51.8368 18.9405C52.2035 18.9405 52.5262 18.8598 52.8048 18.6985C53.0982 18.5225 53.3255 18.2878 53.4868 17.9945C53.6628 17.6865 53.7508 17.3418 53.7508 16.9605C53.7508 16.3738 53.5675 15.8972 53.2008 15.5305C52.8488 15.1638 52.3942 14.9805 51.8368 14.9805C51.4702 14.9805 51.1402 15.0685 50.8468 15.2445C50.5682 15.4058 50.3408 15.6405 50.1648 15.9485C50.0035 16.2418 49.9228 16.5792 49.9228 16.9605C49.9228 17.5472 50.0988 18.0238 50.4508 18.3905C50.8175 18.7572 51.2795 18.9405 51.8368 18.9405ZM61.5388 28.9285C60.7908 28.9285 60.1015 28.7525 59.4708 28.4005C58.8548 28.0485 58.3635 27.5718 57.9968 26.9705C57.6302 26.3545 57.4468 25.6872 57.4468 24.9685C57.4468 24.2498 57.6302 23.5898 57.9968 22.9885C58.3635 22.3725 58.8548 21.8885 59.4708 21.5365C60.1015 21.1845 60.7908 21.0085 61.5388 21.0085C62.2868 21.0085 62.9688 21.1845 63.5848 21.5365C64.2155 21.8885 64.7142 22.3725 65.0808 22.9885C65.4475 23.5898 65.6308 24.2498 65.6308 24.9685C65.6308 25.6872 65.4475 26.3545 65.0808 26.9705C64.7142 27.5718 64.2155 28.0485 63.5848 28.4005C62.9688 28.7525 62.2868 28.9285 61.5388 28.9285ZM61.5388 26.9485C61.9055 26.9485 62.2282 26.8678 62.5068 26.7065C62.8002 26.5305 63.0275 26.2958 63.1888 26.0025C63.3648 25.6945 63.4528 25.3498 63.4528 24.9685C63.4528 24.3818 63.2695 23.9052 62.9028 23.5385C62.5508 23.1718 62.0962 22.9885 61.5388 22.9885C61.1722 22.9885 60.8422 23.0765 60.5488 23.2525C60.2702 23.4138 60.0428 23.6485 59.8668 23.9565C59.7055 24.2498 59.6248 24.5872 59.6248 24.9685C59.6248 25.5552 59.8008 26.0318 60.1528 26.3985C60.5195 26.7652 60.9815 26.9485 61.5388 26.9485Z" fill="white" style="fill:white;fill-opacity:1;"/>
</svg>
