<svg width="43" height="26" viewBox="0 0 43 26" fill="none" xmlns="http://www.w3.org/2000/svg">
<g clip-path="url(#clip0_3332_4047)">
<path d="M0 11.2938C0 5.0564 5.0564 0 11.2938 0H31.4897C37.7271 0 42.7835 5.0564 42.7835 11.2938V13.9511C42.7835 20.1885 37.7271 25.2449 31.4897 25.2449H11.2938C5.0564 25.2449 0 20.1885 0 13.9511V11.2938Z" fill="#FF00FF" style="fill:#FF00FF;fill:color(display-p3 1.0000 0.0000 1.0000);fill-opacity:1;"/>
<path d="M9.49853 19.2626L4.9375 7.27983H7.99411L10.6925 14.2059L13.367 7.27983H15.2058L17.9281 14.2538L20.6265 7.27983H23.5398L18.9788 19.2626H17.0445L14.2506 12.0729L11.4328 19.2626H9.49853Z" fill="white" style="fill:white;fill-opacity:1;"/>
<path d="M24.3771 12.6961V2.05957H27.2427V8.57398C28.365 7.49552 29.8456 6.94432 31.3261 6.94432C34.2633 6.94432 37.2244 9.05329 37.2244 13.2712C37.2244 16.9859 34.5021 19.5981 30.753 19.5981C27.0039 19.5981 24.3771 16.9859 24.3771 12.6961ZM27.2427 13.2712C27.2427 15.3083 28.6755 16.7462 30.753 16.7462C32.8305 16.7462 34.2633 15.3083 34.2633 13.2712C34.2633 11.2342 32.8305 9.79622 30.753 9.79622C28.6755 9.79622 27.2427 11.2342 27.2427 13.2712Z" fill="white" style="fill:white;fill-opacity:1;"/>
</g>
<defs>
<clipPath id="clip0_3332_4047">
<rect width="42.7835" height="25.2449" rx="11.2938" fill="white" style="fill:white;fill-opacity:1;"/>
</clipPath>
</defs>
</svg>
