<svg xmlns="http://www.w3.org/2000/svg" width="92" height="43" viewBox="0 0 91.4164 42.6611" fill="none">
  <!-- extracted from arkanoid.svg -->
  <g transform="translate(-322.895 -191.141)">
    <rect x="322.895" y="191.141" width="22.8541" height="42.6611" rx="11.4271" fill="#666D9E"/>
    <rect x="345.746" y="191.141" width="22.8541" height="42.6611" rx="11.4271" fill="#666D9E"/>
    <rect x="368.602" y="191.141" width="22.8541" height="42.6611" rx="11.4271" fill="#666D9E"/>
    <rect x="391.453" y="191.141" width="22.8541" height="42.6611" rx="11.4271" fill="#666D9E"/>
    <path d="M395.685 220.861C401.706 217.113 403.548 209.193 399.8 203.172L377.996 216.746C381.744 222.767 389.664 224.609 395.685 220.861Z" fill="#A0E2E8"/>
    <ellipse cx="391.345" cy="216.662" rx="3.41112" ry="6.04002" fill="black"/>
    <path d="M338.885 220.861C332.864 217.113 331.022 209.193 334.77 203.172L356.574 216.746C352.826 222.767 344.906 224.609 338.885 220.861Z" fill="#A0E2E8"/>
    <ellipse cx="3.41112" cy="6.04002" rx="3.41112" ry="6.04002" transform="matrix(-1 0 0 1 349.102 210.622)" fill="black"/>
  </g>
</svg>
