<svg xmlns="http://www.w3.org/2000/svg" width="92" height="43" viewBox="0 0 91.4165 42.6611" fill="none">
  <!-- extracted from arkanoid.svg -->
  <g transform="translate(-25 -238.59)">
    <rect x="25" y="238.59" width="22.8541" height="42.6611" rx="11.4271" fill="#8D9281"/>
    <rect x="47.8555" y="238.59" width="22.8541" height="42.6611" rx="11.4271" fill="#8D9281"/>
    <rect x="70.707" y="238.59" width="22.8541" height="42.6611" rx="11.4271" fill="#8D9281"/>
    <rect x="93.5625" y="238.59" width="22.8541" height="42.6611" rx="11.4271" fill="#8D9281"/>
    <path d="M88.3958 268.31C94.4168 264.562 96.2592 256.642 92.511 250.621L70.707 264.195C74.4552 270.216 82.3748 272.058 88.3958 268.31Z" fill="#D6DFBE"/>
    <ellipse cx="84.0556" cy="264.111" rx="3.41112" ry="6.04002" fill="black"/>
    <path d="M53.0183 268.31C46.9973 264.562 45.1549 256.642 48.9031 250.621L70.707 264.195C66.9588 270.216 59.0393 272.058 53.0183 268.31Z" fill="#D6DFBE"/>
    <ellipse cx="3.41112" cy="6.04002" rx="3.41112" ry="6.04002" transform="matrix(-1 0 0 1 63.2344 258.071)" fill="black"/>
  </g>
</svg>
