<svg xmlns="http://www.w3.org/2000/svg" width="92" height="43" viewBox="0 0 91.417 42.6611" fill="none">
  <!-- extracted from arkanoid.svg -->
  <g transform="translate(-221.539 -238.59)">
    <rect x="221.539" y="238.59" width="22.8541" height="42.6611" rx="11.4271" fill="#8D4142"/>
    <rect x="244.395" y="238.59" width="22.8541" height="42.6611" rx="11.4271" fill="#8D4142"/>
    <rect x="267.246" y="238.59" width="22.8541" height="42.6611" rx="11.4271" fill="#8D4142"/>
    <rect x="290.102" y="238.59" width="22.8541" height="42.6611" rx="11.4271" fill="#8D4142"/>
    <path d="M284.935 268.31C290.956 264.562 292.798 256.642 289.05 250.621L267.246 264.195C270.994 270.216 278.914 272.058 284.935 268.31Z" fill="#FFD782"/>
    <ellipse cx="280.595" cy="264.111" rx="3.41112" ry="6.04002" fill="black"/>
    <path d="M249.557 268.31C243.536 264.562 241.694 256.642 245.442 250.621L267.246 264.195C263.498 270.216 255.578 272.058 249.557 268.31Z" fill="#FFD782"/>
    <ellipse cx="3.41112" cy="6.04002" rx="3.41112" ry="6.04002" transform="matrix(-1 0 0 1 259.777 258.071)" fill="black"/>
  </g>
</svg>
